<svg width="518" height="309" viewBox="0 0 518 309" fill="none" xmlns="http://www.w3.org/2000/svg">
<g filter="url(#filter0_d_618_714)">
<path d="M506.003 287.883C505.562 291.413 504.563 294.929 503.037 298.184H32.8992C14.6336 278.761 7.97846 249.825 18.0914 224.811C23.1262 212.347 31.7924 201.344 42.665 193.444C48.1338 189.459 54.1958 186.247 60.605 184.069C67.81 181.617 75.3839 180.619 82.842 179.259C90.6401 177.834 98.6046 175.946 105.231 171.374C109.904 168.14 113.666 163.793 116.48 158.881C122.245 148.826 124.56 137.187 127.063 125.996C129.544 114.913 132.018 103.375 137.885 93.4938C144.2 82.8528 154.32 76.0746 166.495 73.8755C181.187 71.2134 196.233 74.107 211.012 74.1577C218.593 74.1794 226.138 73.456 233.386 71.1122C240.215 68.8986 246.646 65.6434 252.961 62.2651C265.158 55.7474 277.716 47.8986 291.851 46.8352C305.299 45.8225 317.3 51.9424 326.327 61.5924C335.818 71.7415 341.837 84.3719 347.429 96.9299C353.259 110.038 359.3 123.862 369.637 134.127C374.867 139.328 381.095 143.249 388.127 145.534C396.286 148.182 404.945 148.804 413.431 149.643C427.002 150.974 442.287 153.275 452.06 163.807C462.831 175.432 460.552 192.128 464.35 206.386C468.625 222.431 480.684 234.519 490.515 247.315C499.311 258.774 507.891 272.815 506.003 287.883Z" fill="#DEEDFF"/>
<path d="M510.112 298.184H21.354V300.282H510.112V298.184Z" fill="#19203F"/>
<path d="M58.6845 196.632C55.3735 196.627 52.059 196.255 48.8305 195.526C48.6887 195.494 48.5657 195.407 48.4883 195.285C48.4109 195.162 48.3856 195.014 48.4174 194.872L49.7564 188.965C46.371 188.151 43.1099 186.863 40.0485 185.13L36.9893 190.357C36.8374 190.618 36.5039 190.706 36.2435 190.554C30.6083 187.283 25.6321 182.625 21.8524 177.087C21.7707 176.967 21.7396 176.819 21.767 176.677C21.7945 176.534 21.877 176.409 21.9978 176.327L27.0181 172.927C24.6288 169.293 22.9042 165.316 21.8842 161.092L15.9763 162.432C15.6833 162.496 15.3889 162.314 15.3224 162.02C14.5889 158.79 14.2163 155.474 14.2163 152.165C14.2163 148.856 14.5889 145.541 15.3224 142.311C15.3889 142.016 15.6833 141.831 15.9763 141.899L21.8835 143.238C22.6966 139.854 23.985 136.593 25.7182 133.531L20.4924 130.471C20.2327 130.319 20.1445 129.986 20.2957 129.725C23.5567 124.099 28.2117 119.122 33.7565 115.334C33.8773 115.252 34.0256 115.221 34.1667 115.248C34.3092 115.276 34.4358 115.358 34.5168 115.478L37.9232 120.5C41.5568 118.111 45.5333 116.385 49.7579 115.365L48.4181 109.457C48.3516 109.163 48.5361 108.871 48.8305 108.804C52.051 108.071 55.3663 107.697 58.683 107.692C62.0019 107.697 65.3172 108.071 68.5385 108.804C68.8329 108.871 69.0174 109.163 68.9508 109.457L67.6118 115.365C70.9973 116.178 74.2576 117.466 77.319 119.199L80.3789 113.973C80.5315 113.713 80.8643 113.626 81.1247 113.776C86.7426 117.031 91.718 121.686 95.5158 127.236C95.5983 127.356 95.6287 127.504 95.6019 127.646C95.5744 127.79 95.492 127.915 95.3719 127.997L90.3501 131.403C92.7402 135.037 94.4647 139.014 95.4847 143.238L101.393 141.899C101.686 141.831 101.979 142.016 102.047 142.31C102.775 145.515 103.148 148.831 103.153 152.163C103.148 155.497 102.775 158.812 102.047 162.018C101.979 162.312 101.686 162.496 101.393 162.43L95.4847 161.092C94.6695 164.483 93.3811 167.742 91.65 170.794L96.8772 173.859C97.1369 174.01 97.2245 174.344 97.0733 174.604C93.8173 180.222 89.1623 185.198 83.6125 188.995C83.4931 189.077 83.3448 189.108 83.2023 189.081C83.0598 189.053 82.9332 188.971 82.8522 188.851L79.4457 183.83C75.8122 186.22 71.835 187.944 67.6111 188.964L68.9508 194.872C68.9826 195.014 68.9573 195.162 68.8799 195.285C68.8025 195.407 68.6795 195.494 68.5378 195.526C65.3085 196.255 61.9933 196.627 58.6845 196.632ZM49.6059 194.577C52.587 195.211 55.639 195.535 58.6852 195.539C61.7292 195.534 64.7812 195.211 67.7623 194.576L66.4247 188.676C66.3929 188.534 66.4182 188.386 66.4956 188.263C66.573 188.14 66.696 188.054 66.8371 188.022C71.3033 187.011 75.4917 185.194 79.2859 182.622C79.5354 182.452 79.8747 182.517 80.0447 182.767L83.4461 187.78C88.5098 184.224 92.7821 179.658 95.8508 174.525L90.6279 171.462C90.3675 171.309 90.2807 170.974 90.4333 170.714C92.338 167.465 93.7204 163.967 94.5414 160.318C94.5733 160.177 94.6601 160.053 94.7823 159.976C94.9053 159.899 95.0543 159.873 95.1946 159.905L101.096 161.243C101.73 158.283 102.053 155.231 102.057 152.163C102.052 149.098 101.729 146.046 101.096 143.086L95.1946 144.424C95.055 144.456 94.9053 144.431 94.7823 144.353C94.6593 144.276 94.5725 144.153 94.5407 144.012C93.5301 139.545 91.713 135.357 89.1399 131.563C88.9706 131.313 89.0357 130.973 89.2853 130.804L94.2984 127.403C90.7422 122.339 86.1762 118.066 81.043 114.999L77.9859 120.221C77.8326 120.481 77.4977 120.568 77.238 120.416C73.9784 118.508 70.4786 117.126 66.8356 116.307C66.6938 116.275 66.5716 116.189 66.4935 116.066C66.4161 115.943 66.3907 115.795 66.4226 115.653L67.7608 109.752C64.7863 109.115 61.7343 108.79 58.6809 108.785C55.6296 108.79 52.5776 109.115 49.6038 109.752L50.942 115.653C50.9739 115.794 50.9486 115.943 50.8711 116.066C50.7937 116.188 50.6708 116.275 50.5297 116.307C46.0635 117.318 41.8751 119.135 38.0809 121.708C37.8313 121.877 37.4914 121.813 37.3221 121.563L33.9207 116.549C28.8613 120.097 24.589 124.662 21.516 129.805L26.7374 132.862C26.9979 133.015 27.0854 133.349 26.9335 133.609C25.0259 136.87 23.6435 140.37 22.8254 144.012C22.7935 144.153 22.7067 144.276 22.5845 144.354C22.4615 144.432 22.3132 144.457 22.1721 144.425L16.2707 143.087C15.6327 146.068 15.3094 149.119 15.3094 152.166C15.3094 155.211 15.6327 158.263 16.2707 161.245L22.1721 159.907C22.311 159.875 22.4608 159.9 22.5845 159.977C22.7074 160.055 22.7943 160.178 22.8261 160.319C23.8367 164.785 25.6538 168.974 28.2269 172.768C28.3079 172.888 28.3383 173.035 28.3115 173.178C28.2841 173.32 28.2009 173.446 28.0808 173.527L23.0677 176.923C26.6094 181.976 31.1747 186.25 36.3238 189.333L39.3801 184.111C39.5328 183.85 39.8684 183.763 40.1281 183.915C43.3877 185.823 46.8875 187.205 50.5304 188.024C50.6722 188.056 50.7952 188.143 50.8726 188.265C50.95 188.388 50.9753 188.536 50.9435 188.677L49.6059 194.577ZM58.6838 178.883C43.9512 178.883 31.9661 166.897 31.9661 152.165C31.9661 137.429 43.9512 125.442 58.6838 125.442C73.4163 125.442 85.4021 137.43 85.4021 152.165C85.4021 166.897 73.4163 178.883 58.6838 178.883ZM58.6838 126.534C44.5538 126.534 33.0591 138.032 33.0591 152.165C33.0591 166.295 44.5538 177.79 58.6838 177.79C72.8137 177.79 84.3091 166.295 84.3091 152.165C84.3091 138.032 72.8137 126.534 58.6838 126.534Z" fill="#A4BFEA"/>
<path d="M469.485 282.267C466.173 282.262 462.86 281.889 459.636 281.161C459.495 281.129 459.372 281.042 459.295 280.92C459.217 280.797 459.192 280.649 459.224 280.507L460.563 274.599C457.163 273.782 453.902 272.494 450.855 270.765L447.79 275.991C447.638 276.251 447.305 276.338 447.044 276.188C441.418 272.921 436.442 268.265 432.654 262.722C432.571 262.602 432.541 262.454 432.568 262.312C432.595 262.169 432.678 262.043 432.798 261.961L437.814 258.56C435.427 254.925 433.704 250.949 432.685 246.727L426.776 248.065C426.637 248.097 426.486 248.072 426.364 247.995C426.242 247.917 426.155 247.794 426.123 247.652C425.395 244.424 425.022 241.109 425.017 237.801C425.022 234.49 425.395 231.175 426.123 227.946C426.155 227.805 426.242 227.681 426.364 227.604C426.487 227.526 426.636 227.501 426.776 227.533L432.684 228.872C433.5 225.485 434.787 222.225 436.519 219.165L431.293 216.105C431.033 215.953 430.945 215.619 431.096 215.359C434.367 209.725 439.024 204.748 444.563 200.968C444.682 200.885 444.831 200.855 444.973 200.882C445.116 200.91 445.242 200.992 445.324 201.112L448.725 206.128C452.368 203.736 456.346 202.012 460.564 200.999L459.225 195.091C459.158 194.797 459.343 194.504 459.637 194.438C462.852 193.705 466.166 193.331 469.485 193.326C472.803 193.331 476.119 193.706 479.339 194.438C479.633 194.505 479.818 194.797 479.752 195.092L478.413 201C481.801 201.815 485.062 203.103 488.12 204.834L491.18 199.609C491.332 199.349 491.666 199.26 491.925 199.412C497.553 202.673 502.53 207.327 506.318 212.873C506.4 212.993 506.431 213.14 506.403 213.283C506.376 213.426 506.293 213.552 506.173 213.634L501.152 217.034C503.542 220.673 505.267 224.651 506.286 228.873L512.195 227.534C512.487 227.467 512.782 227.651 512.849 227.946C513.581 231.167 513.955 234.482 513.961 237.799C513.956 241.118 513.581 244.433 512.849 247.654C512.782 247.948 512.488 248.132 512.195 248.066L506.287 246.727C505.47 250.121 504.183 253.381 502.452 256.43L507.679 259.494C507.938 259.646 508.026 259.98 507.875 260.239C504.62 265.857 499.965 270.833 494.414 274.631C494.294 274.712 494.145 274.743 494.004 274.717C493.861 274.689 493.735 274.607 493.653 274.486L490.252 269.465C486.612 271.855 482.634 273.58 478.413 274.599L479.752 280.508C479.784 280.65 479.759 280.798 479.681 280.92C479.604 281.043 479.481 281.129 479.339 281.161C476.109 281.889 472.794 282.262 469.485 282.267ZM460.412 280.212C463.388 280.845 466.438 281.169 469.485 281.174C472.53 281.169 475.581 280.845 478.562 280.211L477.225 274.311C477.193 274.169 477.218 274.021 477.296 273.898C477.373 273.775 477.496 273.689 477.637 273.657C482.101 272.647 486.291 270.83 490.092 268.256C490.341 268.087 490.681 268.151 490.851 268.402L494.246 273.415C499.311 269.858 503.583 265.292 506.651 260.16L501.429 257.098C501.304 257.025 501.213 256.905 501.176 256.764C501.14 256.624 501.16 256.475 501.234 256.35C503.138 253.105 504.52 249.606 505.341 245.953C505.373 245.812 505.46 245.688 505.582 245.611C505.705 245.534 505.854 245.509 505.995 245.54L511.897 246.878C512.533 243.904 512.859 240.853 512.864 237.799C512.859 234.748 512.533 231.696 511.897 228.721L505.995 230.06C505.853 230.091 505.705 230.066 505.582 229.989C505.459 229.911 505.373 229.788 505.341 229.647C504.33 225.183 502.514 220.993 499.94 217.193C499.859 217.073 499.828 216.925 499.855 216.783C499.883 216.641 499.966 216.515 500.086 216.434L505.099 213.038C501.551 207.979 496.986 203.707 491.843 200.634L488.787 205.855C488.633 206.115 488.298 206.203 488.039 206.051C484.782 204.146 481.283 202.763 477.636 201.943C477.495 201.911 477.372 201.824 477.294 201.702C477.217 201.579 477.192 201.431 477.223 201.29L478.562 195.388C475.587 194.751 472.536 194.425 469.482 194.42C466.429 194.425 463.38 194.75 460.41 195.388L461.749 201.29C461.78 201.431 461.755 201.58 461.678 201.702C461.6 201.825 461.477 201.911 461.336 201.943C456.876 202.946 452.685 204.761 448.882 207.338C448.632 207.507 448.292 207.443 448.123 207.193L444.727 202.184C439.674 205.726 435.399 210.292 432.318 215.44L437.539 218.497C437.799 218.65 437.887 218.985 437.735 219.245C435.829 222.502 434.446 226.002 433.627 229.647C433.595 229.788 433.508 229.911 433.386 229.989C433.263 230.066 433.115 230.092 432.974 230.06L427.073 228.722C426.439 231.704 426.115 234.755 426.11 237.801C426.115 240.846 426.439 243.897 427.072 246.878L432.974 245.541C433.115 245.509 433.263 245.534 433.386 245.612C433.509 245.689 433.596 245.812 433.628 245.953C434.637 250.419 436.452 254.607 439.023 258.403C439.192 258.652 439.127 258.992 438.877 259.162L433.869 262.557C437.418 267.615 441.983 271.889 447.125 274.968L450.187 269.745C450.26 269.62 450.381 269.53 450.521 269.493C450.661 269.455 450.81 269.478 450.935 269.551C454.178 271.453 457.677 272.836 461.338 273.658C461.479 273.69 461.602 273.777 461.68 273.899C461.757 274.022 461.783 274.17 461.751 274.311L460.412 280.212ZM469.43 267.413C453.598 267.413 440.718 254.533 440.718 238.701C440.718 222.868 453.598 209.988 469.43 209.988C485.262 209.988 498.142 222.868 498.142 238.701C498.142 254.533 485.262 267.413 469.43 267.413ZM469.43 211.081C454.201 211.081 441.811 223.471 441.811 238.701C441.811 253.93 454.201 266.32 469.43 266.32C484.659 266.32 497.049 253.93 497.049 238.701C497.049 223.471 484.659 211.081 469.43 211.081Z" fill="#A4BFEA"/>
<path d="M461.516 162.25C461.47 162.25 461.425 162.244 461.379 162.233L459.62 161.779C459.132 161.613 458.687 161.45 458.244 161.287L457.858 161.146C457.39 160.991 456.943 160.775 456.51 160.567L455.879 160.262C455.414 160.037 454.935 159.805 454.482 159.512C452.494 158.404 450.549 156.853 448.73 154.919C448.63 154.813 448.577 154.672 448.582 154.526C448.587 154.381 448.65 154.243 448.756 154.144L451.974 151.151C450.408 149.371 449.189 147.365 448.344 145.174L444.202 146.649C443.919 146.75 443.605 146.602 443.504 146.318L443.198 145.46C443.132 145.255 443.083 145.065 443.033 144.876C443.006 144.767 442.977 144.659 442.946 144.551C442.894 144.334 442.843 144.139 442.792 143.945C442.69 143.554 442.585 143.15 442.509 142.735L442.233 140.921C442.159 140.5 442.143 140.072 442.126 139.659C442.118 139.465 442.111 139.269 442.097 139.075L442.052 138.154C442.039 137.919 442.052 137.693 442.065 137.475C442.07 137.386 442.076 137.297 442.078 137.207C442.106 136.59 442.134 135.984 442.178 135.378L442.266 134.765C442.413 133.754 442.565 132.71 442.865 131.694C442.948 131.41 443.244 131.243 443.526 131.32L447.781 132.425C448.594 129.612 450.032 126.99 451.972 124.783L448.754 121.789C448.648 121.689 448.585 121.551 448.58 121.406C448.575 121.261 448.629 121.119 448.729 121.013C450.559 119.073 452.505 117.522 454.511 116.403C454.933 116.129 455.413 115.897 455.876 115.672L456.511 115.366C456.943 115.158 457.39 114.942 457.873 114.783L458.255 114.642C458.695 114.48 459.135 114.319 459.579 114.167L461.378 113.701C461.522 113.666 461.673 113.687 461.799 113.763C461.925 113.84 462.015 113.965 462.048 114.108L463.026 118.398C465.33 117.941 467.711 117.89 470.02 118.247L470.809 113.913C470.835 113.769 470.917 113.641 471.038 113.559C471.159 113.477 471.309 113.446 471.451 113.475C474.093 113.993 476.45 114.802 478.458 115.88C480.707 117.076 482.717 118.538 484.429 120.223C484.533 120.325 484.591 120.463 484.593 120.609C484.594 120.754 484.537 120.893 484.436 120.996L481.343 124.137C483.377 126.256 484.929 128.811 485.866 131.584L490.089 130.288C490.228 130.246 490.378 130.261 490.507 130.329C490.636 130.398 490.731 130.515 490.773 130.655C491.458 132.954 491.826 135.412 491.866 137.961C491.826 140.524 491.458 142.98 490.773 145.28C490.731 145.42 490.635 145.537 490.507 145.606C490.378 145.675 490.228 145.689 490.089 145.647L485.867 144.351C485.119 146.576 483.989 148.632 482.5 150.479L485.855 153.337C485.966 153.431 486.034 153.565 486.045 153.71C486.056 153.855 486.01 153.998 485.916 154.108C482.667 157.905 478.285 160.697 473.576 161.969C473.29 162.047 472.987 161.877 472.907 161.587L471.739 157.342C468.939 158.038 465.927 158.111 463.026 157.536L462.048 161.826C462.015 161.969 461.925 162.094 461.799 162.171C461.714 162.223 461.616 162.25 461.516 162.25ZM449.906 154.567C451.537 156.235 453.263 157.582 455.044 158.576C455.472 158.85 455.9 159.058 456.355 159.278L456.986 159.583C457.405 159.785 457.801 159.976 458.218 160.114L458.622 160.262C459.057 160.422 459.494 160.583 459.934 160.733L461.109 161.035L462.082 156.767C462.15 156.474 462.442 156.289 462.736 156.356C465.805 157.052 469.03 156.972 471.978 156.15C472.116 156.109 472.267 156.128 472.393 156.2C472.52 156.272 472.613 156.39 472.651 156.531L473.816 160.765C477.945 159.539 481.783 157.091 484.726 153.809L481.382 150.96C481.153 150.765 481.125 150.42 481.32 150.19C483.006 148.21 484.24 145.963 484.991 143.51C485.033 143.371 485.129 143.254 485.257 143.187C485.384 143.118 485.535 143.105 485.673 143.147L489.878 144.438C490.438 142.388 490.739 140.211 490.775 137.961C490.739 135.724 490.438 133.547 489.878 131.497L485.673 132.788C485.383 132.877 485.078 132.713 484.99 132.426C484.077 129.452 482.418 126.721 480.194 124.528C479.979 124.316 479.977 123.97 480.188 123.755L483.27 120.625C481.721 119.173 479.931 117.903 477.943 116.845C476.169 115.892 474.099 115.158 471.784 114.66L470.999 118.974C470.973 119.117 470.892 119.244 470.772 119.325C470.652 119.408 470.506 119.443 470.363 119.414C467.857 118.957 465.237 119.012 462.734 119.579C462.44 119.643 462.147 119.461 462.081 119.167L461.107 114.9L459.892 115.214C459.496 115.351 459.064 115.51 458.632 115.669L458.232 115.816C457.8 115.959 457.405 116.15 456.986 116.352L456.352 116.658C455.899 116.878 455.47 117.086 455.073 117.342C453.275 118.347 451.547 119.695 449.905 121.369L453.111 124.352C453.331 124.557 453.344 124.903 453.138 125.124C451.011 127.414 449.474 130.216 448.693 133.228C448.657 133.369 448.566 133.489 448.441 133.562C448.316 133.636 448.166 133.657 448.027 133.62L443.775 132.516C443.582 133.305 443.462 134.127 443.347 134.925L443.262 135.501C443.224 136.055 443.196 136.651 443.169 137.253C443.166 137.346 443.16 137.443 443.154 137.541C443.143 137.728 443.131 137.914 443.141 138.1L443.185 139.011C443.199 139.204 443.208 139.411 443.216 139.619C443.231 140.013 443.246 140.385 443.309 140.747L443.584 142.557C443.65 142.916 443.746 143.283 443.847 143.671C443.9 143.872 443.952 144.074 444.001 144.277C444.028 144.37 444.058 144.486 444.088 144.603C444.132 144.773 444.176 144.944 444.231 145.111L444.348 145.438L448.484 143.966C448.621 143.918 448.771 143.925 448.902 143.987C449.033 144.049 449.134 144.162 449.182 144.298C450.04 146.719 451.371 148.911 453.138 150.815C453.344 151.035 453.331 151.381 453.111 151.587L449.906 154.567ZM466.959 151.315C459.537 151.315 453.499 145.276 453.499 137.854C453.499 130.436 459.537 124.4 466.959 124.4C474.381 124.4 480.419 130.435 480.419 137.854C480.419 145.276 474.381 151.315 466.959 151.315ZM466.959 125.493C460.14 125.493 454.592 131.038 454.592 137.854C454.592 144.674 460.14 150.222 466.959 150.222C473.779 150.222 479.326 144.674 479.326 137.854C479.326 131.039 473.779 125.493 466.959 125.493Z" fill="#A4BFEA"/>
<path d="M33.8709 278.564C33.8253 278.564 33.7797 278.558 33.7341 278.546L31.9741 278.093C31.4909 277.929 31.0518 277.767 30.6134 277.606L30.2127 277.459C29.7454 277.305 29.2983 277.089 28.8665 276.88L28.2313 276.574C27.7683 276.35 27.2887 276.118 26.8366 275.826C24.8495 274.718 22.9043 273.167 21.0835 271.233C20.9837 271.126 20.9309 270.985 20.9359 270.84C20.941 270.695 21.0032 270.557 21.1096 270.458L24.3279 267.464C22.7611 265.684 21.5429 263.678 20.6987 261.488L16.5565 262.962C16.273 263.063 15.9597 262.915 15.8585 262.631L15.5525 261.773C15.4867 261.568 15.4375 261.379 15.3883 261.189C15.3601 261.08 15.3318 260.972 15.3015 260.864C15.2487 260.645 15.1973 260.449 15.1459 260.254C15.0439 259.865 14.939 259.462 14.8631 259.049L14.5875 257.235C14.5137 256.814 14.4971 256.387 14.4811 255.974C14.4732 255.779 14.4659 255.583 14.4515 255.388L14.4066 254.468C14.3936 254.231 14.4074 254.002 14.4197 253.781C14.4247 253.694 14.4305 253.607 14.4334 253.519C14.4609 252.904 14.4884 252.297 14.5325 251.691L14.6215 251.074C14.7683 250.065 14.9195 249.021 15.2197 248.007C15.3029 247.723 15.5995 247.556 15.8809 247.633L20.1359 248.738C20.949 245.925 22.3878 243.303 24.3272 241.096L21.1096 238.102C21.0025 238.003 20.9396 237.865 20.9352 237.72C20.9302 237.574 20.9837 237.432 21.0835 237.327C22.9151 235.387 24.8603 233.836 26.8663 232.717C27.2909 232.441 27.7734 232.207 28.2393 231.982L28.8599 231.683C29.294 231.473 29.7425 231.256 30.2286 231.096L30.6026 230.958C31.0446 230.795 31.4873 230.633 31.9336 230.479L33.7341 230.013C33.8774 229.978 34.0286 229.999 34.1552 230.076C34.281 230.152 34.3707 230.277 34.4033 230.421L35.382 234.711C37.6875 234.254 40.0689 234.204 42.375 234.559L43.1635 230.227C43.1896 230.083 43.272 229.956 43.3928 229.873C43.5136 229.791 43.6612 229.759 43.8059 229.788C46.4463 230.306 48.8031 231.114 50.8119 232.193C53.0631 233.39 55.0727 234.851 56.7842 236.537C56.8877 236.639 56.9462 236.777 56.9477 236.922C56.9484 237.068 56.892 237.207 56.7907 237.31L53.6982 240.451C55.7317 242.569 57.2833 245.124 58.2201 247.898L62.4433 246.602C62.5822 246.559 62.7326 246.574 62.8614 246.643C62.9902 246.711 63.0856 246.829 63.1269 246.968C63.8127 249.267 64.1809 251.725 64.2214 254.275C64.1809 256.838 63.8127 259.295 63.1269 261.594C63.0849 261.733 62.9894 261.85 62.8614 261.919C62.7334 261.988 62.5822 262.002 62.4433 261.96L58.2209 260.664C57.4743 262.889 56.3437 264.946 54.8542 266.792L58.2093 269.65C58.32 269.744 58.388 269.878 58.3995 270.023C58.4104 270.168 58.3641 270.311 58.27 270.421C55.0213 274.218 50.6397 277.01 45.9305 278.282C45.6426 278.363 45.3416 278.19 45.2613 277.9L44.0931 273.656C41.2964 274.351 38.2785 274.424 35.3806 273.849L34.4018 278.139C34.3693 278.282 34.2796 278.407 34.1537 278.484C34.0683 278.536 33.97 278.564 33.8709 278.564ZM22.2597 270.88C23.8917 272.548 25.6184 273.896 27.3987 274.89C27.8248 275.163 28.2545 275.371 28.708 275.591L29.3417 275.897C29.7606 276.099 30.1555 276.29 30.5715 276.427L30.9903 276.58C31.4215 276.739 31.8526 276.897 32.2874 277.046L33.4629 277.348L34.4366 273.081C34.5031 272.787 34.7954 272.603 35.0898 272.669C38.1555 273.365 41.3883 273.285 44.3303 272.463C44.4714 272.421 44.6204 272.442 44.7463 272.513C44.8729 272.585 44.9655 272.703 45.0038 272.844L46.1692 277.079C50.2976 275.852 54.1366 273.404 57.0793 270.122L53.7358 267.273C53.5058 267.078 53.4783 266.733 53.6736 266.503C55.3591 264.523 56.5932 262.277 57.3434 259.823C57.3853 259.684 57.4816 259.567 57.6096 259.5C57.7369 259.431 57.8874 259.418 58.0255 259.46L62.2306 260.751C62.7905 258.702 63.0922 256.526 63.1283 254.274C63.0929 252.036 62.7905 249.86 62.2306 247.81L58.0255 249.1C57.7362 249.189 57.4309 249.026 57.3427 248.738C56.4297 245.764 54.771 243.032 52.5473 240.84C52.3325 240.628 52.3303 240.283 52.5415 240.068L55.6239 236.937C54.0751 235.485 52.2854 234.215 50.2969 233.157C48.5202 232.203 46.4513 231.47 44.1379 230.973L43.3523 235.286C43.327 235.429 43.2453 235.556 43.1252 235.638C43.0065 235.72 42.8597 235.751 42.7165 235.726C40.2143 235.269 37.5949 235.322 35.0883 235.892C34.7932 235.956 34.5017 235.774 34.4351 235.48L33.4614 231.213L32.2454 231.527C31.8475 231.665 31.4121 231.825 30.9773 231.985L30.5852 232.128C30.1519 232.271 29.7541 232.464 29.333 232.668L28.7131 232.966C28.2566 233.187 27.8255 233.395 27.4269 233.653C25.6286 234.658 23.8997 236.007 22.2583 237.681L25.4636 240.663C25.6843 240.869 25.6973 241.214 25.4918 241.436C23.3644 243.725 21.8272 246.528 21.0466 249.541C21.0104 249.681 20.9193 249.801 20.7949 249.875C20.6697 249.948 20.5193 249.968 20.3811 249.933L16.129 248.828C15.9366 249.616 15.8172 250.435 15.7015 251.233L15.6161 251.813C15.5771 252.368 15.5503 252.964 15.5235 253.565C15.5207 253.655 15.5141 253.751 15.5091 253.845C15.4982 254.034 15.4859 254.223 15.4961 254.412L15.5402 255.323C15.5547 255.516 15.5626 255.724 15.5706 255.932C15.5858 256.325 15.6002 256.698 15.6632 257.059L15.938 258.868C16.0039 259.225 16.1001 259.591 16.2006 259.978C16.2534 260.181 16.307 260.383 16.3562 260.587C16.3837 260.681 16.4133 260.798 16.4437 260.914C16.4878 261.084 16.5319 261.254 16.5855 261.423L16.7019 261.749L20.8383 260.277C20.975 260.229 21.1247 260.236 21.2564 260.299C21.3873 260.361 21.4879 260.473 21.5364 260.61C22.3943 263.03 23.7253 265.222 25.4933 267.125C25.6987 267.346 25.6857 267.692 25.4658 267.898L22.2597 270.88ZM39.3136 267.628C31.8917 267.628 25.8528 261.59 25.8528 254.168C25.8528 246.75 31.8917 240.714 39.3136 240.714C46.7356 240.714 52.7737 246.75 52.7737 254.168C52.7737 261.59 46.7356 267.628 39.3136 267.628ZM39.3136 241.807C32.4942 241.807 26.9459 247.352 26.9459 254.169C26.9459 260.988 32.4942 266.536 39.3136 266.536C46.133 266.536 51.6807 260.988 51.6807 254.169C51.6807 247.352 46.133 241.807 39.3136 241.807Z" fill="#A4BFEA"/>
<path d="M12.5435 182.579C12.7026 182.868 12.6013 183.23 12.312 183.389C12.2179 183.44 12.1239 183.469 12.0226 183.469C11.8056 183.469 11.6031 183.346 11.5018 183.158C10.8507 181.993 10.2359 180.792 9.67161 179.577C9.59927 179.44 9.59204 179.273 9.64991 179.121C9.70055 178.977 9.80906 178.854 9.95373 178.789C10.0984 178.716 10.2576 178.709 10.4095 178.767C10.5614 178.817 10.6771 178.926 10.7495 179.071C11.3065 180.264 11.9141 181.443 12.5435 182.579Z" fill="#A4BFEA"/>
<path d="M4.8969 160.834C4.59308 160.834 4.33266 160.602 4.30372 160.299C4.16628 158.968 4.07224 157.622 4.0216 156.291C4.01437 156.132 4.07224 155.98 4.18075 155.864C4.28925 155.749 4.43393 155.676 4.59308 155.669C4.93307 155.676 5.20073 155.929 5.21519 156.248C5.2586 157.557 5.35264 158.881 5.49008 160.176C5.50455 160.335 5.46115 160.494 5.35987 160.617C5.2586 160.74 5.11392 160.819 4.95477 160.834H4.8969Z" fill="#A4BFEA"/>
<path d="M4.16638 152.696C4.05787 152.58 4 152.428 4 152.269C4.0434 150.938 4.12298 149.585 4.25319 148.262C4.26765 148.095 4.34723 147.943 4.4702 147.842C4.60041 147.748 4.75232 147.705 4.91147 147.719C5.05615 147.734 5.20083 147.813 5.3021 147.936C5.40338 148.059 5.45401 148.211 5.43954 148.37C5.31657 149.672 5.22976 150.996 5.19359 152.305C5.18636 152.631 4.92594 152.884 4.60041 152.884H4.59318C4.4268 152.877 4.27489 152.812 4.16638 152.696Z" fill="#A4BFEA"/>
<path d="M9.19399 175.454C9.25186 175.598 9.24463 175.765 9.17952 175.909C9.12165 176.054 8.99867 176.17 8.854 176.228C8.78889 176.249 8.70932 176.264 8.63698 176.264C8.39103 176.264 8.16678 176.112 8.07997 175.888C7.5953 174.644 7.1468 173.363 6.7417 172.097C6.6983 171.945 6.71276 171.779 6.7851 171.641C6.85744 171.497 6.98042 171.396 7.13233 171.345C7.45062 171.251 7.78338 171.424 7.88465 171.735C8.27528 172.987 8.71655 174.238 9.19399 175.454Z" fill="#A4BFEA"/>
<path d="M9.73653 129.714C9.59185 129.649 9.47611 129.526 9.42547 129.381C9.3676 129.229 9.37483 129.07 9.43994 128.925C9.99695 127.71 10.6046 126.502 11.2412 125.323C11.4003 125.041 11.762 124.932 12.0514 125.084C12.3407 125.243 12.4492 125.605 12.2901 125.894C11.668 127.045 11.0748 128.231 10.525 129.425C10.431 129.634 10.214 129.772 9.98248 129.772C9.89567 129.772 9.80887 129.75 9.73653 129.714Z" fill="#A4BFEA"/>
<path d="M6.38716 168.661C6.33653 168.668 6.29312 168.676 6.24972 168.676C5.9676 168.676 5.73612 168.488 5.67101 168.22C5.35272 166.918 5.07783 165.594 4.85358 164.285C4.79571 163.959 5.01273 163.648 5.33825 163.597C5.4974 163.569 5.65654 163.605 5.78675 163.692C5.91696 163.786 6.00377 163.923 6.02547 164.082C6.24972 165.37 6.51737 166.665 6.82843 167.938C6.90077 168.256 6.70546 168.582 6.38716 168.661Z" fill="#A4BFEA"/>
<path d="M4.75958 144.276C4.9766 142.952 5.23702 141.621 5.54084 140.326C5.57701 140.174 5.67105 140.037 5.80849 139.957C5.94594 139.87 6.10508 139.848 6.25699 139.885C6.57529 139.957 6.77783 140.275 6.70549 140.601C6.40891 141.867 6.14849 143.169 5.9387 144.464C5.8953 144.753 5.64211 144.963 5.35276 144.963L5.25872 144.956C4.93319 144.905 4.70894 144.594 4.75958 144.276Z" fill="#A4BFEA"/>
<path d="M6.62592 136.897C6.55358 136.76 6.53912 136.601 6.58252 136.449C6.97315 135.168 7.40718 133.888 7.88462 132.636C8.00036 132.325 8.34759 132.173 8.65141 132.289C8.80332 132.347 8.91907 132.456 8.98417 132.6C9.04928 132.752 9.05651 132.911 8.99864 133.063C8.53567 134.286 8.10887 135.537 7.72547 136.796C7.6459 137.049 7.41442 137.215 7.154 137.215C7.09613 137.215 7.03826 137.208 6.98038 137.194C6.82847 137.143 6.69826 137.042 6.62592 136.897Z" fill="#A4BFEA"/>
<path d="M30.2084 105.639C30.0131 105.639 29.8322 105.545 29.7165 105.386C29.5284 105.119 29.6008 104.742 29.8684 104.554C30.9607 103.795 32.0964 103.064 33.2466 102.377C33.3768 102.29 33.5432 102.268 33.6951 102.305C33.8471 102.348 33.9773 102.442 34.0641 102.579C34.2304 102.862 34.1364 103.231 33.8543 103.397C32.7403 104.07 31.6262 104.786 30.5484 105.538C30.4471 105.603 30.3314 105.639 30.2084 105.639Z" fill="#A4BFEA"/>
<path d="M13.7872 122.769C13.6715 122.769 13.563 122.74 13.4689 122.682C13.3315 122.596 13.2374 122.458 13.2013 122.306C13.1651 122.147 13.194 121.988 13.2808 121.858C13.997 120.729 14.7566 119.608 15.545 118.53C15.7404 118.27 16.1165 118.212 16.3769 118.4C16.6446 118.595 16.7025 118.971 16.5072 119.232C15.7404 120.288 14.988 121.388 14.2863 122.494C14.1778 122.668 13.9898 122.769 13.7872 122.769Z" fill="#A4BFEA"/>
<path d="M21.9327 195.188C22.1642 195.427 22.157 195.803 21.9255 196.034C21.8098 196.143 21.6651 196.201 21.5059 196.201C21.3468 196.201 21.1949 196.135 21.0791 196.027C20.146 195.065 19.2345 194.067 18.3664 193.054C18.2652 192.931 18.2145 192.779 18.229 192.62C18.2435 192.461 18.3158 192.316 18.4388 192.215C18.5545 192.106 18.7064 192.056 18.8656 192.07C19.0247 192.085 19.1694 192.157 19.2779 192.28C20.1243 193.278 21.0213 194.255 21.9327 195.188Z" fill="#A4BFEA"/>
<path d="M16.8188 189.198C16.9129 189.328 16.9563 189.48 16.9273 189.639C16.9056 189.798 16.8261 189.936 16.6958 190.03C16.5946 190.11 16.4716 190.153 16.3414 190.153C16.1533 190.153 15.9725 190.059 15.8639 189.907C15.0682 188.844 14.2942 187.737 13.5708 186.608C13.484 186.471 13.4551 186.312 13.484 186.16C13.5202 186.001 13.6142 185.87 13.7444 185.784C13.8746 185.697 14.0338 185.668 14.1929 185.697C14.3521 185.733 14.4823 185.827 14.5691 185.957C15.2852 187.064 16.0376 188.149 16.8188 189.198Z" fill="#A4BFEA"/>
<path d="M18.4825 116.345C18.345 116.345 18.2076 116.295 18.0991 116.208C17.8459 115.991 17.8169 115.615 18.0267 115.369C18.8803 114.349 19.7846 113.336 20.7105 112.374C20.942 112.135 21.3181 112.128 21.5569 112.352C21.7956 112.584 21.8028 112.96 21.5713 113.199C20.6671 114.139 19.7846 115.13 18.9382 116.136C18.8297 116.266 18.6633 116.345 18.4825 116.345Z" fill="#A4BFEA"/>
<path d="M23.9946 110.602C23.821 110.602 23.6618 110.53 23.5533 110.407C23.4448 110.291 23.3869 110.139 23.3942 109.98C23.4014 109.821 23.4737 109.676 23.5895 109.568C24.5733 108.671 25.6005 107.788 26.6494 106.956C26.7724 106.855 26.9243 106.811 27.0834 106.826C27.2426 106.848 27.3873 106.927 27.4813 107.05C27.5826 107.173 27.626 107.332 27.6115 107.491C27.5898 107.651 27.5175 107.788 27.3873 107.889C26.3673 108.707 25.3618 109.568 24.3924 110.45C24.2839 110.544 24.1393 110.602 23.9946 110.602Z" fill="#A4BFEA"/>
<path d="M27.7996 200.447C28.06 200.649 28.1034 201.026 27.9009 201.286C27.7851 201.431 27.6187 201.517 27.4307 201.517C27.3005 201.517 27.1702 201.474 27.0617 201.387C26.0128 200.57 24.9784 199.702 23.9801 198.805C23.7414 198.588 23.7197 198.204 23.9367 197.966C24.1537 197.72 24.5371 197.698 24.7758 197.915C25.7524 198.79 26.7724 199.644 27.7996 200.447Z" fill="#A4BFEA"/>
<path d="M39.8219 207.941C39.8798 208.086 39.8725 208.252 39.8074 208.397C39.7061 208.607 39.4964 208.744 39.2649 208.744C39.1781 208.744 39.0913 208.722 39.0117 208.686C38.4185 208.411 37.8253 208.129 37.2394 207.833C37.0947 207.76 36.9934 207.637 36.9428 207.493C36.8922 207.341 36.8994 207.174 36.9717 207.037C37.0441 206.892 37.1671 206.784 37.319 206.733C37.4709 206.682 37.63 206.697 37.7747 206.769C38.3462 207.059 38.9249 207.334 39.5108 207.601C39.6555 207.674 39.7713 207.789 39.8219 207.941Z" fill="#A4BFEA"/>
<path d="M41.1752 99.0278C41.3054 99.3316 41.1607 99.6788 40.8641 99.8091C39.6633 100.33 38.4625 100.894 37.2978 101.487C37.2182 101.531 37.1242 101.552 37.0302 101.552C36.8059 101.552 36.5961 101.429 36.4949 101.227C36.4225 101.089 36.4081 100.923 36.4587 100.771C36.5093 100.619 36.6106 100.496 36.7553 100.424C37.9416 99.8163 39.1642 99.2448 40.3867 98.7167C40.6905 98.5865 41.045 98.7312 41.1752 99.0278Z" fill="#A4BFEA"/>
<path d="M34.5846 205.25C34.628 205.402 34.5991 205.561 34.5195 205.699C34.411 205.887 34.2157 205.995 34.0059 205.995C33.9046 205.995 33.7961 205.966 33.7021 205.916C32.5591 205.236 31.4162 204.512 30.3094 203.76C30.1792 203.673 30.0851 203.536 30.0562 203.384C30.0273 203.225 30.0634 203.066 30.1502 202.935C30.2443 202.805 30.3745 202.711 30.5336 202.682C30.6928 202.653 30.8447 202.689 30.9821 202.776C32.06 203.514 33.1812 204.223 34.3097 204.889C34.4472 204.968 34.5412 205.098 34.5846 205.25Z" fill="#A4BFEA"/>
<path d="M80.1152 96.1704C80.1948 96.3078 80.2165 96.4669 80.1803 96.6261C80.108 96.8865 79.8693 97.0674 79.6016 97.0674C79.551 97.0674 79.5003 97.0601 79.4425 97.0457C78.1838 96.7057 76.8889 96.4091 75.6085 96.1559C75.283 96.0908 75.0732 95.7725 75.1383 95.4542C75.1672 95.295 75.2613 95.1576 75.3915 95.0708C75.5289 94.984 75.6809 94.9551 75.84 94.984C77.1493 95.2444 78.4659 95.5482 79.7535 95.8955C79.9127 95.9316 80.0356 96.0329 80.1152 96.1704Z" fill="#A4BFEA"/>
<path d="M72.3822 95.0059C72.346 95.3024 72.0928 95.5267 71.7962 95.5267L71.7239 95.5195C70.4218 95.3531 69.098 95.2301 67.7886 95.1505C67.6295 95.1433 67.4848 95.071 67.3835 94.948C67.275 94.8322 67.2244 94.6803 67.2316 94.5212C67.2533 94.1957 67.5355 93.9497 67.8538 93.9569C69.1993 94.0437 70.5448 94.1667 71.8686 94.3403C72.1941 94.3837 72.4256 94.6803 72.3822 95.0059Z" fill="#A4BFEA"/>
<path d="M56.2651 94.5209C56.3953 94.615 56.4821 94.7669 56.5038 94.926C56.5255 95.0852 56.4821 95.2371 56.3881 95.3673C56.294 95.4975 56.1494 95.5771 55.9902 95.5988C54.6953 95.7796 53.3932 96.0039 52.1128 96.2643L51.9899 96.2787C51.7077 96.2787 51.4618 96.0834 51.4039 95.8013C51.375 95.6494 51.4039 95.4902 51.4907 95.3528C51.5775 95.2226 51.715 95.1286 51.8669 95.0996C53.1762 94.832 54.5073 94.6005 55.8311 94.4196C55.983 94.3907 56.1349 94.4269 56.2651 94.5209Z" fill="#A4BFEA"/>
<path d="M48.6982 96.4597C48.7416 96.6117 48.7199 96.778 48.6403 96.9155C48.5607 97.0529 48.4378 97.1542 48.2786 97.1976C47.0199 97.5448 45.7612 97.9427 44.5242 98.3767C44.4591 98.4057 44.394 98.4129 44.3289 98.4129C44.0757 98.4129 43.8515 98.2538 43.7647 98.015C43.714 97.8631 43.7213 97.704 43.7864 97.5593C43.8587 97.4146 43.9745 97.3061 44.1264 97.2555C45.3923 96.807 46.6799 96.4019 47.9603 96.0474C48.1122 96.004 48.2786 96.0257 48.4161 96.098C48.5535 96.1776 48.6548 96.3078 48.6982 96.4597Z" fill="#A4BFEA"/>
<path d="M64.4463 94.4413C64.4463 94.6005 64.3812 94.7524 64.2727 94.8609C64.157 94.9766 64.0123 95.0417 63.8532 95.0417C62.5366 95.049 61.2128 95.0996 59.9107 95.1864L59.8673 95.1936C59.5562 95.1936 59.2958 94.9477 59.2741 94.6366C59.2669 94.4775 59.3175 94.3256 59.4188 94.2026C59.5273 94.0796 59.672 94.0073 59.8311 94.0001C61.1549 93.906 62.5077 93.8554 63.8459 93.8481C64.1715 93.8481 64.4391 94.1158 64.4463 94.4413Z" fill="#A4BFEA"/>
<path d="M87.6819 99.2737C87.5878 99.498 87.3708 99.6426 87.1321 99.6426C87.0525 99.6426 86.9802 99.6209 86.9078 99.592C85.6998 99.0856 84.4555 98.6154 83.2185 98.1959C82.9075 98.0874 82.7411 97.7474 82.8496 97.4363C82.9509 97.1253 83.2909 96.9589 83.6019 97.0674C84.8606 97.4942 86.1266 97.9789 87.3636 98.4925C87.6674 98.6227 87.8121 98.9699 87.6819 99.2737Z" fill="#A4BFEA"/>
<path d="M93.0563 101.914C92.9478 102.109 92.7524 102.232 92.5282 102.232C92.4342 102.232 92.3329 102.203 92.2461 102.153C91.6818 101.849 91.1104 101.552 90.5389 101.263C90.3942 101.191 90.2857 101.068 90.2351 100.916C90.1844 100.764 90.1989 100.605 90.2712 100.46C90.4159 100.171 90.7776 100.048 91.0669 100.199C91.6601 100.489 92.2388 100.793 92.8175 101.111C93.1069 101.263 93.2154 101.625 93.0563 101.914Z" fill="#A4BFEA"/>
<path d="M467.486 178.294C466.58 178.294 465.663 178.264 464.764 178.203C464.564 178.189 464.414 178.017 464.427 177.818C464.44 177.618 464.636 177.465 464.812 177.481C466.234 177.576 467.687 177.595 469.109 177.537C469.315 177.547 469.477 177.685 469.486 177.884C469.494 178.083 469.338 178.252 469.14 178.261C468.591 178.283 468.039 178.294 467.486 178.294ZM473.442 177.851C473.266 177.851 473.112 177.722 473.085 177.543C473.055 177.346 473.191 177.162 473.389 177.132C474.802 176.919 476.218 176.626 477.597 176.26C477.793 176.208 477.988 176.324 478.039 176.517C478.089 176.71 477.975 176.908 477.782 176.959C476.379 177.332 474.935 177.631 473.496 177.847C473.478 177.85 473.46 177.851 473.442 177.851ZM460.485 177.679C460.464 177.679 460.442 177.677 460.421 177.673C458.992 177.419 457.559 177.083 456.16 176.671C455.967 176.616 455.858 176.415 455.915 176.223C455.97 176.031 456.173 175.923 456.363 175.978C457.737 176.381 459.144 176.712 460.547 176.961C460.743 176.995 460.875 177.184 460.839 177.38C460.809 177.556 460.656 177.679 460.485 177.679ZM481.814 175.63C481.669 175.63 481.532 175.543 481.476 175.4C481.405 175.213 481.497 175.003 481.683 174.932C483.009 174.419 484.326 173.825 485.6 173.164C485.775 173.071 485.995 173.14 486.087 173.318C486.18 173.496 486.11 173.714 485.933 173.806C484.637 174.479 483.295 175.086 481.944 175.607C481.902 175.622 481.857 175.63 481.814 175.63ZM452.174 175.235C452.128 175.235 452.08 175.225 452.034 175.206C450.695 174.647 449.369 174.004 448.095 173.298C447.92 173.201 447.857 172.981 447.954 172.806C448.05 172.631 448.27 172.57 448.446 172.665C449.697 173.358 450.998 173.988 452.315 174.54C452.499 174.616 452.586 174.828 452.509 175.013C452.45 175.152 452.316 175.235 452.174 175.235ZM489.5 171.639C489.384 171.639 489.269 171.582 489.199 171.477C489.088 171.312 489.133 171.087 489.3 170.976C490.485 170.185 491.642 169.32 492.739 168.401C492.892 168.271 493.12 168.292 493.248 168.446C493.377 168.599 493.356 168.827 493.203 168.955C492.086 169.891 490.908 170.774 489.7 171.578C489.639 171.619 489.57 171.639 489.5 171.639ZM444.595 171.037C444.522 171.037 444.45 171.016 444.387 170.97C443.2 170.133 442.046 169.219 440.955 168.254C440.805 168.121 440.791 167.893 440.923 167.743C441.058 167.592 441.285 167.579 441.434 167.711C442.505 168.66 443.639 169.557 444.803 170.379C444.967 170.494 445.005 170.72 444.89 170.883C444.819 170.984 444.708 171.037 444.595 171.037ZM496.14 166.079C496.05 166.079 495.96 166.046 495.889 165.978C495.745 165.841 495.741 165.611 495.879 165.467C496.866 164.439 497.809 163.342 498.682 162.209C498.804 162.051 499.031 162.022 499.189 162.143C499.348 162.265 499.377 162.491 499.256 162.65C498.367 163.804 497.405 164.921 496.4 165.968C496.33 166.042 496.235 166.079 496.14 166.079ZM438.105 165.3C438.006 165.3 437.909 165.261 437.837 165.182C436.858 164.107 435.928 162.966 435.072 161.791C434.955 161.629 434.991 161.404 435.152 161.286C435.313 161.169 435.54 161.203 435.657 161.365C436.497 162.519 437.411 163.639 438.372 164.696C438.507 164.844 438.496 165.073 438.349 165.207C438.279 165.269 438.192 165.3 438.105 165.3ZM501.425 159.215C501.361 159.215 501.296 159.199 501.237 159.162C501.066 159.058 501.012 158.836 501.116 158.665C501.859 157.444 502.543 156.171 503.148 154.878C503.233 154.696 503.449 154.619 503.629 154.703C503.81 154.788 503.888 155.004 503.804 155.185C503.187 156.501 502.491 157.799 501.734 159.042C501.666 159.154 501.547 159.215 501.425 159.215ZM433.006 158.301C432.881 158.301 432.759 158.236 432.692 158.119C431.968 156.856 431.307 155.54 430.728 154.209C430.648 154.026 430.731 153.813 430.914 153.733C431.098 153.655 431.311 153.737 431.39 153.921C431.96 155.227 432.609 156.518 433.32 157.759C433.419 157.933 433.359 158.154 433.186 158.253C433.129 158.285 433.068 158.301 433.006 158.301ZM505.096 151.369C505.057 151.369 505.018 151.363 504.979 151.349C504.79 151.285 504.689 151.079 504.753 150.89C505.213 149.541 505.602 148.148 505.911 146.751C505.954 146.556 506.145 146.433 506.342 146.476C506.538 146.519 506.66 146.712 506.618 146.907C506.303 148.33 505.907 149.749 505.439 151.123C505.386 151.274 505.246 151.369 505.096 151.369ZM429.548 150.362C429.394 150.362 429.251 150.262 429.203 150.107C428.772 148.72 428.414 147.291 428.137 145.862C428.1 145.666 428.228 145.476 428.424 145.438C428.617 145.4 428.808 145.528 428.848 145.725C429.119 147.128 429.47 148.53 429.893 149.893C429.952 150.084 429.846 150.286 429.655 150.345C429.62 150.357 429.584 150.362 429.548 150.362ZM506.968 142.911C506.954 142.911 506.942 142.91 506.928 142.909C506.73 142.887 506.586 142.709 506.608 142.51C506.761 141.094 506.838 139.65 506.838 138.218C506.838 138.019 507 137.856 507.2 137.856C507.4 137.856 507.562 138.019 507.562 138.218C507.562 139.676 507.483 141.146 507.327 142.587C507.306 142.773 507.149 142.911 506.968 142.911ZM427.905 141.859C427.719 141.859 427.561 141.716 427.545 141.527C427.456 140.433 427.41 139.32 427.41 138.22C427.41 137.863 427.415 137.507 427.425 137.153C427.43 136.954 427.582 136.816 427.796 136.8C427.995 136.805 428.153 136.972 428.148 137.171C428.139 137.519 428.134 137.869 428.134 138.22C428.134 139.301 428.178 140.393 428.266 141.468C428.282 141.667 428.134 141.842 427.935 141.858C427.925 141.858 427.914 141.859 427.905 141.859ZM507.138 136.356C506.947 136.356 506.788 136.207 506.777 136.014C506.699 134.59 506.541 133.152 506.308 131.742C506.275 131.546 506.409 131.359 506.605 131.326C506.806 131.292 506.989 131.427 507.021 131.624C507.259 133.06 507.42 134.524 507.499 135.974C507.51 136.174 507.357 136.345 507.157 136.355C507.15 136.356 507.144 136.356 507.138 136.356ZM428.134 133.2C428.118 133.2 428.102 133.199 428.085 133.197C427.888 133.17 427.749 132.988 427.775 132.79C427.972 131.345 428.248 129.898 428.599 128.491C428.647 128.298 428.842 128.179 429.038 128.228C429.232 128.276 429.35 128.473 429.301 128.667C428.956 130.047 428.683 131.467 428.492 132.886C428.468 133.068 428.312 133.2 428.134 133.2ZM505.722 127.812C505.564 127.812 505.419 127.708 505.374 127.548C504.988 126.173 504.521 124.804 503.986 123.481C503.911 123.296 504.001 123.086 504.186 123.01C504.369 122.935 504.581 123.025 504.657 123.21C505.201 124.558 505.676 125.952 506.07 127.352C506.124 127.545 506.012 127.744 505.819 127.798C505.787 127.808 505.755 127.812 505.722 127.812ZM430.229 124.796C430.187 124.796 430.145 124.788 430.103 124.773C429.916 124.704 429.82 124.496 429.89 124.309C430.394 122.944 430.982 121.593 431.633 120.293C431.722 120.113 431.942 120.043 432.118 120.131C432.297 120.221 432.369 120.438 432.28 120.617C431.64 121.893 431.064 123.22 430.568 124.56C430.515 124.705 430.377 124.796 430.229 124.796ZM502.478 119.784C502.349 119.784 502.224 119.715 502.159 119.594C501.484 118.339 500.73 117.105 499.919 115.928C499.806 115.763 499.847 115.538 500.012 115.425C500.174 115.312 500.4 115.353 500.515 115.517C501.341 116.717 502.108 117.973 502.796 119.252C502.891 119.427 502.825 119.647 502.649 119.741C502.596 119.77 502.536 119.784 502.478 119.784ZM434.109 117.05C434.041 117.05 433.973 117.031 433.913 116.992C433.746 116.883 433.698 116.66 433.806 116.492C434.596 115.271 435.461 114.079 436.379 112.951C436.506 112.795 436.734 112.773 436.888 112.898C437.043 113.024 437.067 113.252 436.94 113.407C436.039 114.516 435.189 115.685 434.414 116.885C434.344 116.991 434.227 117.05 434.109 117.05ZM497.567 112.651C497.465 112.651 497.365 112.609 497.293 112.526C496.36 111.444 495.357 110.402 494.314 109.429C494.167 109.293 494.159 109.065 494.295 108.918C494.432 108.772 494.661 108.764 494.807 108.9C495.87 109.89 496.891 110.951 497.841 112.053C497.972 112.204 497.955 112.433 497.803 112.563C497.736 112.622 497.652 112.651 497.567 112.651ZM439.574 110.329C439.481 110.329 439.387 110.292 439.317 110.222C439.177 110.079 439.178 109.85 439.32 109.71C440.354 108.689 441.455 107.712 442.595 106.808C442.75 106.684 442.979 106.71 443.103 106.866C443.227 107.023 443.201 107.251 443.044 107.375C441.926 108.263 440.843 109.223 439.829 110.225C439.758 110.294 439.666 110.329 439.574 110.329ZM491.232 106.744C491.157 106.744 491.081 106.721 491.016 106.672C489.87 105.816 488.666 105.015 487.437 104.29C487.265 104.189 487.208 103.967 487.309 103.795C487.41 103.622 487.632 103.566 487.804 103.667C489.055 104.405 490.282 105.22 491.448 106.092C491.609 106.211 491.641 106.438 491.522 106.598C491.45 106.694 491.342 106.744 491.232 106.744ZM446.359 104.947C446.239 104.947 446.122 104.887 446.053 104.777C445.947 104.609 445.998 104.385 446.166 104.279C447.397 103.504 448.684 102.789 449.991 102.154C450.171 102.068 450.388 102.142 450.475 102.321C450.561 102.502 450.487 102.718 450.308 102.805C449.025 103.428 447.761 104.13 446.552 104.891C446.492 104.929 446.426 104.947 446.359 104.947ZM483.768 102.347C483.718 102.347 483.667 102.337 483.62 102.316C482.316 101.729 480.966 101.209 479.608 100.769C479.418 100.708 479.315 100.504 479.376 100.314C479.438 100.124 479.639 100.02 479.832 100.081C481.214 100.529 482.59 101.058 483.916 101.656C484.099 101.738 484.18 101.952 484.098 102.134C484.038 102.268 483.906 102.347 483.768 102.347ZM454.148 101.162C454 101.162 453.86 101.07 453.807 100.922C453.74 100.734 453.838 100.527 454.027 100.459C455.396 99.9719 456.808 99.5545 458.224 99.2195C458.42 99.1711 458.613 99.294 458.66 99.4879C458.705 99.6825 458.585 99.8771 458.391 99.9234C457 100.253 455.614 100.663 454.27 101.142C454.229 101.155 454.189 101.162 454.148 101.162ZM475.524 99.6811C475.5 99.6811 475.476 99.6789 475.45 99.6738C474.056 99.3866 472.626 99.174 471.2 99.0409C471.002 99.0221 470.855 98.8455 470.874 98.6473C470.893 98.4484 471.062 98.3052 471.269 98.3204C472.72 98.4564 474.177 98.6734 475.596 98.9656C475.792 99.0061 475.917 99.1971 475.877 99.3924C475.842 99.5631 475.691 99.6811 475.524 99.6811ZM462.576 99.1675C462.396 99.1675 462.24 99.0329 462.217 98.8499C462.193 98.6517 462.334 98.4716 462.532 98.447C463.973 98.269 465.442 98.1684 466.898 98.1482C466.899 98.1482 466.901 98.1482 466.903 98.1482C467.1 98.1482 467.262 98.3066 467.265 98.5048C467.267 98.7045 467.108 98.8687 466.908 98.8716C465.479 98.8918 464.036 98.9902 462.621 99.1646C462.605 99.1667 462.591 99.1675 462.576 99.1675Z" fill="#A4BFEA"/>
<path d="M457.311 125.716C454.035 133.162 445.569 138.162 436.818 138.841C428.067 139.528 419.282 136.269 412.653 131.001C408.092 127.364 404.29 122.727 398.807 120.384C390.108 116.668 378.547 119.382 371.4 113.514C366.563 109.538 365.494 102.85 361.08 98.4875C357.39 94.8431 351.881 93.2972 347.415 90.4658C343.208 87.7922 340.053 83.8635 338.294 79.4624C338.432 84.9211 340.475 89.9529 343.82 94.0546C341.32 91.5697 339.38 88.6277 337.975 85.5041C334.311 77.3956 333.656 68.2932 334.259 59.6241C334.448 56.9736 334.785 54.3391 335.242 51.7124C335.682 50.04 336.182 48.3762 336.802 46.7507C337.087 45.9774 337.406 45.2128 337.751 44.4634C338.613 42.5782 339.707 40.7401 341.018 39.0604C341.036 39.0285 341.053 39.0054 341.078 38.9815C342.777 37.0175 344.716 35.2351 346.872 33.6892C352.932 29.2961 360.64 26.6694 369.037 26.6694C384.616 26.6694 397.841 35.7169 402.522 48.2583C402.54 48.2742 402.548 48.298 402.548 48.3132C405.005 53.6374 406.54 59.3876 410.307 64.0021C411.031 64.8933 411.833 65.7296 412.678 66.526C414.436 67.7565 416.342 68.8452 418.212 69.8464C423.601 72.7493 429.481 75.8729 431.808 81.1811C434.075 86.3874 432.481 92.8711 436.222 97.3113C439.532 101.247 445.662 101.91 450.301 104.505C457.794 108.686 460.596 118.262 457.311 125.716Z" fill="#19203F"/>
<path d="M388.981 61.8521V78.3772C388.981 79.1657 388.949 79.939 388.878 80.7115C388.681 82.9041 388.216 85.0258 387.506 87.0455C384.217 96.4952 375.674 103.594 365.223 104.312C361.193 104.588 357.336 103.918 353.857 102.498C344.534 98.6878 337.916 89.4986 337.916 78.8423V54.0981C358.889 61.8673 375.721 44.5305 375.721 44.5305C374.538 57.6557 386.315 64.5735 386.315 64.5735C386.922 63.4218 387.86 62.4988 388.981 61.8521Z" fill="#FFA96E"/>
<path d="M401.585 76.1839C399.771 81.8314 394.794 86.3431 388.997 87.5975V111.75C368.568 126.334 353.857 111.695 353.857 111.695V102.498C357.336 103.918 361.193 104.588 365.224 104.312C375.675 103.595 384.217 96.4952 387.506 87.0456C388.216 85.0266 388.682 82.9042 388.878 80.7116C388.949 79.9383 388.981 79.1657 388.981 78.3772V61.8521C390.598 60.8979 392.586 60.5348 394.44 60.882C395.773 61.1345 397.003 61.7103 398.084 62.5227C399.543 63.6193 400.711 65.1334 401.42 66.8297C402.642 69.771 402.555 73.1471 401.585 76.1839Z" fill="#FFA96E"/>
<path d="M356.294 82.4339H348.619C348.495 82.4339 348.378 82.376 348.303 82.2762C348.229 82.1771 348.205 82.0483 348.24 81.9297L352.955 65.6484C353.016 65.4393 353.236 65.3178 353.443 65.3793C353.653 65.44 353.773 65.6592 353.713 65.8683L349.143 81.6454H356.294C356.512 81.6454 356.688 81.8219 356.688 82.0396C356.688 82.2574 356.512 82.4339 356.294 82.4339Z" fill="#19203F"/>
<path d="M391.598 82.6076C391.414 82.6076 391.249 82.4773 391.212 82.2893C391.169 82.0759 391.309 81.8683 391.522 81.8263C393.376 81.4624 394.823 79.6315 394.747 77.7457C394.673 75.8591 393.086 74.1482 391.209 73.9327C391.015 73.9102 390.866 73.7489 390.861 73.5536C390.824 72.3586 390.895 71.1541 391.07 69.9736C391.216 68.9926 391.485 67.7484 392.28 66.8297C393.28 65.6737 395.035 65.252 396.45 65.8213C397.867 66.3928 398.837 67.9148 398.755 69.4397C398.743 69.6574 398.548 69.8325 398.34 69.813C398.123 69.8014 397.956 69.6155 397.968 69.3985C398.032 68.1991 397.269 67.0026 396.155 66.5534C395.04 66.1049 393.662 66.4369 392.876 67.3462C392.218 68.1065 391.988 69.1598 391.85 70.09C391.698 71.1172 391.628 72.1625 391.643 73.2042C393.737 73.6194 395.452 75.5726 395.537 77.716C395.626 79.9751 393.894 82.167 391.676 82.6025C391.649 82.6054 391.623 82.6076 391.598 82.6076Z" fill="#19203F"/>
<path d="M356.02 85.4932H369.833C369.833 85.4932 370.299 92.7842 362.926 92.7842C355.554 92.7835 356.02 85.4932 356.02 85.4932Z" fill="white"/>
<path d="M346.166 71.2402C348.224 71.2402 349.893 69.5712 349.893 67.5125C349.893 65.4538 348.224 63.7849 346.166 63.7849C344.107 63.7849 342.438 65.4538 342.438 67.5125C342.438 69.5712 344.107 71.2402 346.166 71.2402Z" fill="#19203F"/>
<path d="M348.303 61.7565H344.028C343.199 61.7565 342.52 61.078 342.52 60.2483V59.9756C342.52 59.1458 343.199 58.4673 344.028 58.4673H348.303C349.133 58.4673 349.811 59.1458 349.811 59.9756V60.2483C349.811 61.078 349.132 61.7565 348.303 61.7565Z" fill="#19203F"/>
<path d="M366.654 71.2402C368.713 71.2402 370.382 69.5712 370.382 67.5125C370.382 65.4538 368.713 63.7849 366.654 63.7849C364.596 63.7849 362.927 65.4538 362.927 67.5125C362.927 69.5712 364.596 71.2402 366.654 71.2402Z" fill="#19203F"/>
<path d="M368.791 61.7565H364.517C363.687 61.7565 363.008 61.078 363.008 60.2483V59.9756C363.008 59.1458 363.687 58.4673 364.517 58.4673H368.791C369.621 58.4673 370.299 59.1458 370.299 59.9756V60.2483C370.299 61.078 369.621 61.7565 368.791 61.7565Z" fill="#19203F"/>
<path d="M378.111 84.9449C381.684 84.9449 384.58 82.0488 384.58 78.4763C384.58 74.9039 381.684 72.0078 378.111 72.0078C374.539 72.0078 371.643 74.9039 371.643 78.4763C371.643 82.0488 374.539 84.9449 378.111 84.9449Z" fill="#19203F"/>
<path d="M353.857 111.694C353.857 111.694 370.334 113.755 378.111 99.8938C378.111 99.8938 367.805 108.517 353.857 102.497V111.694Z" fill="#19203F"/>
<path d="M353.713 65.8684L356.294 81.6448H349.143L353.713 65.8684Z" fill="#19203F"/>
<path d="M250.241 40.7066C250.241 51.6472 244.945 61.3413 236.771 67.3787L231.579 86.6563H202.63L197.446 67.3787C189.272 61.3413 183.976 51.6464 183.976 40.7066C183.976 22.4085 198.811 7.57397 217.109 7.57397C235.406 7.57397 250.241 22.4085 250.241 40.7066Z" fill="#FFA233"/>
<path d="M237.863 86.6167H202.259V122.22H237.863V86.6167Z" fill="#9499AA"/>
<path d="M197.782 64.4505C197.701 64.4505 197.62 64.4237 197.552 64.3694C190.415 58.6887 186.073 49.4944 186.219 40.3746C186.365 31.2541 191 22.2038 198.313 16.7545C198.476 16.6316 198.709 16.6648 198.833 16.8305C198.955 16.9947 198.921 17.2269 198.757 17.3492C191.623 22.6639 187.104 31.4914 186.961 40.3862C186.819 49.281 191.053 58.2481 198.014 63.7893C198.174 63.9166 198.2 64.1503 198.073 64.3101C197.999 64.4027 197.892 64.4505 197.782 64.4505Z" fill="#19203F"/>
<path d="M236.881 62.8843C236.761 62.8843 236.643 62.8249 236.571 62.7164C236.459 62.545 236.507 62.315 236.677 62.2028C241.447 59.0778 244.834 54.0821 245.971 48.4961C246.013 48.295 246.211 48.1669 246.409 48.2067C246.609 48.2472 246.74 48.4433 246.699 48.6436C245.522 54.4221 242.018 59.5907 237.085 62.8235C237.022 62.8647 236.951 62.8843 236.881 62.8843Z" fill="#19203F"/>
<path d="M209.753 87.2183C209.569 87.2183 209.409 87.0809 209.385 86.8928L204.628 48.4396C204.603 48.2363 204.748 48.0511 204.951 48.0258C205.151 47.9947 205.339 48.1445 205.365 48.3485L210.122 86.8016C210.147 87.0049 210.002 87.1901 209.799 87.2154C209.784 87.2176 209.768 87.2183 209.753 87.2183Z" fill="#19203F"/>
<path d="M227.712 86.9899C227.694 86.9899 227.677 86.9884 227.659 86.9855C227.456 86.9559 227.315 86.7685 227.344 86.5652L233.042 47.1861C233.072 46.9828 233.26 46.8381 233.463 46.8721C233.665 46.9018 233.806 47.0892 233.777 47.2924L228.079 86.6716C228.052 86.8575 227.893 86.9899 227.712 86.9899Z" fill="#19203F"/>
<path d="M207.909 60.7532C206.793 60.7532 205.679 60.461 204.738 59.8678C202.679 58.5701 201.562 55.9015 202.082 53.5237C202.126 53.324 202.327 53.1989 202.524 53.2408C202.724 53.285 202.851 53.4817 202.807 53.6821C202.352 55.7655 203.33 58.1027 205.134 59.2399C206.939 60.3778 209.47 60.2519 211.152 58.9419C211.289 58.8355 211.42 58.7212 211.544 58.6004C211.507 58.5708 211.47 58.5411 211.434 58.5107C209.923 57.2499 209.105 55.173 209.35 53.2199C209.47 52.2737 209.965 51.1785 210.992 50.9419C212.195 50.667 213.242 51.7738 213.625 52.9522C214.222 54.7889 213.81 56.9099 212.655 58.4543C213.895 59.1502 215.435 59.334 216.789 58.905C217.499 58.6815 218.129 58.3147 218.681 57.8734C218.293 57.5949 217.928 57.2781 217.593 56.9243C216.132 55.3806 215.192 53.1461 214.944 50.633C214.709 48.222 215.088 45.8579 215.49 43.8628C215.695 42.8465 215.944 41.778 216.535 40.8709C217.226 39.8126 218.315 39.1825 219.374 39.2252C221.44 39.3091 222.458 41.6124 222.8 42.5991C224.249 46.7795 223.812 51.5742 221.631 55.4233C221.213 56.1633 220.641 57.0083 219.904 57.7627C221.158 58.4275 222.572 58.6728 223.852 58.4001C224.504 58.2604 225.141 57.987 225.728 57.6022C225.696 57.5588 225.665 57.5146 225.634 57.4705C224.01 55.1303 224.046 51.7586 225.72 49.4532C226.426 48.4795 227.311 48.0115 228.142 48.1641C229.503 48.4151 229.958 50.0854 229.803 51.5322C229.61 53.345 229.036 54.9791 228.144 56.2581C227.756 56.8144 227.3 57.3092 226.799 57.7288C228.343 59.3513 230.808 60.0827 232.976 59.4808C235.426 58.8015 237.326 56.4664 237.492 53.9281C237.506 53.7241 237.671 53.5693 237.887 53.5823C238.091 53.596 238.246 53.7725 238.233 53.9765C238.046 56.8187 235.919 59.4345 233.174 60.1955C230.721 60.8755 227.928 60.0327 226.202 58.1758C225.52 58.6344 224.773 58.9607 224.007 59.1249C222.48 59.4519 220.795 59.13 219.336 58.2944C218.674 58.8587 217.902 59.3325 217.012 59.6132C215.417 60.1152 213.602 59.8794 212.166 59.028C211.991 59.2066 211.805 59.3737 211.608 59.5271C210.564 60.3402 209.235 60.7532 207.909 60.7532ZM211.365 51.6429C211.297 51.6429 211.228 51.6508 211.159 51.6667C210.502 51.8172 210.17 52.6484 210.086 53.3146C209.871 55.0233 210.587 56.8397 211.908 57.9429C211.95 57.9783 211.994 58.0123 212.036 58.0463C213.074 56.69 213.447 54.8092 212.919 53.183C212.698 52.5044 212.089 51.6429 211.365 51.6429ZM219.266 39.9659C218.343 39.9659 217.574 40.6365 217.156 41.2774C216.636 42.0739 216.407 43.0649 216.216 44.0104C215.825 45.952 215.456 48.248 215.682 50.5614C215.913 52.9117 216.782 54.9907 218.13 56.4158C218.472 56.7768 218.848 57.0958 219.249 57.3692C219.994 56.6386 220.569 55.7937 220.985 55.0587C223.062 51.3919 223.478 46.8251 222.097 42.8429C221.87 42.1853 220.997 40.0347 219.342 39.9674C219.317 39.9659 219.291 39.9659 219.266 39.9659ZM227.829 48.8781C227.114 48.8781 226.502 49.6398 226.32 49.8894C224.825 51.9474 224.793 54.9582 226.244 57.0473C226.27 57.0857 226.296 57.1225 226.323 57.1602C226.775 56.7826 227.186 56.3362 227.536 55.8335C228.356 54.6572 228.885 53.1425 229.066 51.4534C229.165 50.5209 228.967 49.0705 228.007 48.894C227.947 48.8832 227.887 48.8781 227.829 48.8781Z" fill="#19203F"/>
<path d="M208.518 91.4257C208.322 91.4257 208.158 91.2723 208.148 91.0748C208.137 90.8701 208.293 90.6958 208.499 90.6842L232.353 89.4117C232.555 89.4067 232.733 89.5579 232.743 89.7626C232.754 89.9673 232.598 90.1417 232.392 90.1532L208.538 91.4257C208.531 91.4257 208.525 91.4257 208.518 91.4257Z" fill="#19203F"/>
<path d="M232.247 102.259C232.229 102.259 232.212 102.258 232.194 102.256L212.517 99.4365C212.314 99.4068 212.173 99.2195 212.202 99.0169C212.232 98.8137 212.42 98.6733 212.622 98.7023L232.299 101.521C232.502 101.551 232.643 101.738 232.614 101.941C232.586 102.125 232.428 102.259 232.247 102.259Z" fill="#19203F"/>
<path d="M219.437 110.012C219.422 110.012 219.406 110.011 219.39 110.009L212.317 109.134C212.115 109.109 211.969 108.925 211.995 108.721C212.019 108.517 212.198 108.37 212.408 108.398L219.482 109.273C219.684 109.298 219.83 109.482 219.804 109.686C219.78 109.874 219.621 110.012 219.437 110.012Z" fill="#19203F"/>
<path d="M241.985 71.4955V132.524L209.646 142.352C209.646 142.352 202.258 136.789 202.258 124.077H207.258C208.682 124.077 209.973 123.491 210.914 122.556C211.856 121.621 212.435 120.324 212.435 118.899C213.258 107.01 232.224 107.966 232.224 107.966V81.2562C232.225 70.9472 241.985 71.4955 241.985 71.4955Z" fill="#FFA96E"/>
<path d="M212.435 118.899C212.435 120.323 211.857 121.621 210.915 122.556C209.973 123.49 208.683 124.076 207.258 124.076H195.064C192.216 124.076 189.887 121.747 189.887 118.899C189.887 117.483 190.465 116.184 191.407 115.25C192.349 114.308 193.64 113.729 195.064 113.729H207.258C210.106 113.729 212.435 116.058 212.435 118.899Z" fill="#FFA96E"/>
<path d="M212.435 108.56C212.435 109.976 211.857 111.275 210.915 112.209C209.973 113.151 208.683 113.73 207.258 113.73H195.064C192.216 113.73 189.887 111.4 189.887 108.56C189.887 107.135 190.465 105.845 191.407 104.903C192.349 103.968 193.64 103.39 195.064 103.39H207.258C210.106 103.39 212.435 105.711 212.435 108.56Z" fill="#FFA96E"/>
<path d="M212.435 98.2125C212.435 99.6369 211.857 100.927 210.915 101.869C209.973 102.811 208.683 103.39 207.258 103.39H195.064C192.216 103.39 189.887 101.061 189.887 98.2125C189.887 96.7882 190.465 95.4977 191.407 94.563C192.349 93.6284 193.64 93.0425 195.064 93.0425H207.258C210.106 93.0432 212.435 95.3718 212.435 98.2125Z" fill="#FFA96E"/>
<path d="M209.29 87.8731C209.29 89.2974 208.711 90.588 207.77 91.5226C206.828 92.4572 205.537 93.0432 204.113 93.0432H195.064C192.216 93.0432 189.887 90.7138 189.887 87.8731C189.887 86.4487 190.465 85.1582 191.407 84.2164C192.349 83.2745 193.64 82.6958 195.064 82.6958H204.113C206.961 82.6958 209.29 85.0251 209.29 87.8731Z" fill="#FFA96E"/>
<path d="M205.551 93.3057H194.015C193.81 93.3057 193.644 93.14 193.644 92.9346C193.644 92.7291 193.809 92.5635 194.015 92.5635H205.551C205.755 92.5635 205.922 92.7291 205.922 92.9346C205.922 93.14 205.756 93.3057 205.551 93.3057Z" fill="#19203F"/>
<path d="M208.413 103.761H193.567C193.362 103.761 193.196 103.595 193.196 103.39C193.196 103.184 193.361 103.019 193.567 103.019H208.413C208.618 103.019 208.784 103.184 208.784 103.39C208.784 103.595 208.618 103.761 208.413 103.761Z" fill="#19203F"/>
<path d="M208.413 114.236H194.015C193.81 114.236 193.644 114.07 193.644 113.865C193.644 113.659 193.81 113.493 194.015 113.493H208.413C208.617 113.493 208.784 113.659 208.784 113.865C208.784 114.07 208.617 114.236 208.413 114.236Z" fill="#19203F"/>
<path d="M207.259 124.447H202.259C202.054 124.447 201.888 124.281 201.888 124.076C201.888 123.87 202.053 123.705 202.259 123.705H207.258C207.453 123.704 212.065 123.628 212.065 118.898C212.053 118.83 211.719 116.042 214.157 113.228C217.298 109.601 223.376 107.706 232.221 107.595C232.222 107.595 232.224 107.595 232.225 107.595C232.428 107.595 232.593 107.757 232.596 107.961C232.599 108.165 232.435 108.334 232.23 108.336C221.489 108.471 216.778 111.335 214.718 113.713C212.495 116.278 212.801 118.825 212.804 118.85C212.807 124.374 207.314 124.447 207.259 124.447Z" fill="#19203F"/>
<path d="M303.777 298.184L317.565 225.83C295.266 258.067 246.039 252.451 231.581 216.018L202.909 143.767L208.28 142.134L242.671 131.682L249.62 129.569L272.644 175.83L298.011 134.601C302.484 127.337 308.707 121.523 315.955 117.572C322.92 113.778 330.824 111.696 339.003 111.696H353.856C353.856 111.696 368.567 126.336 388.996 111.751V111.696H395.338C405.206 111.696 414.537 114.701 422.314 119.962C431.101 125.917 437.908 134.752 441.252 145.392L479.815 298.185H303.777V298.184Z" fill="#4B72BF"/>
<path d="M323.235 196.179C318.508 195.03 315.223 192.419 313.47 188.418C310.237 181.034 312.607 170.017 315.85 160.723H314.954C311.716 170.067 309.416 181.123 312.748 188.734C314.558 192.869 317.9 195.599 322.685 196.854L306.086 283.957C306.046 284.171 306.185 284.377 306.399 284.419C306.425 284.423 306.449 284.426 306.474 284.426C306.659 284.426 306.824 284.294 306.861 284.105L323.529 196.637C323.569 196.431 323.439 196.229 323.235 196.179Z" fill="#19203F"/>
<path d="M435.962 298.579C435.788 298.579 435.628 298.463 435.581 298.287L399 162.34C398.943 162.13 399.068 161.914 399.277 161.857C399.486 161.801 399.704 161.925 399.761 162.135L436.342 298.081C436.4 298.292 436.274 298.508 436.065 298.565C436.031 298.574 435.996 298.579 435.962 298.579Z" fill="#19203F"/>
<path d="M278.927 191.431C278.776 191.431 278.631 191.343 278.567 191.195L273.011 178.624C272.923 178.424 273.013 178.192 273.213 178.104C273.41 178.014 273.644 178.106 273.733 178.305L279.288 190.876C279.377 191.076 279.287 191.308 279.087 191.397C279.035 191.42 278.98 191.431 278.927 191.431Z" fill="#19203F"/>
<path d="M423.801 277.111C422.409 277.111 422.658 279.268 424.044 279.268C425.437 279.268 425.187 277.111 423.801 277.111Z" fill="#19203F"/>
<path d="M428.829 286.361C427.436 286.361 427.686 288.518 429.071 288.518C430.465 288.518 430.215 286.361 428.829 286.361Z" fill="#19203F"/>
<path d="M418.976 291.59C417.583 291.59 417.833 293.747 419.218 293.747C420.61 293.747 420.361 291.59 418.976 291.59Z" fill="#19203F"/>
<path d="M397.056 288.774C395.664 288.774 395.913 290.931 397.298 290.931C398.691 290.931 398.441 288.774 397.056 288.774Z" fill="#19203F"/>
<path d="M417.769 281.535C416.376 281.535 416.626 283.692 418.011 283.692C419.404 283.692 419.154 281.535 417.769 281.535Z" fill="#19203F"/>
<path d="M414.149 269.469C412.757 269.469 413.006 271.626 414.392 271.626C415.784 271.626 415.535 269.469 414.149 269.469Z" fill="#19203F"/>
<path d="M421.791 262.632C420.398 262.632 420.648 264.789 422.033 264.789C423.426 264.789 423.176 262.632 421.791 262.632Z" fill="#19203F"/>
<path d="M410.73 278.921C409.338 278.921 409.587 281.078 410.973 281.078C412.365 281.078 412.116 278.921 410.73 278.921Z" fill="#19203F"/>
<path d="M211.344 148.912C209.951 148.912 210.201 151.069 211.586 151.069C212.979 151.069 212.729 148.912 211.344 148.912Z" fill="#19203F"/>
<path d="M214.36 158.564C212.967 158.564 213.217 160.721 214.602 160.721C215.995 160.721 215.745 158.564 214.36 158.564Z" fill="#19203F"/>
<path d="M216.471 153.436C215.078 153.436 215.328 155.593 216.713 155.593C218.106 155.593 217.857 153.436 216.471 153.436Z" fill="#19203F"/>
<path d="M218.884 161.581C217.492 161.581 217.741 163.738 219.127 163.738C220.52 163.738 220.27 161.581 218.884 161.581Z" fill="#19203F"/>
<path d="M332.906 116.636C331.514 116.636 331.763 118.793 333.149 118.793C334.541 118.793 334.291 116.636 332.906 116.636Z" fill="#19203F"/>
<path d="M349.195 116.334C347.802 116.334 348.052 118.491 349.437 118.491C350.83 118.491 350.581 116.334 349.195 116.334Z" fill="#19203F"/>
<path d="M340.749 118.747C339.356 118.747 339.606 120.904 340.991 120.904C342.384 120.904 342.134 118.747 340.749 118.747Z" fill="#19203F"/>
<path d="M442.403 178.172C441.011 178.172 441.26 180.329 442.646 180.329C444.038 180.328 443.789 178.172 442.403 178.172Z" fill="#19203F"/>
<path d="M446.325 186.617C444.932 186.617 445.182 188.774 446.567 188.774C447.959 188.774 447.71 186.617 446.325 186.617Z" fill="#19203F"/>
<path d="M439.688 182.092C438.296 182.092 438.545 184.249 439.931 184.249C441.323 184.249 441.074 182.092 439.688 182.092Z" fill="#19203F"/>
<path d="M259.815 264.303H221.078L228.903 298.181H42.9893L61.9355 143.613C65.3116 127.467 79.5566 115.896 96.0498 115.896H146.453C170.068 115.896 190.561 132.192 195.878 155.208L209.95 216.125H259.816V264.303H259.815Z" fill="#FF5F5F"/>
<path d="M221.075 264.7H157.628C146.866 264.7 136.638 259.52 130.269 250.843L69.2767 167.734C69.1479 167.558 69.1855 167.311 69.3613 167.183C69.5356 167.054 69.7823 167.09 69.9125 167.267L130.905 250.377C137.125 258.852 147.115 263.912 157.628 263.912H221.075C221.293 263.912 221.469 264.088 221.469 264.306C221.47 264.525 221.293 264.7 221.075 264.7Z" fill="#19203F"/>
<path d="M209.945 216.523H174.846C174.721 216.523 174.603 216.463 174.529 216.364L110.04 129.492C109.91 129.317 109.947 129.069 110.122 128.941C110.298 128.812 110.545 128.846 110.673 129.022L175.044 215.735H209.945C210.162 215.735 210.339 215.911 210.339 216.129C210.34 216.346 210.163 216.523 209.945 216.523Z" fill="#19203F"/>
<path d="M209.473 296.782C209.298 296.782 209.138 296.665 209.092 296.488L201.088 265.955C201.032 265.744 201.159 265.529 201.369 265.474C201.582 265.416 201.796 265.544 201.851 265.755L209.855 296.287C209.911 296.498 209.784 296.714 209.574 296.769C209.54 296.778 209.507 296.782 209.473 296.782Z" fill="#19203F"/>
<path d="M187.484 212.9C187.309 212.9 187.149 212.783 187.103 212.606L174.902 166.067C174.847 165.855 174.973 165.64 175.184 165.585C175.396 165.525 175.61 165.655 175.665 165.866L187.865 212.405C187.921 212.617 187.795 212.832 187.584 212.887C187.551 212.896 187.517 212.9 187.484 212.9Z" fill="#19203F"/>
<path d="M256.27 261.539C253.308 250.298 250.346 239.057 247.384 227.816C246.547 224.64 245.711 221.465 244.874 218.289C244.745 217.8 244.011 218.089 244.139 218.576C247.101 229.817 250.064 241.058 253.025 252.299C253.862 255.475 254.698 258.65 255.535 261.826C255.665 262.316 256.399 262.026 256.27 261.539Z" fill="#19203F"/>
<path d="M127.375 123.867C125.172 127.254 122.666 130.433 119.899 133.376C114.684 127.939 109.47 122.503 104.256 117.066C103.904 116.699 103.409 117.314 103.756 117.676C109.056 123.203 114.357 128.729 119.658 134.256C119.813 134.418 120.08 134.34 120.213 134.201C123.101 131.169 125.702 127.877 127.985 124.367C128.26 123.944 127.651 123.441 127.375 123.867Z" fill="#19203F"/>
<path d="M128.001 123.867C130.204 127.254 132.71 130.433 135.477 133.376C140.692 127.939 145.906 122.503 151.12 117.066C151.472 116.699 151.967 117.314 151.62 117.676C146.32 123.203 141.019 128.729 135.718 134.256C135.564 134.418 135.296 134.34 135.163 134.201C132.275 131.169 129.674 127.877 127.391 124.367C127.116 123.944 127.725 123.441 128.001 123.867Z" fill="#19203F"/>
<path d="M127.398 126.244V150.309C127.398 150.816 128.182 150.725 128.182 150.221V126.156C128.182 125.65 127.398 125.741 127.398 126.244Z" fill="#19203F"/>
<path d="M121.204 241.637V293.823C121.204 294.33 121.988 294.239 121.988 293.735V241.548C121.988 241.043 121.204 241.133 121.204 241.637Z" fill="#19203F"/>
<path d="M68.3637 135.036C66.9712 135.036 67.2207 137.193 68.606 137.193C69.9986 137.193 69.7497 135.036 68.3637 135.036Z" fill="#19203F"/>
<path d="M66.5536 145.393C65.1611 145.393 65.4107 147.55 66.796 147.55C68.1892 147.55 67.9396 145.393 66.5536 145.393Z" fill="#19203F"/>
<path d="M72.1845 140.767C70.792 140.767 71.0415 142.924 72.4268 142.924C73.8194 142.924 73.5698 140.767 72.1845 140.767Z" fill="#19203F"/>
<path d="M49.4941 293.064C48.1015 293.064 48.3511 295.222 49.7364 295.222C51.1297 295.222 50.8801 293.064 49.4941 293.064Z" fill="#19203F"/>
<path d="M50.1645 283.68C48.772 283.68 49.0215 285.837 50.4068 285.837C51.7993 285.837 51.5498 283.68 50.1645 283.68Z" fill="#19203F"/>
<path d="M54.3202 289.176C52.9277 289.176 53.1773 291.333 54.5626 291.333C55.9551 291.333 55.7055 289.176 54.3202 289.176Z" fill="#19203F"/>
<path d="M60.0849 284.618C58.6924 284.618 58.9419 286.775 60.3272 286.775C61.7197 286.775 61.4702 284.618 60.0849 284.618Z" fill="#19203F"/>
<path d="M56.4653 275.904C55.0727 275.904 55.3223 278.061 56.7076 278.061C58.1008 278.061 57.8513 275.904 56.4653 275.904Z" fill="#19203F"/>
<path d="M57.538 266.922C56.1455 266.922 56.3951 269.079 57.7803 269.079C59.1729 269.079 58.9233 266.922 57.538 266.922Z" fill="#19203F"/>
<path d="M52.309 272.687C50.9165 272.687 51.1661 274.844 52.5513 274.844C53.9439 274.844 53.6943 272.687 52.309 272.687Z" fill="#19203F"/>
<path d="M246.032 255.393C244.64 255.393 244.889 257.55 246.274 257.55C247.668 257.55 247.418 255.393 246.032 255.393Z" fill="#19203F"/>
<path d="M245.73 248.153C244.338 248.153 244.587 250.31 245.973 250.31C247.366 250.31 247.116 248.153 245.73 248.153Z" fill="#19203F"/>
<path d="M239.396 253.583C238.004 253.583 238.253 255.74 239.639 255.74C241.031 255.74 240.782 253.583 239.396 253.583Z" fill="#19203F"/>
<path d="M232.961 255.996C231.568 255.996 231.818 258.153 233.203 258.153C234.596 258.153 234.346 255.996 232.961 255.996Z" fill="#19203F"/>
<path d="M234.47 250.566C233.077 250.566 233.327 252.723 234.712 252.723C236.105 252.723 235.855 250.566 234.47 250.566Z" fill="#19203F"/>
<path d="M155.022 49.6498V80.0336C155.022 88.8286 150.518 96.6137 143.703 101.212C139.184 104.265 133.639 105.906 127.715 105.503C117.587 104.802 109.266 98.1205 105.756 89.1129C105.701 88.9711 105.645 88.8213 105.59 88.6788C105.535 88.5291 105.487 88.3793 105.433 88.2368C104.723 86.2179 104.257 84.0882 104.06 81.8949C103.989 81.1216 103.958 80.349 103.958 79.5598V63.0426C105.077 63.6893 106.016 64.6124 106.616 65.764C112.989 61.5517 117.099 54.516 117.572 46.9205C118.242 47.165 118.944 47.3147 119.638 47.3776C122.131 47.5983 124.6 46.8807 127.037 46.3128C129.466 45.737 132.054 45.303 134.444 46.0524C137.907 47.1411 140.297 50.5251 143.767 51.5899C146.402 52.4023 149.249 51.7636 151.844 50.8405C152.909 50.4622 153.957 50.0361 155.022 49.6498Z" fill="#FFA96E"/>
<path d="M143.707 101.208V115.895L127.991 120.554L103.937 115.895V88.7773L105.594 88.6746C105.649 88.8163 105.704 88.9668 105.759 89.1086C109.269 98.1162 117.591 104.797 127.718 105.499C133.643 105.901 139.188 104.261 143.707 101.208Z" fill="#FFA96E"/>
<path d="M105.594 88.6746L103.938 88.7773C98.1483 87.5229 93.1706 83.0111 91.3564 77.3636C90.3863 74.3348 90.2995 70.9508 91.522 68.0088C92.2237 66.3132 93.3912 64.7984 94.8583 63.7017C94.8742 63.8044 94.8822 63.9072 94.9053 64.0171C94.8973 63.9064 94.8894 63.7885 94.8894 63.6778C95.9622 62.8814 97.1927 62.3135 98.502 62.069C100.355 61.7218 102.343 62.0849 103.96 63.0391V79.5562C103.96 80.3447 103.992 81.118 104.063 81.8913C104.26 84.0839 104.725 86.2136 105.435 88.2333C105.491 88.3751 105.538 88.5248 105.594 88.6746Z" fill="#FFA96E"/>
<path d="M179.183 42.5427C178.347 45.4058 175.783 47.6064 172.897 48.3797C168.629 49.5154 164.086 47.8118 159.708 48.3638C158.896 48.4665 158.1 48.6481 157.318 48.8767C156.545 49.0893 155.78 49.3577 155.023 49.65C153.958 50.0363 152.909 50.4623 151.844 50.8407C149.25 51.7637 146.402 52.4025 143.767 51.5901C140.296 50.5253 137.906 47.1413 134.444 46.0526C132.054 45.3031 129.467 45.7372 127.037 46.313C124.6 46.8808 122.131 47.5984 119.638 47.3778C118.944 47.3149 118.242 47.1651 117.572 46.9206C117.099 54.5162 112.989 61.5526 106.616 65.7642C106.016 64.6125 105.078 63.6895 103.958 63.0428C102.341 62.0886 100.353 61.7255 98.4996 62.0727C97.1902 62.3172 95.9598 62.8851 94.887 63.6815C94.7611 61.1258 94.6584 58.5621 94.7683 56.0071C94.7683 55.9991 94.7683 55.9991 94.7683 55.9912C94.8154 54.7527 94.9181 53.5223 95.0837 52.2918C95.6277 48.3399 96.953 44.4119 99.4928 41.3361C100.447 40.1844 101.583 39.1746 102.837 38.3622C104.943 36.9979 107.396 36.2087 109.897 36.3114L110.078 36.3194C110.094 34.8125 110.417 33.3144 111.017 31.9262C111.696 30.3405 112.729 28.9053 114.046 27.7848C116.578 25.6313 120.088 24.6771 123.361 25.2529C125.972 25.7101 128.362 27.0752 130.815 28.0922C132.432 28.7628 134.08 29.2829 135.832 29.2989C136.052 29.2989 136.266 29.2909 136.486 29.275C138.979 29.1173 141.329 27.9895 143.68 27.0983C146.243 26.1282 149.145 25.4258 151.662 26.5066C155.069 27.9736 156.592 32.1939 159.928 33.8266C164.945 36.2955 171.539 31.8466 176.335 34.7098C178.906 36.2405 180.027 39.6715 179.183 42.5427Z" fill="#19203F"/>
<path d="M144.467 83.2392H136.792C136.574 83.2392 136.398 83.0627 136.398 82.845C136.398 82.6273 136.574 82.4508 136.792 82.4508H143.942L139.373 66.6736C139.313 66.4646 139.433 66.2454 139.643 66.1846C139.85 66.1253 140.071 66.2447 140.131 66.4537L144.846 82.7351C144.88 82.8544 144.857 82.9825 144.782 83.0816C144.708 83.1807 144.59 83.2392 144.467 83.2392Z" fill="#19203F"/>
<path d="M101.489 83.4127C101.464 83.4127 101.438 83.4105 101.412 83.4054C99.1936 82.97 97.4625 80.7781 97.5515 78.519C97.6362 76.3763 99.3506 74.4224 101.446 74.0072C101.459 72.9662 101.39 71.9209 101.237 70.8937C101.098 69.9634 100.869 68.9102 100.211 68.1499C99.4251 67.2413 98.0463 66.9078 96.933 67.3571C95.8183 67.8056 95.0558 69.0021 95.1195 70.2022C95.1311 70.4192 94.9647 70.6051 94.7469 70.6167C94.5364 70.6355 94.344 70.4611 94.3324 70.2434C94.2507 68.7178 95.2208 67.195 96.6379 66.6243C98.0521 66.0528 99.8078 66.4767 100.807 67.6327C101.602 68.5514 101.872 69.7956 102.017 70.7772C102.193 71.9578 102.264 73.1623 102.227 74.3573C102.22 74.5526 102.072 74.7146 101.878 74.7363C100.002 74.9526 98.4152 76.6627 98.3407 78.5493C98.2655 80.4359 99.7116 82.2668 101.565 82.6307C101.778 82.6727 101.918 82.8795 101.875 83.0937C101.838 83.2825 101.673 83.4127 101.489 83.4127Z" fill="#19203F"/>
<path d="M131.013 90.2016C127.626 89.8898 124.771 87.4115 124.07 84.0665C123.966 83.5746 123.181 83.6564 123.285 84.1548C124.057 87.8311 127.132 90.6349 130.889 90.9807C131.392 91.027 131.519 90.2486 131.013 90.2016Z" fill="#19203F"/>
<path d="M146.92 72.0453C148.979 72.0453 150.648 70.3764 150.648 68.3177C150.648 66.259 148.979 64.5901 146.92 64.5901C144.861 64.5901 143.192 66.259 143.192 68.3177C143.192 70.3764 144.861 72.0453 146.92 72.0453Z" fill="#19203F"/>
<path d="M144.783 62.5617H149.057C149.887 62.5617 150.565 61.8832 150.565 61.0534V60.7807C150.565 59.951 149.887 59.2725 149.057 59.2725H144.783C143.953 59.2725 143.274 59.951 143.274 60.7807V61.0534C143.274 61.8832 143.953 62.5617 144.783 62.5617Z" fill="#19203F"/>
<path d="M126.432 72.0453C128.49 72.0453 130.159 70.3764 130.159 68.3177C130.159 66.259 128.49 64.5901 126.432 64.5901C124.373 64.5901 122.704 66.259 122.704 68.3177C122.704 70.3764 124.373 72.0453 126.432 72.0453Z" fill="#19203F"/>
<path d="M124.294 62.5617H128.569C129.399 62.5617 130.077 61.8832 130.077 61.0534V60.7807C130.077 59.951 129.399 59.2725 128.569 59.2725H124.294C123.465 59.2725 122.786 59.951 122.786 60.7807V61.0534C122.786 61.8832 123.465 62.5617 124.294 62.5617Z" fill="#19203F"/>
<path d="M114.975 85.7501C118.547 85.7501 121.443 82.854 121.443 79.2815C121.443 75.7091 118.547 72.813 114.975 72.813C111.402 72.813 108.506 75.7091 108.506 79.2815C108.506 82.854 111.402 85.7501 114.975 85.7501Z" fill="#19203F"/>
<path d="M111.568 98.0635C111.568 98.0635 118.374 105.596 128.3 105.535C138.227 105.475 143.703 101.212 143.703 101.212V111.839C143.703 111.839 125.193 117.592 111.568 98.0635Z" fill="#19203F"/>
<path d="M139.374 66.6729L136.792 82.45H143.942L139.374 66.6729Z" fill="#19203F"/>
<path d="M334.631 174.667C334.631 183.846 330.188 191.979 323.331 197.044L318.974 213.218H294.687L290.337 197.044C283.479 191.979 279.036 183.845 279.036 174.667C279.036 159.315 291.482 146.869 306.834 146.869C322.186 146.869 334.631 159.315 334.631 174.667Z" fill="#FFA233"/>
<path d="M321.769 213.184H291.898V234.346H321.769V213.184Z" fill="#9499AA"/>
<path d="M289.38 191.692C284.57 188.123 281.694 182.164 281.957 176.17C281.978 175.69 281.234 175.567 281.212 176.052C280.999 180.905 282.697 185.764 285.865 189.446C286.771 190.499 287.786 191.449 288.902 192.276C289.291 192.564 289.77 191.981 289.38 191.692Z" fill="#19203F"/>
<path d="M297.443 181.893C297.12 179.086 296.796 176.279 296.473 173.472C296.417 172.991 295.667 173.073 295.723 173.556C296.873 183.536 298.022 193.515 299.173 203.495C299.496 206.302 299.819 209.109 300.143 211.916C300.198 212.397 300.948 212.315 300.892 211.832C299.743 201.852 298.593 191.872 297.443 181.893Z" fill="#19203F"/>
<path d="M316.23 174.268L313.732 203.459C313.497 206.204 313.261 208.948 313.027 211.693C312.986 212.174 313.73 212.295 313.772 211.811L316.271 182.62L316.975 174.386C317.017 173.905 316.272 173.784 316.23 174.268Z" fill="#19203F"/>
<path d="M321 217.831C313.482 217.656 305.965 217.481 298.449 217.305C296.319 217.255 294.189 217.206 292.059 217.156C291.576 217.144 291.664 217.894 292.144 217.905C299.66 218.08 307.178 218.255 314.695 218.431L321.084 218.58C321.567 218.592 321.479 217.842 321 217.831Z" fill="#19203F"/>
<path d="M321.207 224.445C313.615 224.943 306.023 225.44 298.431 225.938C296.275 226.079 294.119 226.221 291.964 226.362C291.48 226.393 291.564 227.143 292.048 227.111C299.64 226.613 307.232 226.116 314.824 225.619C316.979 225.478 319.135 225.336 321.291 225.195C321.775 225.164 321.691 224.413 321.207 224.445Z" fill="#19203F"/>
<path d="M321.312 179.71C319.814 183.373 316.511 186.94 312.185 186.067C310.172 185.66 308.363 184.404 307.111 182.798C306.838 182.449 306.599 182.078 306.377 181.698C308.4 179.288 309.507 176.003 309.949 172.944C310.124 171.739 310.119 170.439 309.481 169.361C308.948 168.463 307.986 167.758 306.908 167.788C305.773 167.82 304.831 168.666 304.357 169.648C303.782 170.837 303.785 172.243 303.775 173.535C303.756 176.27 304.235 179.157 305.482 181.575C304.855 182.251 304.143 182.849 303.33 183.324C301.325 184.498 298.748 184.891 296.651 183.724C294.763 182.675 293.437 180.513 293.868 178.328C293.963 177.851 293.217 177.734 293.123 178.21C292.697 180.369 293.772 182.534 295.474 183.846C297.337 185.281 299.761 185.494 301.957 184.768C303.51 184.255 304.805 183.379 305.872 182.267C306.855 183.896 308.227 185.266 310.094 186.153C312.415 187.254 315.045 187.203 317.273 185.905C319.489 184.613 321.043 182.356 321.997 180.022C322.183 179.573 321.496 179.26 321.312 179.71ZM304.698 176.487C304.55 175.339 304.504 174.178 304.532 173.021C304.561 171.866 304.587 170.538 305.278 169.556C305.887 168.69 306.931 168.242 307.905 168.803C308.911 169.382 309.285 170.551 309.297 171.648C309.31 172.839 309.005 174.058 308.707 175.204C308.425 176.288 308.064 177.352 307.596 178.369C307.165 179.303 306.63 180.186 305.992 180.983C305.305 179.578 304.899 178.032 304.698 176.487Z" fill="#19203F"/>
<path d="M353.857 222.173L336.538 247.223C333.529 251.568 328.58 254.171 323.293 254.171H259.811V225.319C259.811 225.319 281.414 212.979 301.999 232.591H309.127L329.561 213.5C331.816 211.387 335.64 212.376 336.357 215.378C336.395 215.543 336.432 215.71 336.456 215.883L338.1 214.593C339.654 213.379 341.879 213.402 343.349 214.714C344.307 215.566 345.099 216.879 345.16 218.893L346.427 217.951C347.996 216.782 350.199 216.842 351.639 218.169C352.642 219.089 353.569 220.386 353.857 222.173Z" fill="#FFA96E"/>
<path d="M310.033 243.379C309.825 243.379 309.656 243.211 309.656 243.002C309.656 242.794 309.825 242.626 310.033 242.626C322.261 242.626 326.565 239.845 328.024 237.512C329.259 235.536 328.691 233.6 328.447 232.968H302C301.792 232.968 301.623 232.799 301.623 232.591C301.623 232.382 301.792 232.214 302 232.214H328.697C328.841 232.214 328.971 232.296 329.034 232.424C329.089 232.536 330.361 235.182 328.671 237.9C326.411 241.536 320.14 243.379 310.033 243.379Z" fill="#19203F"/>
<path d="M319.26 232.968C319.163 232.968 319.064 232.929 318.99 232.853C318.845 232.704 318.847 232.465 318.997 232.32L336.192 215.612C336.342 215.467 336.581 215.471 336.725 215.619C336.871 215.769 336.868 216.008 336.718 216.153L319.523 232.861C319.45 232.932 319.356 232.968 319.26 232.968Z" fill="#19203F"/>
<path d="M329.123 234.572C329.024 234.572 328.925 234.533 328.851 234.455C328.706 234.304 328.713 234.066 328.863 233.922L344.899 218.62C345.05 218.475 345.289 218.482 345.432 218.632C345.576 218.783 345.57 219.021 345.419 219.164L329.383 234.467C329.311 234.537 329.217 234.572 329.123 234.572Z" fill="#19203F"/>
<path d="M298.468 145.981C296.994 142.2 295.52 138.419 294.046 134.638C293.87 134.186 293.167 134.459 293.343 134.912C294.817 138.693 296.292 142.475 297.765 146.255C297.942 146.707 298.645 146.434 298.468 145.981Z" fill="#19203F"/>
<path d="M290.344 150.219C285.722 144.29 281.099 138.361 276.478 132.432C276.18 132.05 275.649 132.587 275.944 132.966C280.566 138.895 285.189 144.823 289.81 150.752C290.108 151.135 290.639 150.597 290.344 150.219Z" fill="#19203F"/>
<path d="M283.225 156.419C281.116 154.867 279.006 153.315 276.896 151.763C276.506 151.476 276.027 152.059 276.418 152.347C278.527 153.899 280.637 155.451 282.747 157.003C283.138 157.291 283.617 156.708 283.225 156.419Z" fill="#19203F"/>
<path d="M306.459 118.12V145.519C306.459 146.003 307.208 145.916 307.208 145.435V118.036C307.208 117.551 306.459 117.638 306.459 118.12Z" fill="#19203F"/>
<path d="M315.944 145.59C317.419 141.809 318.893 138.028 320.366 134.247C320.543 133.795 321.246 134.068 321.07 134.522C319.595 138.303 318.121 142.084 316.648 145.864C316.471 146.316 315.767 146.044 315.944 145.59Z" fill="#19203F"/>
<path d="M324.07 149.829C328.692 143.9 333.314 137.971 337.936 132.042C338.234 131.659 338.764 132.197 338.469 132.575C333.847 138.504 329.225 144.433 324.603 150.362C324.305 150.744 323.775 150.207 324.07 149.829Z" fill="#19203F"/>
<path d="M331.188 156.029C333.297 154.476 335.407 152.925 337.517 151.372C337.907 151.085 338.386 151.668 337.995 151.956C335.886 153.508 333.776 155.06 331.666 156.612C331.275 156.9 330.796 156.316 331.188 156.029Z" fill="#19203F"/>
<path d="M319.419 66.2944L325.453 82.7298L306.695 74.1648C304.778 74.8738 302.774 75.4452 300.698 75.8503C279.951 79.9302 259.827 66.4173 255.747 45.6633C251.674 24.9237 265.187 4.79907 285.941 0.726386C306.681 -3.35353 326.805 10.1666 330.878 30.9062C333.526 44.3757 328.766 57.5775 319.419 66.2944Z" fill="#A4BFEA"/>
<path d="M252.117 109.203C252.028 109.203 251.94 109.17 251.872 109.107C251.764 109.008 251.728 108.854 251.778 108.717L255.932 97.4001C249.122 90.9388 246.14 81.6049 247.953 72.3824C249.355 65.244 253.454 59.0779 259.495 55.0204C265.536 50.9629 272.794 49.5024 279.931 50.9057C287.073 52.3077 293.241 56.4064 297.3 62.4474C301.357 68.4877 302.82 75.7455 301.417 82.8839C300.014 90.0273 295.913 96.195 289.871 100.252C283.83 104.308 276.573 105.77 269.429 104.366C268.04 104.094 266.652 103.709 265.303 103.218L252.267 109.17C252.219 109.193 252.168 109.203 252.117 109.203ZM274.623 51.1097C269.413 51.1097 264.321 52.6506 259.898 55.6215C254.017 59.5712 250.027 65.5732 248.663 72.5221C246.883 81.5774 249.85 90.7413 256.6 97.0363C256.707 97.1354 256.744 97.2887 256.693 97.4254L252.755 108.153L265.138 102.499C265.225 102.459 265.324 102.455 265.414 102.488C266.771 102.99 268.169 103.383 269.569 103.656C276.521 105.025 283.587 103.601 289.468 99.6513C295.349 95.7023 299.341 89.6975 300.708 82.7443C302.073 75.7954 300.649 68.7301 296.699 62.8503C292.749 56.9699 286.744 52.9797 279.791 51.6154C278.07 51.2768 276.339 51.1097 274.623 51.1097Z" fill="#19203F"/>
</g>
<defs>
<filter id="filter0_d_618_714" x="0" y="0" width="517.96" height="308.282" filterUnits="userSpaceOnUse" color-interpolation-filters="sRGB">
<feFlood flood-opacity="0" result="BackgroundImageFix"/>
<feColorMatrix in="SourceAlpha" type="matrix" values="0 0 0 0 0 0 0 0 0 0 0 0 0 0 0 0 0 0 127 0" result="hardAlpha"/>
<feOffset dy="4"/>
<feGaussianBlur stdDeviation="2"/>
<feComposite in2="hardAlpha" operator="out"/>
<feColorMatrix type="matrix" values="0 0 0 0 0 0 0 0 0 0 0 0 0 0 0 0 0 0 0.25 0"/>
<feBlend mode="normal" in2="BackgroundImageFix" result="effect1_dropShadow_618_714"/>
<feBlend mode="normal" in="SourceGraphic" in2="effect1_dropShadow_618_714" result="shape"/>
</filter>
</defs>
</svg>
