<svg width="18" height="18" viewBox="0 0 18 18" fill="none" xmlns="http://www.w3.org/2000/svg">
<g clip-path="url(#clip0_200_276)">
<path d="M6.42857 1.125V2.25H11.5714V1.125C11.5714 0.503789 12.146 0 12.8571 0C13.5683 0 14.1429 0.503789 14.1429 1.125V2.25H16.0714C17.1362 2.25 18 3.00551 18 3.9375V5.625H0V3.9375C0 3.00551 0.863437 2.25 1.92857 2.25H3.85714V1.125C3.85714 0.503789 4.4317 0 5.14286 0C5.85402 0 6.42857 0.503789 6.42857 1.125ZM0 6.75H18V16.3125C18 17.2441 17.1362 18 16.0714 18H1.92857C0.863437 18 0 17.2441 0 16.3125V6.75ZM2.57143 10.6875C2.57143 10.9969 2.85911 11.25 3.21429 11.25H4.5C4.85357 11.25 5.14286 10.9969 5.14286 10.6875V9.5625C5.14286 9.25313 4.85357 9 4.5 9H3.21429C2.85911 9 2.57143 9.25313 2.57143 9.5625V10.6875ZM7.71429 10.6875C7.71429 10.9969 8.00357 11.25 8.35714 11.25H9.64286C9.99643 11.25 10.2857 10.9969 10.2857 10.6875V9.5625C10.2857 9.25313 9.99643 9 9.64286 9H8.35714C8.00357 9 7.71429 9.25313 7.71429 9.5625V10.6875ZM13.5 9C13.1464 9 12.8571 9.25313 12.8571 9.5625V10.6875C12.8571 10.9969 13.1464 11.25 13.5 11.25H14.7857C15.1393 11.25 15.4286 10.9969 15.4286 10.6875V9.5625C15.4286 9.25313 15.1393 9 14.7857 9H13.5ZM2.57143 15.1875C2.57143 15.4969 2.85911 15.75 3.21429 15.75H4.5C4.85357 15.75 5.14286 15.4969 5.14286 15.1875V14.0625C5.14286 13.7531 4.85357 13.5 4.5 13.5H3.21429C2.85911 13.5 2.57143 13.7531 2.57143 14.0625V15.1875ZM8.35714 13.5C8.00357 13.5 7.71429 13.7531 7.71429 14.0625V15.1875C7.71429 15.4969 8.00357 15.75 8.35714 15.75H9.64286C9.99643 15.75 10.2857 15.4969 10.2857 15.1875V14.0625C10.2857 13.7531 9.99643 13.5 9.64286 13.5H8.35714ZM12.8571 15.1875C12.8571 15.4969 13.1464 15.75 13.5 15.75H14.7857C15.1393 15.75 15.4286 15.4969 15.4286 15.1875V14.0625C15.4286 13.7531 15.1393 13.5 14.7857 13.5H13.5C13.1464 13.5 12.8571 13.7531 12.8571 14.0625V15.1875Z" fill="#002140" fill-opacity="0.8"/>
</g>
<defs>
<clipPath id="clip0_200_276">
<rect width="18" height="18" fill="white"/>
</clipPath>
</defs>
</svg>
