<svg width="33" height="34" viewBox="0 0 33 34" fill="none" xmlns="http://www.w3.org/2000/svg">
<ellipse cx="16.4416" cy="17" rx="16.4416" ry="17" fill="#F3F7FD"/>
<g clip-path="url(#clip0_173_114)">
<path d="M21.6285 12.5035C21.3297 12.8621 20.7953 12.8621 20.4648 12.5035C20.1379 12.2047 20.1379 11.6703 20.4648 11.3409L23.5586 8.24711C23.8891 7.91763 24.4234 7.91763 24.7223 8.24711C25.0809 8.57656 25.0809 9.11094 24.7223 9.44035L21.6285 12.5035ZM18.1375 9.35809C18.2957 9.51699 18.4398 9.68539 18.5699 9.86082L20.1836 8.24711C20.5141 7.91763 21.0484 7.91763 21.3473 8.24711C21.7059 8.57656 21.7059 9.11094 21.3473 9.44035L19.3293 11.4875C19.5121 12.2434 19.4945 13.0344 19.2801 13.7832C19.9937 13.5793 20.7496 13.523 21.4738 13.7094L23.5586 11.6211C23.8891 11.2927 24.4234 11.2927 24.7223 11.6211C25.0809 11.9516 25.0809 12.4859 24.7223 12.7848L23.1297 14.4371C23.3301 14.5813 23.5234 14.7465 23.7063 14.9258L24.1035 15.323C24.3215 15.5445 24.3215 15.8996 24.1035 16.0895L23.7063 16.5184C22.3879 17.8367 20.2504 17.8367 18.932 16.5184L18.5031 16.0895L17.3816 17.1793C18.3836 17.3059 19.3574 17.7383 20.1273 18.5047L20.5246 18.9055C20.7426 19.1234 20.7426 19.4785 20.5246 19.7L20.1273 20.0973C18.809 21.4156 16.6715 21.4156 15.3531 20.0973L14.9242 19.6684L13.8027 20.7898C14.773 20.8848 15.7785 21.3172 16.5449 22.0871L16.9422 22.4527C17.1637 22.7023 17.1637 23.0609 16.9422 23.2789L16.5449 23.6762C15.2266 24.9945 13.0926 24.9945 11.7742 23.6762L11.3418 23.2473L8.92059 25.6695C8.48113 26.109 7.76887 26.109 7.32948 25.6695C6.89017 25.2301 6.89017 24.5199 7.32948 24.0805L9.75238 21.6582L9.38641 21.2891C8.0684 19.9742 8.0684 17.8367 9.38641 16.5184L9.78437 16.0895C10.0037 15.8996 10.3599 15.8996 10.5789 16.0895L10.9762 16.5184C11.7145 17.2566 12.1434 18.1848 12.2629 19.148L13.3316 18.0758L12.966 17.7102C11.6477 16.3918 11.6477 14.2543 12.966 12.9395L13.3633 12.5387C13.5848 12.3207 13.9398 12.3207 14.1578 12.5387L14.527 12.9395C15.2652 13.6742 15.7223 14.6059 15.8418 15.5691L16.9105 14.4969L16.5449 14.1312C15.2266 12.8129 15.2266 10.6761 16.5449 9.35809L16.9422 8.96012C17.1637 8.74074 17.5188 8.74074 17.7402 8.96012L18.1375 9.35809Z" fill="#FD9413"/>
</g>
<defs>
<clipPath id="clip0_173_114">
<rect width="18" height="18" fill="white" transform="translate(7 8)"/>
</clipPath>
</defs>
</svg>
