<svg width="23" height="21" viewBox="0 0 23 21" fill="none" xmlns="http://www.w3.org/2000/svg">
<g clip-path="url(#clip0_1_222)">
<path d="M3.17461 14.25C2.12302 14.25 1.26984 15.0898 1.26984 16.125C1.26984 17.1602 2.12302 18 3.17461 18C4.22619 18 5.07937 17.1602 5.07937 16.125C5.07937 15.0898 4.22619 14.25 3.17461 14.25ZM19.6825 14.25C18.631 14.25 17.7778 15.0898 17.7778 16.125C17.7778 17.1602 18.631 18 19.6825 18C20.7341 18 21.5873 17.1602 21.5873 16.125C21.5873 15.0898 20.7341 14.25 19.6825 14.25ZM14.9603 14.6836C15.1439 14.1172 15.0248 13.4773 14.5734 13.0285C14.1171 12.5793 13.4675 12.4668 12.8921 12.6428C12.6143 12.1154 12.0734 11.7443 11.4286 11.7443C10.7837 11.7443 10.2429 12.1154 9.96508 12.6428C9.38889 12.4609 8.7381 12.5781 8.28572 13.0312C7.82937 13.4805 7.71508 14.1199 7.89385 14.6863C7.35814 14.9598 6.98115 15.4922 6.98115 16.127C6.98115 16.7617 7.35814 17.2941 7.89385 17.5676C7.71032 18.134 7.82937 18.7738 8.28572 19.2227C8.6131 19.54 9.03968 19.7012 9.46627 19.7012C9.63492 19.7012 9.80357 19.6572 9.96707 19.6035C10.2421 20.1289 10.7857 20.5 11.4286 20.5C12.0714 20.5 12.6143 20.1289 12.8921 19.6016C13.0558 19.6504 13.2244 19.6992 13.3929 19.6992C13.8194 19.6992 14.246 19.5381 14.5734 19.2207C15.0298 18.7715 15.144 18.132 14.9603 17.5656C15.496 17.293 15.873 16.7578 15.873 16.125C15.873 15.4922 15.496 14.957 14.9603 14.6836ZM21.5873 9.25C21.5873 7.17969 19.881 5.5 17.7778 5.5C17.753 5.5 17.7331 5.50977 17.7133 5.50977C17.7579 5.30469 17.7778 5.09375 17.7778 4.875C17.7778 3.14648 16.3571 1.75 14.6032 1.75C13.6262 1.75 12.7679 2.18945 12.1825 2.87305C11.4444 1.4668 9.96826 0.5 8.25397 0.5C5.79762 0.5 3.80953 2.45781 3.80953 4.875C3.80953 5.1582 3.83929 5.43164 3.89385 5.70508C2.37103 6.19531 1.26984 7.58984 1.26984 9.25C1.26984 11.3203 2.97619 13 5.07937 13H6.8008C6.94445 12.6875 7.13492 12.3984 7.38889 12.1484C7.92857 11.625 8.64286 11.3242 9.40476 11.3164C9.94048 10.8047 10.6667 10.5 11.4286 10.5C12.1905 10.5 12.9167 10.8027 13.4524 11.3156C14.2163 11.3254 14.9306 11.6232 15.4663 12.1504C15.7222 12.3984 15.9167 12.6875 16.0556 13H17.7778C19.881 13 21.5873 11.3203 21.5873 9.25Z" fill="#FFB703"/>
</g>
<defs>
<clipPath id="clip0_1_222">
<rect width="22.8571" height="20" fill="white" transform="translate(0 0.5)"/>
</clipPath>
</defs>
</svg>
