<svg width="18" height="19" viewBox="0 0 18 19" fill="none" xmlns="http://www.w3.org/2000/svg">
<g clip-path="url(#clip0_1_234)">
<path d="M0.631845 17.8707C0.590034 18.2047 0.866432 18.4989 1.22426 18.4989L2.41577 18.5012C2.71774 18.5012 2.98106 18.2961 3.01822 18.015C3.0461 17.8436 3.08768 17.6223 3.14808 17.3762H14.7436C14.804 17.6179 14.8515 17.8441 14.8748 18.0153C14.9166 18.2649 15.1661 18.5054 15.4683 18.5012L16.6747 18.499C17.0324 18.499 17.3109 18.2046 17.2689 17.8707C17.0971 16.5394 16.3119 13.3672 12.8426 10.5688C12.1922 11.0037 11.4682 11.4255 10.6692 11.8165C10.9014 11.9791 11.0988 12.1471 11.3032 12.3139H6.56269C7.35245 11.6769 8.31057 11.0613 9.48573 10.5076C15.8819 7.50176 17.0563 2.81543 17.2718 1.13144C17.3136 0.79746 17.0378 0.50285 16.6802 0.50285L15.4786 0.500038C15.1767 0.500038 14.9271 0.705069 14.8855 0.986249C14.8576 1.15764 14.816 1.37894 14.7603 1.62504H3.14498C3.08923 1.37891 3.04612 1.16129 3.01825 0.98551C2.97662 0.704366 2.7265 0.495643 2.42472 0.500038L1.22577 0.504706C0.868056 0.504706 0.590618 0.798402 0.632614 1.13225C0.823086 2.63939 1.79551 6.53928 6.57533 9.50295C1.79997 12.4637 0.822343 16.3625 0.631845 17.8707ZM8.9487 8.22383C8.01585 7.73867 7.22795 7.22539 6.56269 6.6875H11.3384C10.6769 7.22539 9.88154 7.74571 8.9487 8.22383ZM13.8248 3.875C13.6064 4.23957 13.3461 4.6175 13.0443 4.96836H4.83079C4.52418 4.58621 4.26217 4.20793 4.04847 3.84336L13.8248 3.875ZM4.08377 15.0934C4.30212 14.7288 4.55726 14.3505 4.85941 13.9684H13.0135C13.3247 14.3505 13.5888 14.7288 13.8025 15.0934H4.08377Z" fill="#002140" fill-opacity="0.8"/>
</g>
<defs>
<clipPath id="clip0_1_234">
<rect width="16.65" height="18" fill="white" transform="translate(0.62738 0.5)"/>
</clipPath>
</defs>
</svg>
