<svg width="20" height="20" viewBox="0 0 30 31" fill="none" xmlns="http://www.w3.org/2000/svg">
<path d="M3.75 6.8125C3.23437 6.8125 2.8125 7.23437 2.8125 7.75V9.04492L12.9199 17.3418C14.1328 18.3379 15.873 18.3379 17.0859 17.3418L27.1875 9.04492V7.75C27.1875 7.23437 26.7656 6.8125 26.25 6.8125H3.75ZM2.8125 12.6836V22.75C2.8125 23.2656 3.23437 23.6875 3.75 23.6875H26.25C26.7656 23.6875 27.1875 23.2656 27.1875 22.75V12.6836L18.8672 19.5156C16.6172 21.3613 13.377 21.3613 11.1328 19.5156L2.8125 12.6836ZM0 7.75C0 5.68164 1.68164 4 3.75 4H26.25C28.3184 4 30 5.68164 30 7.75V22.75C30 24.8184 28.3184 26.5 26.25 26.5H3.75C1.68164 26.5 0 24.8184 0 22.75V7.75Z" fill="white"/>
</svg>
