<svg width="20" height="20" viewBox="0 0 30 30" fill="none" xmlns="http://www.w3.org/2000/svg">
<g clip-path="url(#clip0_384_185)">
<path d="M29.5312 15C29.5312 6.97266 23.0273 0.46875 15 0.46875C6.97266 0.46875 0.46875 6.97266 0.46875 15C0.46875 22.2527 5.78262 28.2645 12.7295 29.3555V19.2006H9.03809V15H12.7295V11.7984C12.7295 8.15684 14.8975 6.14531 18.218 6.14531C19.8082 6.14531 21.4711 6.42891 21.4711 6.42891V10.0031H19.6383C17.8336 10.0031 17.2705 11.1234 17.2705 12.2725V15H21.3006L20.6561 19.2006H17.2705V29.3555C24.2174 28.2645 29.5312 22.2527 29.5312 15Z" fill="white"/>
</g>
<defs>
<clipPath id="clip0_384_185">
<rect width="30" height="30" fill="white"/>
</clipPath>
</defs>
</svg>
