<svg width="19" height="19" viewBox="0 0 19 19" fill="none" xmlns="http://www.w3.org/2000/svg">
<g clip-path="url(#clip0_1_228)">
<path d="M13.9025 2.30176C13.0708 2.97852 12.3155 3.69043 11.6485 4.40586C10.5516 3.0882 9.18958 1.74805 7.65475 0.5C3.70721 3.70344 0.904755 7.88281 0.904755 10.4C0.904755 14.8754 4.93065 18.5 9.90475 18.5C14.8789 18.5 18.9048 14.8754 18.9048 10.4C18.9048 8.52969 16.8155 4.66602 13.9025 2.30176ZM13.1231 14.2777C12.2512 14.8086 11.1824 15.125 10.0213 15.125C7.12319 15.125 4.7619 13.447 4.7619 10.7234C4.7619 9.36535 5.73583 8.16969 7.68449 6.125C7.96574 6.40625 11.6573 10.5336 11.6573 10.5336L14.013 8.18234C14.1788 8.41965 14.3291 8.65766 14.4646 8.88195C15.5659 10.7164 15.1039 13.0648 13.1231 14.2777Z" fill="#FF785B"/>
</g>
<defs>
<clipPath id="clip0_1_228">
<rect width="18" height="18" fill="white" transform="translate(0.904755 0.5)"/>
</clipPath>
</defs>
</svg>
