<svg width="21" height="19" viewBox="0 0 21 19" fill="none" xmlns="http://www.w3.org/2000/svg">
<g clip-path="url(#clip0_199_159)">
<path d="M2.85711 12.875C1.91068 12.875 1.14282 13.6309 1.14282 14.5625C1.14282 15.4941 1.91068 16.25 2.85711 16.25C3.80354 16.25 4.57139 15.4941 4.57139 14.5625C4.57139 13.6309 3.80354 12.875 2.85711 12.875ZM17.7142 12.875C16.7678 12.875 16 13.6309 16 14.5625C16 15.4941 16.7678 16.25 17.7142 16.25C18.6607 16.25 19.4285 15.4941 19.4285 14.5625C19.4285 13.6309 18.6607 12.875 17.7142 12.875ZM13.4643 13.2652C13.6294 12.7555 13.5223 12.1796 13.116 11.7757C12.7053 11.3714 12.1207 11.2701 11.6028 11.4285C11.3528 10.9539 10.866 10.6199 10.2857 10.6199C9.70532 10.6199 9.21854 10.9539 8.96854 11.4285C8.44996 11.2648 7.86425 11.3703 7.45711 11.7781C7.04639 12.1824 6.94354 12.7579 7.10443 13.2677C6.62229 13.5138 6.283 13.993 6.283 14.5643C6.283 15.1355 6.62229 15.6147 7.10443 15.8608C6.93925 16.3706 7.04639 16.9464 7.45711 17.3504C7.75175 17.636 8.13568 17.7811 8.51961 17.7811C8.67139 17.7811 8.82318 17.7415 8.97032 17.6932C9.21782 18.166 9.70711 18.5 10.2857 18.5C10.8643 18.5 11.3528 18.166 11.6028 17.6914C11.7501 17.7354 11.9019 17.7793 12.0535 17.7793C12.4375 17.7793 12.8214 17.6343 13.116 17.3486C13.5268 16.9443 13.6296 16.3688 13.4643 15.8591C13.9464 15.6137 14.2857 15.132 14.2857 14.5625C14.2857 13.993 13.9464 13.5113 13.4643 13.2652ZM19.4285 8.375C19.4285 6.51172 17.8928 5 16 5C15.9776 5 15.9598 5.00879 15.9419 5.00879C15.9821 4.82422 16 4.63437 16 4.4375C16 2.88184 14.7214 1.625 13.1428 1.625C12.2635 1.625 11.491 2.02051 10.9643 2.63574C10.3 1.37012 8.97139 0.5 7.42854 0.5C5.21782 0.5 3.42854 2.26203 3.42854 4.4375C3.42854 4.69238 3.45532 4.93848 3.50443 5.18457C2.13389 5.62578 1.14282 6.88086 1.14282 8.375C1.14282 10.2383 2.67854 11.75 4.57139 11.75H6.12068C6.24996 11.4688 6.42139 11.2086 6.64996 10.9836C7.13568 10.5125 7.77854 10.2418 8.46425 10.2348C8.94639 9.77422 9.59996 9.5 10.2857 9.5C10.9714 9.5 11.625 9.77246 12.1071 10.2341C12.7946 10.2429 13.4375 10.5109 13.9196 10.9854C14.15 11.2086 14.325 11.4688 14.45 11.75H16C17.8928 11.75 19.4285 10.2383 19.4285 8.375Z" fill="#FFB703"/>
</g>
<defs>
<clipPath id="clip0_199_159">
<rect width="20.5714" height="18" fill="white" transform="translate(0 0.5)"/>
</clipPath>
</defs>
</svg>
