<svg width="19" height="19" viewBox="0 0 19 19" fill="none" xmlns="http://www.w3.org/2000/svg">
<g clip-path="url(#clip0_199_164)">
<path d="M13.6645 2.30176C12.8328 2.97852 12.0775 3.69043 11.4105 4.40586C10.3136 3.0882 8.95157 1.74805 7.41675 0.5C3.4692 3.70344 0.666748 7.88281 0.666748 10.4C0.666748 14.8754 4.69264 18.5 9.66675 18.5C14.6409 18.5 18.6667 14.8754 18.6667 10.4C18.6667 8.52969 16.5775 4.66602 13.6645 2.30176ZM12.8851 14.2777C12.0132 14.8086 10.9444 15.125 9.78327 15.125C6.88519 15.125 4.52389 13.447 4.52389 10.7234C4.52389 9.36535 5.49782 8.16969 7.44648 6.125C7.72773 6.40625 11.4193 10.5336 11.4193 10.5336L13.775 8.18234C13.9407 8.41965 14.0911 8.65766 14.2266 8.88195C15.3279 10.7164 14.8659 13.0648 12.8851 14.2777Z" fill="#FF785B"/>
</g>
<defs>
<clipPath id="clip0_199_164">
<rect width="18" height="18" fill="white" transform="translate(0.666748 0.5)"/>
</clipPath>
</defs>
</svg>
