<svg width="17" height="19" viewBox="0 0 17 19" fill="none" xmlns="http://www.w3.org/2000/svg">
<g clip-path="url(#clip0_199_169)">
<path d="M0.337686 17.8707C0.295875 18.2047 0.572273 18.4989 0.930099 18.4989L2.12161 18.5012C2.42358 18.5012 2.6869 18.2961 2.72406 18.015C2.75194 17.8436 2.79352 17.6223 2.85392 17.3762H14.4495C14.5098 17.6179 14.5574 17.8441 14.5806 18.0153C14.6224 18.2649 14.872 18.5054 15.1741 18.5012L16.3805 18.499C16.7382 18.499 17.0168 18.2046 16.9748 17.8707C16.8029 16.5394 16.0178 13.3672 12.5484 10.5688C11.898 11.0037 11.174 11.4255 10.375 11.8165C10.6073 11.9791 10.8046 12.1471 11.009 12.3139H6.26853C7.05829 11.6769 8.01641 11.0613 9.19157 10.5076C15.5877 7.50176 16.7621 2.81543 16.9777 1.13144C17.0195 0.79746 16.7436 0.50285 16.386 0.50285L15.1845 0.500038C14.8825 0.500038 14.6329 0.705069 14.5913 0.986249C14.5634 1.15764 14.5218 1.37894 14.4661 1.62504H2.85082C2.79507 1.37891 2.75196 1.16129 2.72409 0.98551C2.68246 0.704366 2.43234 0.495643 2.13056 0.500038L0.931612 0.504706C0.573897 0.504706 0.296459 0.798402 0.338455 1.13225C0.528927 2.63939 1.50135 6.53928 6.28117 9.50295C1.50581 12.4637 0.528184 16.3625 0.337686 17.8707ZM8.65454 8.22383C7.72169 7.73867 6.93379 7.22539 6.26853 6.6875H11.0443C10.3827 7.22539 9.58738 7.74571 8.65454 8.22383ZM13.5306 3.875C13.3123 4.23957 13.0519 4.6175 12.7501 4.96836H4.53663C4.23002 4.58621 3.96801 4.20793 3.75431 3.84336L13.5306 3.875ZM3.78961 15.0934C4.00796 14.7288 4.2631 14.3505 4.56525 13.9684H12.7193C13.0306 14.3505 13.2946 14.7288 13.5083 15.0934H3.78961Z" fill="#002140" fill-opacity="0.8"/>
</g>
<defs>
<clipPath id="clip0_199_169">
<rect width="16.65" height="18" fill="white" transform="translate(0.333252 0.5)"/>
</clipPath>
</defs>
</svg>
