<svg width="20" height="20" viewBox="0 0 30 30" fill="none" xmlns="http://www.w3.org/2000/svg">
<g clip-path="url(#clip0_384_187)">
<path d="M15.0067 8.26172C10.7478 8.26172 7.31252 11.2676 7.31252 14.9941C7.31252 18.7207 10.7478 21.7266 15.0067 21.7266C19.2656 21.7266 22.7009 18.7207 22.7009 14.9941C22.7009 11.2676 19.2656 8.26172 15.0067 8.26172ZM15.0067 19.3711C12.2545 19.3711 10.0045 17.4082 10.0045 14.9941C10.0045 12.5801 12.2478 10.6172 15.0067 10.6172C17.7656 10.6172 20.0089 12.5801 20.0089 14.9941C20.0089 17.4082 17.7589 19.3711 15.0067 19.3711ZM24.8103 7.98633C24.8103 8.85937 24.0067 9.55664 23.0156 9.55664C22.0179 9.55664 21.221 8.85352 21.221 7.98633C21.221 7.11914 22.0246 6.41602 23.0156 6.41602C24.0067 6.41602 24.8103 7.11914 24.8103 7.98633ZM29.9063 9.58008C29.7924 7.47656 29.2433 5.61328 27.4822 4.07812C25.7277 2.54297 23.5982 2.0625 21.1942 1.95703C18.7165 1.83398 11.2902 1.83398 8.81252 1.95703C6.4152 2.05664 4.28573 2.53711 2.52457 4.07227C0.76341 5.60742 0.221 7.4707 0.100464 9.57422C-0.0401611 11.7422 -0.0401611 18.2402 0.100464 20.4082C0.214303 22.5117 0.76341 24.375 2.52457 25.9102C4.28573 27.4453 6.4085 27.9258 8.81252 28.0312C11.2902 28.1543 18.7165 28.1543 21.1942 28.0312C23.5982 27.9316 25.7277 27.4512 27.4822 25.9102C29.2366 24.375 29.7857 22.5117 29.9063 20.4082C30.0469 18.2402 30.0469 11.748 29.9063 9.58008ZM26.7054 22.7344C26.1831 23.8828 25.1719 24.7676 23.8527 25.2305C21.8773 25.916 17.1897 25.7578 15.0067 25.7578C12.8237 25.7578 8.12948 25.9102 6.16073 25.2305C4.84823 24.7734 3.83707 23.8887 3.30805 22.7344C2.52457 21.0059 2.70537 16.9043 2.70537 14.9941C2.70537 13.084 2.53127 8.97656 3.30805 7.25391C3.83037 6.10547 4.84153 5.2207 6.16073 4.75781C8.13618 4.07227 12.8237 4.23047 15.0067 4.23047C17.1897 4.23047 21.8839 4.07812 23.8527 4.75781C25.1652 5.21484 26.1764 6.09961 26.7054 7.25391C27.4889 8.98242 27.3081 13.084 27.3081 14.9941C27.3081 16.9043 27.4889 21.0117 26.7054 22.7344Z" fill="white"/>
</g>
<defs>
<clipPath id="clip0_384_187">
<rect width="30" height="30" fill="white"/>
</clipPath>
</defs>
</svg>
