<svg width="33" height="34" viewBox="0 0 33 34" fill="none" xmlns="http://www.w3.org/2000/svg">
<ellipse cx="16.4416" cy="17" rx="16.4416" ry="17" fill="#F3F7FD"/>
<g clip-path="url(#clip0_173_79)">
<path d="M19.9978 9.80176C19.1661 10.4785 18.4107 11.1904 17.7437 11.9059C16.6469 10.5882 15.2848 9.24805 13.75 8C9.80246 11.2034 7 15.3828 7 17.9C7 22.3754 11.0259 26 16 26C20.9741 26 25 22.3754 25 17.9C25 16.0297 22.9107 12.166 19.9978 9.80176ZM19.2183 21.7777C18.3464 22.3086 17.2777 22.625 16.1165 22.625C13.2184 22.625 10.8571 20.947 10.8571 18.2234C10.8571 16.8654 11.8311 15.6697 13.7797 13.625C14.061 13.9062 17.7526 18.0336 17.7526 18.0336L20.1083 15.6823C20.274 15.9196 20.4243 16.1577 20.5599 16.382C21.6612 18.2164 21.1991 20.5648 19.2183 21.7777Z" fill="#FF785B"/>
</g>
<defs>
<clipPath id="clip0_173_79">
<rect width="18" height="18" fill="white" transform="translate(7 8)"/>
</clipPath>
</defs>
</svg>
