<svg width="33" height="34" viewBox="0 0 33 34" fill="none" xmlns="http://www.w3.org/2000/svg">
<ellipse cx="16.4416" cy="17" rx="16.4416" ry="17" fill="#F3F7FD"/>
<path d="M9.51415 20.375C8.56772 20.375 7.79987 21.1309 7.79987 22.0625C7.79987 22.9941 8.56772 23.75 9.51415 23.75C10.4606 23.75 11.2284 22.9941 11.2284 22.0625C11.2284 21.1309 10.4606 20.375 9.51415 20.375ZM24.3713 20.375C23.4249 20.375 22.657 21.1309 22.657 22.0625C22.657 22.9941 23.4249 23.75 24.3713 23.75C25.3177 23.75 26.0856 22.9941 26.0856 22.0625C26.0856 21.1309 25.3177 20.375 24.3713 20.375ZM20.1213 20.7652C20.2865 20.2555 20.1793 19.6796 19.7731 19.2757C19.3624 18.8714 18.7777 18.7701 18.2599 18.9285C18.0099 18.4539 17.5231 18.1199 16.9427 18.1199C16.3624 18.1199 15.8756 18.4539 15.6256 18.9285C15.107 18.7648 14.5213 18.8703 14.1142 19.2781C13.7034 19.6824 13.6006 20.2579 13.7615 20.7677C13.2793 21.0138 12.94 21.493 12.94 22.0643C12.94 22.6355 13.2793 23.1147 13.7615 23.3608C13.5963 23.8706 13.7034 24.4464 14.1142 24.8504C14.4088 25.136 14.7927 25.2811 15.1767 25.2811C15.3284 25.2811 15.4802 25.2415 15.6274 25.1932C15.8749 25.666 16.3642 26 16.9427 26C17.5213 26 18.0099 25.666 18.2599 25.1914C18.4072 25.2354 18.559 25.2793 18.7106 25.2793C19.0945 25.2793 19.4784 25.1343 19.7731 24.8486C20.1838 24.4443 20.2867 23.8688 20.1213 23.3591C20.6034 23.1137 20.9427 22.632 20.9427 22.0625C20.9427 21.493 20.6034 21.0113 20.1213 20.7652ZM26.0856 15.875C26.0856 14.0117 24.5499 12.5 22.657 12.5C22.6347 12.5 22.6168 12.5088 22.599 12.5088C22.6392 12.3242 22.657 12.1344 22.657 11.9375C22.657 10.3818 21.3784 9.125 19.7999 9.125C18.9206 9.125 18.1481 9.52051 17.6213 10.1357C16.957 8.87012 15.6284 8 14.0856 8C11.8749 8 10.0856 9.76203 10.0856 11.9375C10.0856 12.1924 10.1124 12.4385 10.1615 12.6846C8.79094 13.1258 7.79987 14.3809 7.79987 15.875C7.79987 17.7383 9.33558 19.25 11.2284 19.25H12.7777C12.907 18.9688 13.0784 18.7086 13.307 18.4836C13.7927 18.0125 14.4356 17.7418 15.1213 17.7348C15.6034 17.2742 16.257 17 16.9427 17C17.6284 17 18.282 17.2725 18.7642 17.7341C19.4517 17.7429 20.0945 18.0109 20.5767 18.4854C20.807 18.7086 20.982 18.9688 21.107 19.25H22.657C24.5499 19.25 26.0856 17.7383 26.0856 15.875Z" fill="#FFB703"/>
</svg>
