<svg width="168" height="49" viewBox="0 0 168 49" fill="none" xmlns="http://www.w3.org/2000/svg">
<path d="M76.08 36H70.608L61.456 22.144V36H55.984V13.536H61.456L70.608 27.456V13.536H76.08V36ZM97.6785 18.144V36H92.2065V33.568C91.6518 34.3573 90.8945 34.9973 89.9345 35.488C88.9958 35.9573 87.9505 36.192 86.7985 36.192C85.4332 36.192 84.2278 35.8933 83.1825 35.296C82.1372 34.6773 81.3265 33.792 80.7505 32.64C80.1745 31.488 79.8865 30.1333 79.8865 28.576V18.144H85.3265V27.84C85.3265 29.0347 85.6358 29.9627 86.2545 30.624C86.8732 31.2853 87.7052 31.616 88.7505 31.616C89.8172 31.616 90.6598 31.2853 91.2785 30.624C91.8972 29.9627 92.2065 29.0347 92.2065 27.84V18.144H97.6785ZM111.561 31.36V36H108.777C106.793 36 105.246 35.52 104.137 34.56C103.028 33.5787 102.473 31.9893 102.473 29.792V22.688H100.297V18.144H102.473V13.792H107.945V18.144H111.529V22.688H107.945V29.856C107.945 30.3893 108.073 30.7733 108.329 31.008C108.585 31.2427 109.012 31.36 109.609 31.36H111.561ZM120.081 21.12C120.721 20.1387 121.521 19.3707 122.481 18.816C123.441 18.24 124.508 17.952 125.681 17.952V23.744H124.177C122.812 23.744 121.788 24.0427 121.105 24.64C120.422 25.216 120.081 26.24 120.081 27.712V36H114.609V18.144H120.081V21.12ZM131.049 16.288C130.089 16.288 129.299 16.0107 128.681 15.456C128.083 14.88 127.785 14.176 127.785 13.344C127.785 12.4907 128.083 11.7867 128.681 11.232C129.299 10.656 130.089 10.368 131.049 10.368C131.987 10.368 132.755 10.656 133.353 11.232C133.971 11.7867 134.281 12.4907 134.281 13.344C134.281 14.176 133.971 14.88 133.353 15.456C132.755 16.0107 131.987 16.288 131.049 16.288ZM133.769 18.144V36H128.297V18.144H133.769ZM146.694 22.688H143.75V36H138.278V22.688H136.294V18.144H138.278V17.632C138.278 15.4347 138.907 13.7707 140.166 12.64C141.425 11.488 143.27 10.912 145.702 10.912C146.107 10.912 146.406 10.9227 146.598 10.944V15.584C145.553 15.52 144.817 15.6693 144.39 16.032C143.963 16.3947 143.75 17.0453 143.75 17.984V18.144H146.694V22.688ZM167.505 18.144L156.305 44.48H150.417L154.513 35.392L147.249 18.144H153.361L157.489 29.312L161.585 18.144H167.505Z" fill="white"/>
<path d="M19.8814 14.8608C18.4347 11.3825 17.2189 6.71427 19.9752 3.20682C22.4804 0.0180086 27.5405 -0.871866 31.8116 0.894686C29.816 2.06008 28.7361 6.1889 26.7028 8.67629C22.8405 13.4001 20.5685 13.3962 19.8814 14.8608Z" fill="#5B8F31"/>
<path d="M24.7932 3.49015C23.5124 4.54596 21.4144 6.25734 20.5945 9.06144C19.8794 11.5061 19.8268 13.5835 19.8576 14.8021C19.8657 14.8216 19.8735 14.8418 19.8817 14.8608C20.5688 13.3966 22.8404 13.4001 26.7031 8.67595C28.7364 6.18894 29.816 2.06013 31.8119 0.894734C31.7913 0.886185 31.7703 0.878405 31.7492 0.870245C29.1086 0.560924 25.9981 2.4969 24.7932 3.49015Z" fill="#FB8500"/>
<path d="M20.5946 9.06111C21.4148 6.25701 23.5124 4.54563 24.7932 3.48982C25.9981 2.49657 29.1082 0.560593 31.7489 0.869914C27.4915 -0.862441 22.4683 0.0332698 19.9752 3.20653C17.2345 6.69456 18.4215 11.3297 19.8576 14.8018C19.8269 13.5832 19.8794 11.5058 20.5946 9.06111Z" fill="#FB8500"/>
<path d="M19.946 16.4127C19.7342 14.8568 19.6727 13.2701 19.8596 11.6952C20.0426 10.1225 20.5132 8.57046 21.2821 7.17075C22.072 5.78307 23.1566 4.57027 24.4234 3.6155C25.6902 2.65722 27.1045 1.92317 28.5718 1.35815C28.2249 1.54507 27.8777 1.72887 27.5292 1.90763C27.175 2.07589 26.8538 2.30516 26.5163 2.50218C26.3501 2.60477 26.178 2.69764 26.0152 2.80567L25.5368 3.14257L25.0587 3.47872C24.9026 3.59491 24.7586 3.72624 24.6083 3.84943C23.4069 4.83141 22.3585 6.00303 21.62 7.35961C20.8484 8.69832 20.3953 10.2022 20.1535 11.7356C20.0974 12.1199 20.0577 12.5073 20.0091 12.894L19.9409 14.0625L19.9207 15.236C19.9332 15.6273 19.9413 16.0194 19.946 16.4127Z" fill="#6A461E"/>
<path d="M29.8565 10.8152C25.1922 10.8152 21.2606 13.9364 20.0367 18.1996C18.8127 13.9364 14.8811 10.8152 10.2169 10.8152C4.57431 10.8152 0 15.3812 0 21.0135C0 30.1423 7.9959 37.0045 13.8857 40.8217C13.6389 40.0787 13.1791 39.0726 12.9533 38.4431C11.9037 35.5154 11.5413 33.7524 11.646 31.6695H11.6472L11.7375 21.1168C11.7394 20.8876 11.9263 20.7026 12.156 20.7026C12.388 20.7026 12.5761 20.8914 12.5745 21.1231L12.8034 31.8269C13.0214 31.898 13.3317 31.9369 13.6801 31.7977L13.8833 21.1188C13.8841 20.8887 14.0714 20.7026 14.3018 20.7026C14.5331 20.7026 14.7207 20.8899 14.7203 21.1211L14.8694 31.7958C15.0754 31.8716 15.4176 31.9248 15.8945 31.7725L16.0284 21.1211C16.028 20.8903 16.2153 20.7026 16.4469 20.7026C16.6774 20.7026 16.8646 20.8887 16.8654 21.1188L17.053 31.7608C17.2598 31.8125 17.5735 31.8525 17.9465 31.7841L18.1746 21.1234C18.1731 20.8918 18.3607 20.703 18.5931 20.703C18.8228 20.703 19.0097 20.8879 19.0116 21.1172L19.1043 31.9711H19.1016C19.1884 34.7806 19.1946 36.218 18.1945 38.2235C17.7156 39.1834 16.8623 41.0576 16.8623 41.553C16.8623 41.6506 16.8619 42.0465 16.8607 42.6162C18.7636 43.6806 20.0363 44.2382 20.0363 44.2382C20.0363 44.2382 21.3611 43.6942 23.3271 42.6329C22.2502 40.9437 20.5287 39.5296 20.8456 35.6332C21.5001 27.5865 22.3943 20.9587 25.1751 20.4947C25.3915 20.4586 25.5909 20.6183 25.5909 20.837V41.3339C31.5207 37.7234 40.073 30.8173 40.073 21.0139C40.0733 15.3812 35.499 10.8152 29.8565 10.8152Z" fill="#FB8500"/>
</svg>
