<svg width="168" height="49" viewBox="0 0 168 49" fill="none" xmlns="http://www.w3.org/2000/svg">
<path d="M76.08 36H70.608L61.456 22.144V36H55.984V13.536H61.456L70.608 27.456V13.536H76.08V36ZM97.6785 18.144V36H92.2065V33.568C91.6518 34.3573 90.8945 34.9973 89.9345 35.488C88.9958 35.9573 87.9505 36.192 86.7985 36.192C85.4332 36.192 84.2278 35.8933 83.1825 35.296C82.1372 34.6773 81.3265 33.792 80.7505 32.64C80.1745 31.488 79.8865 30.1333 79.8865 28.576V18.144H85.3265V27.84C85.3265 29.0347 85.6358 29.9627 86.2545 30.624C86.8732 31.2853 87.7052 31.616 88.7505 31.616C89.8172 31.616 90.6598 31.2853 91.2785 30.624C91.8972 29.9627 92.2065 29.0347 92.2065 27.84V18.144H97.6785ZM111.561 31.36V36H108.777C106.793 36 105.246 35.52 104.137 34.56C103.028 33.5787 102.473 31.9893 102.473 29.792V22.688H100.297V18.144H102.473V13.792H107.945V18.144H111.529V22.688H107.945V29.856C107.945 30.3893 108.073 30.7733 108.329 31.008C108.585 31.2427 109.012 31.36 109.609 31.36H111.561ZM120.081 21.12C120.721 20.1387 121.521 19.3707 122.481 18.816C123.441 18.24 124.508 17.952 125.681 17.952V23.744H124.177C122.812 23.744 121.788 24.0427 121.105 24.64C120.422 25.216 120.081 26.24 120.081 27.712V36H114.609V18.144H120.081V21.12ZM131.049 16.288C130.089 16.288 129.299 16.0107 128.681 15.456C128.083 14.88 127.785 14.176 127.785 13.344C127.785 12.4907 128.083 11.7867 128.681 11.232C129.299 10.656 130.089 10.368 131.049 10.368C131.987 10.368 132.755 10.656 133.353 11.232C133.971 11.7867 134.281 12.4907 134.281 13.344C134.281 14.176 133.971 14.88 133.353 15.456C132.755 16.0107 131.987 16.288 131.049 16.288ZM133.769 18.144V36H128.297V18.144H133.769ZM146.694 22.688H143.75V36H138.278V22.688H136.294V18.144H138.278V17.632C138.278 15.4347 138.907 13.7707 140.166 12.64C141.425 11.488 143.27 10.912 145.702 10.912C146.107 10.912 146.406 10.9227 146.598 10.944V15.584C145.553 15.52 144.817 15.6693 144.39 16.032C143.963 16.3947 143.75 17.0453 143.75 17.984V18.144H146.694V22.688ZM167.505 18.144L156.305 44.48H150.417L154.513 35.392L147.249 18.144H153.361L157.489 29.312L161.585 18.144H167.505Z" fill="#002140"/>
<path d="M19.8452 14.8608C18.4012 11.3825 17.1876 6.71427 19.9389 3.20682C22.4395 0.0180086 27.4904 -0.871866 31.7537 0.894686C29.7618 2.06008 28.6838 6.1889 26.6542 8.67629C22.7989 13.4001 20.5311 13.3962 19.8452 14.8608Z" fill="#5B8F31"/>
<path d="M24.7481 3.49015C23.4696 4.54596 21.3755 6.25734 20.5571 9.06144C19.8433 11.5061 19.7908 13.5835 19.8215 14.8021C19.8297 14.8216 19.8374 14.8418 19.8456 14.8608C20.5315 13.3966 22.7989 13.4001 26.6545 8.67595C28.6842 6.18894 29.7617 2.06013 31.7541 0.894734C31.7335 0.886185 31.7125 0.878405 31.6915 0.870245C29.0557 0.560924 25.9508 2.4969 24.7481 3.49015Z" fill="#FB8500"/>
<path d="M20.5571 9.06111C21.3759 6.25701 23.4696 4.54563 24.7481 3.48982C25.9508 2.49657 29.0553 0.560593 31.6911 0.869914C27.4415 -0.862441 22.4274 0.0332698 19.9389 3.20653C17.2032 6.69456 18.388 11.3297 19.8215 14.8018C19.7908 13.5832 19.8433 11.5058 20.5571 9.06111Z" fill="#FB8500"/>
<path d="M19.9097 16.4128C19.6983 14.8569 19.6369 13.2703 19.8234 11.6953C20.0061 10.1226 20.4759 8.57059 21.2434 7.17087C22.0318 5.7832 23.1144 4.5704 24.3789 3.61562C25.6434 2.65734 27.0552 1.92329 28.5198 1.35828C28.1736 1.54519 27.8269 1.729 27.4791 1.90775C27.1255 2.07601 26.8049 2.30528 26.468 2.5023C26.3021 2.60489 26.1303 2.69776 25.9679 2.80579L25.4903 3.1427L25.0131 3.47884C24.8573 3.59503 24.7135 3.72636 24.5635 3.84955C23.3643 4.83153 22.3178 6.00315 21.5807 7.35973C20.8105 8.69844 20.3581 10.2023 20.1168 11.7357C20.0609 12.12 20.0212 12.5074 19.9727 12.8941L19.9046 14.0626L19.8844 15.2362C19.8969 15.6275 19.905 16.0196 19.9097 16.4128Z" fill="#6A461E"/>
<path d="M29.8021 10.8152C25.1463 10.8152 21.2219 13.9364 20.0002 18.1996C18.7784 13.9364 14.854 10.8152 10.1983 10.8152C4.56598 10.8152 0 15.3812 0 21.0135C0 30.1423 7.98135 37.0045 13.8604 40.8217C13.614 40.0787 13.1551 39.0726 12.9297 38.4431C11.8821 35.5154 11.5203 33.7524 11.6248 31.6695H11.626L11.7161 21.1168C11.7181 20.8876 11.9046 20.7026 12.1339 20.7026C12.3655 20.7026 12.5532 20.8914 12.5516 21.1231L12.7801 31.8269C12.9977 31.898 13.3074 31.9369 13.6552 31.7977L13.8581 21.1188C13.8588 20.8887 14.0458 20.7026 14.2758 20.7026C14.5066 20.7026 14.6939 20.8899 14.6935 21.1211L14.8424 31.7958C15.0479 31.8716 15.3895 31.9248 15.8655 31.7725L15.9992 21.1211C15.9988 20.8903 16.1857 20.7026 16.417 20.7026C16.647 20.7026 16.8339 20.8887 16.8347 21.1188L17.022 31.7608C17.2283 31.8125 17.5416 31.8525 17.9138 31.7841L18.1415 21.1234C18.14 20.8918 18.3273 20.703 18.5593 20.703C18.7885 20.703 18.9751 20.8879 18.977 21.1172L19.0695 31.9711H19.0668C19.1534 34.7806 19.1597 36.218 18.1614 38.2235C17.6834 39.1834 16.8316 41.0576 16.8316 41.553C16.8316 41.6506 16.8312 42.0465 16.83 42.6162C18.7295 43.6806 19.9998 44.2382 19.9998 44.2382C19.9998 44.2382 21.3222 43.6942 23.2846 42.6329C22.2097 40.9437 20.4914 39.5296 20.8077 35.6332C21.4609 27.5865 22.3535 20.9587 25.1293 20.4947C25.3453 20.4586 25.5443 20.6183 25.5443 20.837V41.3339C31.4633 37.7234 40 30.8173 40 21.0139C40.0004 15.3812 35.4344 10.8152 29.8021 10.8152Z" fill="#FB8500"/>
</svg>
