<svg width="33" height="34" viewBox="0 0 33 34" fill="none" xmlns="http://www.w3.org/2000/svg">
<ellipse cx="16.4416" cy="17" rx="16.4416" ry="17" fill="#F3F7FD"/>
<g clip-path="url(#clip0_173_98)">
<path d="M8.00443 25.3707C7.96262 25.7047 8.23902 25.9989 8.59685 25.9989L9.78836 26.0011C10.0903 26.0011 10.3536 25.7961 10.3908 25.5149C10.4187 25.3436 10.4603 25.1222 10.5207 24.8762H22.1162C22.1766 25.1178 22.2241 25.3441 22.2474 25.5153C22.2892 25.7649 22.5387 26.0054 22.8409 26.0011L24.0473 25.999C24.405 25.999 24.6835 25.7046 24.6415 25.3707C24.4697 24.0393 23.6845 20.8672 20.2152 18.0688C19.5648 18.5036 18.8408 18.9255 18.0417 19.3165C18.274 19.479 18.4714 19.6471 18.6758 19.8139H13.9353C14.725 19.1769 15.6832 18.5613 16.8583 18.0076C23.2544 15.0017 24.4289 10.3154 24.6444 8.63141C24.6862 8.29743 24.4104 8.00282 24.0528 8.00282L22.8512 8.00001C22.5492 8.00001 22.2997 8.20504 22.258 8.48622C22.2302 8.6576 22.1886 8.87891 22.1328 9.12501H10.5176C10.4618 8.87888 10.4187 8.66126 10.3908 8.48548C10.3492 8.20434 10.0991 7.99561 9.79731 8.00001L8.59836 8.00468C8.24064 8.00468 7.96321 8.29837 8.0052 8.63221C8.19568 10.1394 9.1681 14.0392 13.9479 17.0029C9.17256 19.9636 8.19493 23.8625 8.00443 25.3707ZM16.3213 15.7238C15.3884 15.2386 14.6005 14.7254 13.9353 14.1875H18.711C18.0495 14.7254 17.2541 15.2457 16.3213 15.7238ZM21.1974 11.375C20.979 11.7395 20.7187 12.1175 20.4169 12.4683H12.2034C11.8968 12.0862 11.6348 11.7079 11.4211 11.3433L21.1974 11.375ZM11.4564 22.5933C11.6747 22.2288 11.9298 21.8505 12.232 21.4683H20.386C20.6973 21.8505 20.9614 22.2288 21.1751 22.5933H11.4564Z" fill="#002140" fill-opacity="0.8"/>
</g>
<defs>
<clipPath id="clip0_173_98">
<rect width="16.65" height="18" fill="white" transform="translate(8 8)"/>
</clipPath>
</defs>
</svg>
