<svg width="20" height="20" viewBox="0 0 20 20" fill="none" xmlns="http://www.w3.org/2000/svg">
<path d="M7.14286 2.14286C7.14286 0.959375 8.10268 0 9.28571 0H10.7143C11.8973 0 12.8571 0.959375 12.8571 2.14286V17.8571C12.8571 19.0402 11.8973 20 10.7143 20H9.28571C8.10268 20 7.14286 19.0402 7.14286 17.8571V2.14286ZM0 10.7143C0 9.53125 0.959375 8.57143 2.14286 8.57143H3.57143C4.75446 8.57143 5.71429 9.53125 5.71429 10.7143V17.8571C5.71429 19.0402 4.75446 20 3.57143 20H2.14286C0.959375 20 0 19.0402 0 17.8571V10.7143ZM17.8571 2.85714C19.0402 2.85714 20 3.81696 20 5V17.8571C20 19.0402 19.0402 20 17.8571 20H16.4286C15.2455 20 14.2857 19.0402 14.2857 17.8571V5C14.2857 3.81696 15.2455 2.85714 16.4286 2.85714H17.8571Z" fill="#002140" fill-opacity="0.8"/>
</svg>
