<svg width="18" height="19" viewBox="0 0 18 19" fill="none" xmlns="http://www.w3.org/2000/svg">
<g clip-path="url(#clip0_1_240)">
<path d="M14.6285 5.00352C14.3297 5.36211 13.7953 5.36211 13.4648 5.00352C13.1379 4.70469 13.1379 4.17031 13.4648 3.8409L16.5586 0.747113C16.8891 0.417629 17.4234 0.417629 17.7223 0.747113C18.0809 1.07656 18.0809 1.61094 17.7223 1.94035L14.6285 5.00352ZM11.1375 1.85809C11.2957 2.01699 11.4398 2.18539 11.5699 2.36082L13.1836 0.747113C13.5141 0.417629 14.0484 0.417629 14.3473 0.747113C14.7059 1.07656 14.7059 1.61094 14.3473 1.94035L12.3293 3.9875C12.5121 4.74336 12.4945 5.53438 12.2801 6.2832C12.9937 6.0793 13.7496 6.02305 14.4738 6.20937L16.5586 4.12109C16.8891 3.79273 17.4234 3.79273 17.7223 4.12109C18.0809 4.45156 18.0809 4.98594 17.7223 5.28477L16.1297 6.93711C16.3301 7.08125 16.5234 7.24648 16.7063 7.42578L17.1035 7.82305C17.3215 8.04453 17.3215 8.39961 17.1035 8.58945L16.7063 9.01836C15.3879 10.3367 13.2504 10.3367 11.932 9.01836L11.5031 8.58945L10.3816 9.6793C11.3836 9.80586 12.3574 10.2383 13.1273 11.0047L13.5246 11.4055C13.7426 11.6234 13.7426 11.9785 13.5246 12.2L13.1273 12.5973C11.809 13.9156 9.67148 13.9156 8.35313 12.5973L7.92422 12.1684L6.80273 13.2898C7.77305 13.3848 8.77852 13.8172 9.54492 14.5871L9.94219 14.9527C10.1637 15.2023 10.1637 15.5609 9.94219 15.7789L9.54492 16.1762C8.22656 17.4945 6.09258 17.4945 4.77422 16.1762L4.3418 15.7473L1.92059 18.1695C1.48113 18.609 0.768867 18.609 0.329484 18.1695C-0.109828 17.7301 -0.109828 17.0199 0.329484 16.5805L2.75238 14.1582L2.38641 13.7891C1.0684 12.4742 1.0684 10.3367 2.38641 9.01836L2.78437 8.58945C3.00375 8.39961 3.35988 8.39961 3.57891 8.58945L3.97617 9.01836C4.71445 9.75664 5.14336 10.6848 5.26289 11.648L6.33164 10.5758L5.96602 10.2102C4.64766 8.8918 4.64766 6.7543 5.96602 5.43945L6.36328 5.03867C6.58477 4.8207 6.93984 4.8207 7.15781 5.03867L7.52695 5.43945C8.26523 6.17422 8.72227 7.10586 8.8418 8.06914L9.91055 6.99688L9.54492 6.63125C8.22656 5.31289 8.22656 3.17609 9.54492 1.85809L9.94219 1.46012C10.1637 1.24074 10.5188 1.24074 10.7402 1.46012L11.1375 1.85809Z" fill="#FD9413"/>
</g>
<defs>
<clipPath id="clip0_1_240">
<rect width="18" height="18" fill="white" transform="translate(0 0.5)"/>
</clipPath>
</defs>
</svg>
