<svg width="80" height="73" viewBox="0 0 80 73" fill="none" xmlns="http://www.w3.org/2000/svg">
<path d="M78.447 13.9999C75.8521 9.88337 68.9534 8.60262 64.4934 8.17332C58.0042 7.54869 51.6608 7.33314 45.0067 7.33438C37.5633 7.33575 30.035 8.18226 23.0708 10.8561C15.3105 13.8354 15.1213 20.1115 15.2086 20.7757C15.3413 21.7848 15.5168 22.4143 15.7021 23.4305L16.5405 26.784C16.5262 26.6707 16.5272 26.5713 16.5223 26.474C21.115 47.5436 47.1899 45.8038 62.9208 39.8594C68.7851 37.6433 74.563 34.475 77.411 28.662C78.5225 26.3932 79.2952 23.28 79.6555 20.7459C79.7631 19.9894 80.0008 19.1553 79.9638 18.3979C79.8855 16.7938 79.2685 15.3031 78.447 13.9999Z" fill="#BC5937"/>
<path d="M77.2652 18.7066C77.2865 17.1696 75.8125 16.2482 74.4109 16.1954C75.0037 13.0537 70.8523 14.9276 70.2279 13.0351C69.756 11.6047 71.5693 11.665 70.5705 10.1762C69.9634 9.27137 68.8082 9.01802 68.1819 8.17661C67.3765 7.09477 67.5404 6.70974 66.0023 6.32896C64.9376 6.06544 63.967 6.62011 63.4798 5.32177C63.065 4.21629 63.8783 3.32291 62.9426 2.12794C62.3234 1.33725 61.2429 0.79633 60.3391 0.422567C58.9357 -0.157667 57.9354 -0.199043 56.6504 0.669589C55.3813 1.5275 54.5208 2.85375 52.7567 2.1777C51.4582 1.68008 51.1943 0.609242 49.571 0.628074C48.1628 0.644433 47.3844 1.37986 46.0878 1.42852C45.5441 1.44887 44.9932 1.01655 44.3279 1.42042C43.7975 1.74235 43.9456 2.71079 43.3714 2.94172C42.5587 3.26861 41.4393 2.03625 40.3493 1.96889C37.1042 1.76806 34.9047 4.52475 33.4376 6.97807C30.4677 6.16139 27.8967 6.51564 25.9677 9.51331C25.0235 10.9806 25.512 11.5071 25.6404 13.0348C25.8233 15.2109 25.3153 14.5021 23.9217 14.7076C23.152 14.8212 21.1074 15.0157 20.5651 15.5504C20.0334 16.0747 20.5962 16.7263 20.2373 17.2346C19.8728 17.7507 19.5109 17.6114 19.0593 17.9011C17.8837 18.6553 17.1791 18.6251 17.0434 20.4122C16.9648 21.4491 17.0761 23.0364 17.7141 23.7657L19.0555 26.7837C19.2373 29.9342 22.8261 33.9112 25.4275 35.3765C27.9616 36.8041 31.034 37.4431 33.8687 37.9801C39.5659 39.0593 45.7973 39.9396 51.5829 39.1657C57.7964 38.3346 64.9618 36.0564 70.4542 32.982C73.9943 31.0004 76.4836 28.8568 77.865 24.9773C78.4666 23.2873 79.9001 19.4301 77.2652 18.7066Z" fill="#E5E5B7"/>
<path d="M79.9638 18.3979C79.2657 20.3388 77.8643 21.5691 76.561 22.7746C74.8409 24.3654 73.0564 25.541 70.9319 26.6062C65.4891 29.3353 59.2002 30.2898 53.2453 30.806C45.1855 31.5047 37.2305 31.0165 29.6499 28.519C24.4563 26.808 19.3498 24.2649 15.2086 20.7756C14.8029 25.2281 15.5097 29.0117 15.9728 31.9553C16.9695 38.2906 19.5495 45.4732 24.1521 49.9618C25.2143 50.9977 26.2957 51.8933 27.4061 52.6696C28.1009 65.7304 48.8724 63.5354 55.9868 63.2594C61.0242 63.064 65.6519 60.5383 67.1978 58.2037C68.217 56.1783 68.3359 54.363 68.2203 52.6068C71.5676 50.2137 74.3643 47.0751 76.211 43.3585C79.065 37.6147 78.9305 31.5435 79.7227 25.341C79.994 23.215 80.0472 20.605 79.9638 18.3979Z" fill="#F37745"/>
<path d="M76.2109 43.3588C79.0648 37.615 78.9303 31.5438 79.7225 25.3413C79.994 23.2151 80.0474 20.605 79.9638 18.3979C78.5071 20.7237 77.7846 21.7377 76.4813 22.9431C74.7612 24.534 73.0564 25.5411 70.9319 26.6065C70.096 27.0256 69.2401 27.4025 68.3686 27.7428C67.9664 29.4682 67.626 31.1971 67.222 32.8161C65.3247 40.4197 61.0162 48.3039 53.5577 51.5615C52.4583 52.0416 46.2746 52.4887 46.8385 53.996C47.1017 54.6995 49.0548 54.8859 49.5332 55.8283C50.0402 56.8273 49.7805 58.7334 49.5804 59.8145C49.3908 60.8379 48.7271 62.2243 49.0763 63.37C51.846 63.4196 54.2989 63.3252 55.987 63.2598C61.0243 63.0644 65.652 60.5387 67.198 58.2041C68.2171 56.1787 68.336 54.3634 68.2204 52.6072C71.5676 50.2138 74.3642 47.0754 76.2109 43.3588Z" fill="#E06A41"/>
<path d="M16.0071 26.5682C16.5517 26.5183 17.1445 26.5078 17.6417 26.7719C18.0333 26.98 18.3135 27.3204 18.5506 27.6874C19.2232 28.7288 19.6876 29.8597 20.7328 30.6053C22.7724 32.0601 25.3641 30.4419 27.4679 31.6533C28.0475 31.9871 28.5524 32.4662 29.0575 32.9006C29.5444 33.3194 30.0259 33.7446 30.526 34.1478C31.4623 34.9027 32.4674 35.5863 33.6277 35.9434C34.9951 36.3642 36.4099 36.2306 37.7819 35.9043C38.999 35.6146 40.1951 35.0799 41.449 34.9705C42.078 34.9156 42.693 34.9894 43.2903 35.195C44.0453 35.4548 44.7117 35.9194 45.4257 36.2692C46.8143 36.9498 48.3119 37.4421 49.8686 37.4877C51.465 37.5344 53.0233 37.0742 54.404 36.2881C55.5391 35.6417 56.734 34.971 58.0422 34.763C59.0704 34.5996 60.1013 34.8231 61.0927 35.0857C62.3281 35.4128 63.5908 35.9561 64.8933 35.7935C66.8869 35.5445 67.8531 33.7427 69.1344 32.4365C69.8293 31.728 70.6548 31.1515 71.6506 30.9829C72.4848 30.8418 73.3144 31.0398 74.1481 31.0636C75.0034 31.0881 75.7794 30.81 76.3562 30.1613C76.785 29.6791 77.0985 29.0975 77.3446 28.5043C77.5454 28.0202 77.6 27.4949 77.7695 27.001C77.9193 26.5643 78.1667 26.4105 78.6278 26.4425C78.6278 26.1712 78.6278 25.8998 78.6278 25.6285C78.3207 25.6654 78.0687 25.7953 77.837 25.9992C77.4429 26.3459 78.0203 26.9197 78.4125 26.5748C78.4634 26.5301 78.558 26.4509 78.6276 26.4425C79.1398 26.3808 79.1614 25.6656 78.6276 25.6285C78.0712 25.5898 77.5583 25.771 77.238 26.2436C76.9571 26.6579 76.8766 27.1773 76.7594 27.6536C76.5394 28.5469 75.9933 29.7375 75.0795 30.1175C74.4213 30.3912 73.6056 30.1972 72.8906 30.1425C71.905 30.0669 70.9283 30.2057 70.0546 30.6907C69.1634 31.1854 68.4589 31.9263 67.8101 32.699C67.2598 33.3542 66.7239 34.0845 65.9935 34.5519C65.1234 35.1089 64.1133 35.0877 63.1436 34.8226C61.9185 34.4874 60.7093 34.0665 59.4398 33.9306C58.3654 33.8155 57.3127 34.0168 56.3162 34.4201C54.8517 35.013 53.5645 35.9902 52.0323 36.4133C50.5572 36.8206 49.0301 36.7218 47.5779 36.2688C46.8135 36.0303 46.0819 35.7051 45.3745 35.3313C44.6733 34.9607 44.0073 34.5431 43.2368 34.3258C42.0269 33.9846 40.8202 34.186 39.6374 34.5299C38.2723 34.9269 36.8915 35.4148 35.452 35.4051C32.8497 35.3877 31.0126 33.4757 29.1519 31.9156C28.6407 31.487 28.1278 31.04 27.514 30.7644C26.9493 30.5109 26.3545 30.3829 25.737 30.3517C24.6145 30.2949 23.4672 30.6103 22.3527 30.4089C21.0493 30.1733 20.3372 29.1592 19.7247 28.0774C19.2282 27.2005 18.7107 26.2983 17.7204 25.9208C17.1783 25.7141 16.5779 25.7019 16.0071 25.7542C15.4897 25.8015 15.4847 26.6161 16.0071 26.5682Z" fill="#E5E5B7"/>
<path d="M16.9955 30.7032C17.5467 30.5282 18.0957 30.5067 18.5845 30.8522C19.0151 31.1564 19.3113 31.6271 19.5817 32.0692C20.1397 32.9816 20.5328 34.137 21.3772 34.8346C21.8413 35.218 22.3942 35.4109 22.9879 35.4782C23.6682 35.5554 24.3081 35.3969 24.9588 35.2151C25.6041 35.0351 26.2687 34.8667 26.9238 35.1054C27.5011 35.3159 27.9506 35.6603 28.3473 36.1245C29.1173 37.0254 29.6546 38.1574 30.6973 38.7946C31.2794 39.1503 31.9956 39.406 32.6829 39.4126C33.275 39.4182 33.8269 39.217 34.3589 38.977C35.5334 38.447 36.6696 37.7949 38.005 37.9042C39.0429 37.9892 39.9582 38.5709 40.8279 39.0935C41.8978 39.7363 43.0233 40.3934 44.2495 40.6845C45.5343 40.9896 46.8158 40.7302 48.0399 40.3056C49.2223 39.8954 50.4108 39.3333 51.683 39.3017C52.9005 39.2713 54.075 39.7536 55.1424 40.293C56.0494 40.7513 56.9578 41.2435 57.996 41.2887C59.3716 41.3486 60.661 40.6275 61.8002 39.9395C62.4063 39.5734 63.0039 39.1636 63.6679 38.9074C64.3702 38.6365 65.0997 38.5772 65.8435 38.6718C66.5594 38.7628 67.2714 38.9452 67.9983 38.8776C68.7429 38.8083 69.421 38.5258 69.9896 38.04C70.9287 37.2376 71.2159 36.0013 71.9569 35.0553C72.3038 34.6125 72.7857 34.2159 73.3331 34.0596C73.8325 33.9171 74.3609 33.8991 74.8691 33.7983C75.7316 33.6274 76.4979 33.1452 77.2148 32.6542C77.6158 32.3797 78.0089 32.0867 78.3715 31.7627C78.6264 31.5351 78.9009 31.2763 79.0524 30.9649C79.2065 30.648 79.1654 30.2696 78.8333 30.0849C78.375 29.83 77.964 30.5329 78.4224 30.7877C78.4847 30.8224 78.3699 30.7303 78.3618 30.7146C78.2668 30.5286 78.428 30.7942 78.3326 30.6089C78.3295 30.6028 78.3112 30.5236 78.3369 30.572C78.3447 30.5867 78.286 30.6846 78.3361 30.5821C78.2657 30.7263 78.2233 30.7631 78.1057 30.8885C77.8148 31.1985 77.4778 31.4671 77.1352 31.7172C76.5085 32.1747 75.7381 32.7268 75.0306 32.9276C74.5149 33.074 73.9768 33.1029 73.4516 33.1984C72.9314 33.2931 72.4662 33.5069 72.0508 33.8335C71.0384 34.6294 70.681 35.7958 69.9843 36.824C69.63 37.3471 69.1238 37.774 68.5118 37.9569C67.8091 38.1666 67.1048 38.0496 66.3968 37.9369C65.6559 37.819 64.9279 37.7617 64.186 37.9087C63.5005 38.0447 62.8625 38.3556 62.2633 38.7063C61.1113 39.3803 59.9268 40.2755 58.5672 40.4528C57.5638 40.5836 56.679 40.1633 55.8097 39.7205C54.7501 39.1807 53.6698 38.6985 52.4804 38.536C51.2188 38.3635 50.0035 38.7262 48.8302 39.155C47.679 39.5758 46.5032 40.0585 45.2542 40.0082C44.0094 39.9582 42.8235 39.3232 41.7698 38.707C40.8547 38.1717 39.9574 37.5539 38.9282 37.2563C37.7886 36.9268 36.6115 37.1007 35.5276 37.5428C34.4188 37.9951 33.31 38.856 32.0558 38.5013C31.4409 38.3275 30.9051 38.0144 30.4676 37.5509C30.0666 37.1262 29.7485 36.6343 29.4039 36.1649C28.6748 35.1716 27.7565 34.298 26.4644 34.1807C25.1327 34.0598 23.9321 34.9665 22.5968 34.5801C21.5507 34.2774 21.1512 33.1865 20.6745 32.3181C20.1645 31.3891 19.5466 30.2923 18.5033 29.8961C17.9455 29.6843 17.3375 29.7409 16.7789 29.9183C16.2816 30.0762 16.4941 30.8624 16.9955 30.7032Z" fill="#E5E5B7"/>
<path opacity="0.1" d="M32.4801 32.0711C31.2496 31.1853 29.8779 30.5616 28.4843 29.9022C27.0082 29.2037 22.9967 26.5302 21.7084 28.2851C16.1952 29.9262 21.0541 39.6046 23.3004 42.8567C24.7044 44.8893 29.958 49.1798 32.2339 45.7773C33.0441 44.5661 32.7436 42.6038 32.857 41.2226C32.9905 39.5971 32.9752 37.9459 33.2277 36.3502C33.5271 34.4572 34.265 33.3562 32.4801 32.0711Z" fill="#002140"/>
<path d="M32.514 19.2423C31.5702 18.3935 31.0196 19.6033 30.0908 19.2476C29.0628 18.8541 29.9106 18.0208 30.4611 17.604C30.9681 17.2202 32.3348 17.0535 30.8444 16.1264C30.3205 15.8006 28.7273 15.9518 28.1783 16.093C26.9961 16.3972 25.9038 17.1688 26.0476 18.4717C24.6613 18.7092 23.26 17.4988 21.9734 18.4906C20.4047 19.7 22.127 21.2888 22.3935 20.2737C24.078 20.0242 23.9536 21.4971 25.3122 22.0115C26.1198 22.3172 26.8453 21.8674 27.5825 22.5391C28.2037 23.105 28.3922 23.9471 28.355 24.7678C29.4847 23.0532 31.6836 23.713 32.7342 21.7599C33.132 21.0204 33.2669 19.9193 32.514 19.2423Z" fill="#002140"/>
<path d="M42.5326 10.5907C42.2096 10.5532 40.6413 11.0742 40.2693 10.8284C39.308 10.1933 39.881 7.94636 40.7967 7.5539C40.2134 6.7929 38.7242 6.86521 38.0035 7.42565C37.6073 7.7337 37.2355 8.33634 37.5356 8.58185C36.2007 8.30761 34.3153 7.74882 33.2406 8.17125C32.7789 8.3527 32.6735 8.93348 32.2282 9.09651C31.8638 9.22985 31.5211 9.02669 31.2252 9.08799C30.3576 9.26752 29.5499 9.22023 29.7323 10.5499C30.0734 10.5286 30.5029 10.6483 30.8349 10.5973C30.0624 10.9695 28.1893 11.3824 28.1036 12.5808C28.0345 13.5487 29.2066 14.1373 29.839 13.3352H28.9588C30.1815 12.8676 33.2785 11.6217 32.6942 14.2029C34.07 13.0152 34.9932 15.9268 32.7441 16.6361C33.5947 17.4103 34.3211 16.3804 35.1239 17.7298C35.5209 18.3969 36.076 19.5655 35.5799 20.106C36.7766 18.6748 40.3368 19.6301 39.4959 16.4824C39.1924 15.3463 37.7463 14.8751 39.3932 13.9895C40.9954 13.128 41.2456 14.407 42.3855 14.6297C44.1955 14.9833 44.9304 10.8695 42.5326 10.5907Z" fill="#002140"/>
<path d="M42.6959 4.90718C41.7128 3.51578 39.8293 2.20575 38.3899 3.65338C37.9816 4.06398 37.2715 4.84313 37.0063 5.31916C36.596 6.05569 36.7836 7.24269 37.8865 6.2935L37.3835 6.16772C38.2866 5.26981 38.5048 5.67602 39.399 5.54845C40.1405 5.4426 40.9511 4.67363 41.6309 5.56412C42.0606 6.12703 41.3139 7.8944 42.511 7.65123C43.6656 7.41672 43.0908 5.46597 42.6959 4.90718Z" fill="#002140"/>
<path d="M60.5266 4.78457C60.2633 3.77998 59.2053 2.97885 58.1314 3.39852C57.0878 3.80638 57.182 5.15572 55.7423 4.94444C55.2023 4.86512 54.7432 4.2508 54.2334 4.14949C53.506 4.00487 53.4645 4.32035 52.8502 4.40709C51.3294 4.62154 51.7711 3.95772 50.4611 3.17556C49.3413 2.50693 44.4644 2.91341 45.3 5.16809C45.4 5.43793 45.6316 5.5655 45.9179 5.6312C45.7411 5.88235 45.611 6.15027 45.5506 6.4131C45.1983 7.94527 46.7144 7.55569 46.7229 8.68303C46.7273 9.27866 45.9466 9.29832 46.3027 9.9745C46.4984 10.3462 47.3662 10.3242 47.6637 10.72C48.2916 11.5555 48.0421 12.9748 47.2897 13.5558C46.3805 14.258 45.2456 14.0311 45.1734 15.5988C45.0893 17.4294 47.0571 17.2294 48.2294 16.3553C49.7614 15.213 49.4542 12.7432 51.0595 11.848C52.1621 11.2331 53.8045 11.9842 54.8273 11.4173C56.2216 10.6445 56.1298 8.68771 55.5075 7.57961C56.9018 6.91292 57.9832 8.75231 59.2662 8.4334C60.3946 8.1527 60.7945 5.80675 60.5266 4.78457Z" fill="#002140"/>
<path d="M52.1046 17.6076C51.486 16.1593 49.4903 16.7715 48.5748 17.6109C47.3852 18.7015 47.6845 19.6699 45.8085 19.1473C44.4025 18.7557 43.6566 18.1609 44.0321 16.6299C43.5292 16.3388 43.1092 16.5149 42.7811 16.8551C41.9207 16.7608 40.708 17.6308 41.0248 18.6293C41.294 19.4785 42.5597 19.2042 41.6646 20.1528C40.6169 21.2634 37.2657 19.9812 37.4955 21.8953C37.2423 21.3827 35.8986 22.6517 35.6707 23.1806C35.8002 23.2051 35.9599 23.2679 36.1162 23.2876C35.3986 24.4577 34.3359 25.6957 36.4093 25.7839C37.9049 25.8476 38.7875 24.3947 40.2794 24.6493C41.8931 24.9246 41.3206 26.4564 42.3826 27.0718C43.3478 27.631 44.6576 26.5768 44.9624 25.6891C45.4254 24.3407 43.7753 23.1582 44.8527 22.0056C46.519 20.2228 46.719 23.2253 47.8139 23.5266C48.4767 23.709 49.2008 22.9691 49.838 22.8893C50.4835 22.8086 50.8226 23.201 51.3096 22.771C51.8169 22.3231 51.8335 21.0153 51.5619 20.0569C52.0359 19.442 52.332 18.1398 52.1046 17.6076Z" fill="#002140"/>
<path d="M63.284 8.15175C61.6811 8.05195 61.0283 8.32289 60.4885 9.92764C59.9683 9.64392 58.6883 9.47263 58.1347 9.81492C57.0926 10.4592 58.1016 11.0278 58.1123 11.9302C57.313 12.1566 52.5285 13.1065 54.063 14.476C53.4681 14.4077 51.5509 14.5142 51.3322 15.215C50.9019 16.5938 52.9404 16.0009 53.4755 16.3501C54.4946 17.0151 53.5869 18.0334 53.9758 19.0004C54.3502 19.9313 55.5628 20.2491 56.4749 20.1065C56.7469 19.3488 56.752 18.4259 56.1195 17.8622C56.126 15.4717 57.1172 15.4234 58.6623 14.4667C59.323 14.0576 59.2376 13.5233 60.269 13.7061C60.9699 13.8304 61.3402 14.3582 61.8721 14.753C62.2276 15.0168 62.3936 15.7718 62.8841 15.3217C63.4201 14.83 62.3242 12.7104 62.272 12.219C62.0504 10.1367 64.3232 8.73198 65.902 10.1788C66.2176 8.32715 64.7853 8.24522 63.284 8.15175Z" fill="#002140"/>
<path d="M55.4907 28.8018L55.6165 28.4246C55.4685 28.3746 55.3334 28.3167 55.2065 28.2551C55.1537 28.4473 55.2197 28.6411 55.4907 28.8018Z" fill="#002140"/>
<path d="M58.3894 25.4007C57.6465 25.2071 53.7217 25.8977 55.4843 24.0268C56.5896 22.8536 58.7482 23.019 60.0992 23.1214C59.7868 22.7128 59.3338 22.1117 58.8549 21.9138C58.0254 21.5711 57.7634 22.0948 56.9997 22.1714C55.7621 22.2952 54.6628 21.3007 53.3656 22.0371C53.5697 22.8569 54.0263 23.1768 53.5096 23.8028C52.9878 24.4352 52.3358 24.0345 51.7183 24.2748C50.1475 24.8861 51.3707 26.5541 49.0777 26.0004C44.5887 24.9162 46.6055 31.0049 49.7059 28.2866C50.5163 29.2727 51.8438 27.9327 52.7238 27.667C53.9268 27.3038 54.3883 27.858 55.2062 28.2549C55.2983 27.9197 55.7532 27.5891 56.1196 27.4468C56.8056 27.1807 57.5809 27.6912 58.159 27.6419C59.9015 27.4935 60.1161 25.8503 58.3894 25.4007Z" fill="#002140"/>
<path d="M16.2934 40.5974C13.8036 40.782 12.9979 42.148 9.87966 42.6669C9.51126 42.7282 9.97492 43.4822 9.9077 43.8497C9.81271 44.3697 11.1215 44.3393 11.5581 44.6375C11.9947 44.9356 12.5278 45.0501 13.0479 45.1446C15.8938 45.6612 20.1651 46.3056 22.8271 44.8523C23.492 44.4893 27.8967 42.4912 27.0917 41.9397C24.7982 40.3683 21.7091 41.7725 20.8336 41.6397C18.9267 41.3502 18.8555 40.4074 16.2934 40.5974Z" fill="#9AB240"/>
<path d="M19.0731 44.579C22.6264 44.6054 27.2545 39.1234 31.8723 43.7665C36.4902 48.4097 36.5621 60.582 33.5168 65.937C30.4714 71.292 22.3924 72.76 17.1134 72.8467C10.9481 72.9479 1.7719 70.0674 0.669026 59.9997C-0.29583 51.1921 1.83375 43.3333 9.53487 42.6933C14.2247 42.3033 13.2531 44.5359 19.0731 44.579Z" fill="#ADD14A"/>
<path d="M31.8677 43.7109C30.337 42.1719 28.8052 41.7459 27.312 41.8623C31.0673 47.0707 30.9423 58.0139 28.0987 63.014C25.0533 68.369 16.9743 69.837 11.6953 69.9236C9.76257 69.9553 7.53415 69.6939 5.35123 69.01C8.80623 71.8757 13.4792 72.8504 17.1089 72.7909C22.3879 72.7043 30.4669 71.2362 33.5123 65.8813C36.5576 60.5264 36.4855 48.3542 31.8677 43.7109Z" fill="#A5BC46"/>
<path d="M20.0452 44.4659C20.0452 44.4659 19.3708 40.0642 18.5005 37.9326C17.6302 35.8011 15.0675 32.5486 15.0675 32.5486L13.5048 33.4832C13.5048 33.4832 15.879 35.3967 17.0882 38.0966C17.9333 39.9835 19.0732 44.5789 19.0732 44.5789L20.0452 44.4659Z" fill="#60443E"/>
<path d="M17.0881 38.0968C17.0881 38.0968 12.9778 34.498 9.12483 34.6514C3.96802 34.8568 0 36.5747 0 36.5747C0 36.5747 3.6135 41.2898 7.79899 41.6941C11.9845 42.0984 17.615 39.4839 17.615 39.4839L17.0881 38.0968Z" fill="#436B49"/>
<path opacity="0.27" d="M10.7558 36.7362C10.8115 36.7947 10.8652 36.8599 10.8745 36.9387C10.8867 37.0434 10.8174 37.149 10.7359 37.2337C10.4619 37.5177 10.0377 37.6539 9.63453 37.6847C9.23135 37.7155 8.83684 37.655 8.44136 37.6173C7.51829 37.5295 6.56773 37.5663 5.63146 37.7265C5.30045 37.7831 4.96106 37.8554 4.63885 37.8072C3.63536 37.6572 4.07428 36.7077 4.60901 36.2179C5.10787 35.7611 5.64397 35.7455 6.29019 35.7376C7.8104 35.7195 9.73146 35.6597 10.7558 36.7362Z" fill="#002140"/>
<path opacity="0.27" d="M4.90386 47.7965C3.979 49.3875 3.61802 51.2486 3.50722 53.0857C3.44619 54.0982 3.47189 55.1732 3.99907 56.0399C4.5261 56.9066 5.71187 57.4457 6.59535 56.9473C7.35443 56.519 7.59497 55.5643 7.82811 54.7245C8.12366 53.6596 8.52024 52.6227 9.01085 51.6323C9.36949 50.9081 9.78587 50.1989 10.3669 49.6375C10.8032 49.2161 11.323 48.8868 11.749 48.4551C12.175 48.0232 12.5122 47.4411 12.4428 46.8385C12.2879 45.4945 10.011 44.5434 8.81442 44.6912C7.19262 44.8913 5.67791 46.4647 4.90386 47.7965Z" fill="#002140"/>
</svg>
