<svg width="126" height="74" viewBox="0 0 126 74" fill="none" xmlns="http://www.w3.org/2000/svg">
<path d="M111.704 47.0939C111.704 47.0939 111.704 51.9239 92.9974 51.9042C75.7189 51.886 74.2911 47.0939 74.2911 47.0939V5.06285H111.704L111.704 47.0939Z" fill="#70BBF2"/>
<path d="M100.384 21.1231C99.9664 28.4009 97.5193 35.7859 92.3926 40.9683C90.8563 42.5213 89.0698 43.8262 87.1328 44.8347C83.7989 46.5704 79.9634 47.4523 76.2071 47.0437C75.4533 46.9616 74.7843 46.8147 74.291 46.7911V46.9869C74.291 46.9869 75.7189 51.7789 92.9972 51.7972C111.704 51.8169 111.704 46.9869 111.704 46.9869V4.95584H98.8715C99.9739 10.2909 100.694 15.6999 100.384 21.1231Z" fill="#5D98A8"/>
<path d="M92.9973 10.1257C103.328 10.1257 111.704 7.859 111.704 5.06286C111.704 2.26672 103.328 0 92.9973 0C82.6661 0 74.291 2.26672 74.291 5.06286C74.291 7.859 82.6661 10.1257 92.9973 10.1257Z" fill="#5AB6F9"/>
<path d="M93.2159 8.77002C102.59 8.77002 110.189 7.02269 110.189 4.86725C110.189 2.71181 102.59 0.964485 93.2159 0.964485C83.8421 0.964485 76.2431 2.71181 76.2431 4.86725C76.2431 7.02269 83.8421 8.77002 93.2159 8.77002Z" fill="#5D98A8"/>
<path d="M118.488 8.40587C125.062 8.08316 125.988 15.1519 125.882 16.6879C125.74 18.7353 125.537 20.8309 124.647 22.68C122.45 27.2438 116.606 29.3153 114.772 34.0363C114.4 34.9938 114.204 36.0426 113.599 36.8732C112.995 37.7037 111.77 38.2248 110.928 37.6362C110.385 37.2573 110.181 36.5545 110.1 35.8981C109.875 34.0661 110.345 32.1567 111.397 30.6396C112.293 29.3468 113.56 28.3688 114.698 27.2826C117.316 24.7823 120.256 22.7008 121.366 19.2547C121.859 17.7227 122.48 13.165 118.649 12.56C116.375 12.2011 115.022 13.0781 114.292 14.4161C113.713 15.4779 113.951 16.827 113.438 17.9223C112.961 18.9423 111.809 19.6032 110.687 19.5006C110.44 19.4779 110.186 19.4166 109.997 19.2554C109.815 19.1 109.715 18.8705 109.637 18.644C108.739 16.0328 110.324 14.0335 111.692 11.9997C113.082 9.93333 115.965 8.52976 118.488 8.40587Z" fill="#5D98A8"/>
<path d="M112.945 11.2808C112.821 11.465 112.718 11.6812 112.746 11.9015C112.79 12.2503 113.16 12.4871 113.512 12.4899C113.863 12.4927 114.191 12.3172 114.481 12.1185C114.868 11.853 115.22 11.5385 115.599 11.2618C117.001 10.2401 118.859 9.76897 120.522 10.2618C120.669 10.3053 120.818 10.3565 120.971 10.3515C121.124 10.3464 121.286 10.2703 121.343 10.128C121.407 9.96905 121.321 9.78865 121.21 9.65861C120.869 9.26029 120.317 9.12147 119.798 9.05199C118.537 8.88331 117.24 9.00469 116.028 9.38851C114.957 9.72726 113.597 10.3146 112.945 11.2808Z" fill="#70BBF2"/>
<path d="M113.088 29.5883C112.607 30.2304 112.172 30.9444 112.072 31.741C112.032 32.0623 112.089 32.4572 112.384 32.5913C112.729 32.7481 113.098 32.4282 113.308 32.1128C113.597 31.6782 113.807 31.1964 114.054 30.7364C115.313 28.3904 117.481 26.6989 119.451 24.9076C119.625 24.7492 119.806 24.5771 119.868 24.3499C119.887 24.2779 119.893 24.1974 119.858 24.1317C119.777 23.9804 119.553 24.0037 119.393 24.066C118.475 24.4232 117.621 25.2715 116.858 25.8819C115.976 26.5873 115.117 27.3245 114.332 28.1376C113.89 28.5962 113.471 29.0784 113.088 29.5883Z" fill="#70BBF2"/>
<path opacity="0.3" d="M77.7612 13.2123C77.4073 14.275 77.5702 15.4301 77.6933 16.5433C78.0788 20.0302 78.0333 23.5645 77.5579 27.0403C77.2545 29.2598 76.7856 31.5796 77.5395 33.6889C77.8013 34.421 78.2971 35.1691 79.061 35.3138C79.7421 35.4428 80.4375 35.028 80.8284 34.4556C81.2193 33.8832 81.3629 33.1803 81.4614 32.494C82.1275 27.853 81.1263 23.1073 81.6548 18.4486C81.8049 17.125 82.0785 15.7944 81.918 14.4719C81.6245 12.0514 78.8609 9.91088 77.7612 13.2123Z" fill="#002140"/>
<path opacity="0.3" d="M76.855 40.4275C76.9725 40.9732 77.1646 41.5355 77.5872 41.9C77.9674 42.2277 78.4935 42.3512 78.9944 42.3183C80.1499 42.2424 81.2115 41.2695 81.2898 40.1143C81.5091 36.8779 76.0545 36.7094 76.855 40.4275Z" fill="#002140"/>
<path d="M89.5783 5.90024C88.5264 4.44212 87.6812 2.83375 86.9451 1.19412C80.6754 1.76768 76.2431 3.17571 76.2431 4.82176C76.2431 6.8985 83.2972 8.59602 92.196 8.7174C91.1986 7.9114 90.3306 6.94314 89.5783 5.90024Z" fill="#337B8E"/>
<path d="M92.9877 57.0364C92.9877 65.1238 72.1965 74 46.5492 74C20.9019 74 0.110622 65.124 0.110622 57.0364C0.110622 48.9489 20.9019 44.7126 46.5492 44.7126C72.1965 44.7126 92.9877 48.9489 92.9877 57.0364Z" fill="#D3CFBC"/>
<path d="M46.5492 71.6801C72.1965 71.6801 92.9877 65.1239 92.9877 57.0365C92.9877 48.949 72.1965 42.3928 46.5492 42.3928C20.9019 42.3928 0.110622 48.949 0.110622 57.0365C0.110622 65.1239 20.9019 71.6801 46.5492 71.6801Z" fill="#E8E3CD"/>
<path d="M10.8889 61.1251C17.7921 63.6157 24.7463 66.1196 31.995 67.2659C40.9873 68.6879 50.1702 67.98 59.2259 67.0432C66.5788 66.2826 73.9818 65.3586 80.9675 62.9415C82.3171 62.4745 83.7118 61.9075 84.6089 60.7964C85.5059 59.6853 85.6874 57.8711 84.6294 56.9118C84.1433 56.4711 83.4849 56.276 82.84 56.1563C79.3795 55.5137 75.8755 56.6678 72.4675 57.5473C54.9315 62.0726 36.4568 59.4648 18.4801 57.2676C16.4979 57.0254 14.5076 56.7879 12.511 56.8221C11.3457 56.842 8.68851 56.6805 8.02479 57.9765C7.18005 59.626 9.76768 60.7206 10.8889 61.1251Z" fill="#D1C4A7"/>
<path d="M9.52273 48.1294C7.52339 50.5194 7.02186 54.4667 9.12956 56.7381C10.2354 57.9299 11.8257 58.4756 13.3492 58.9795C17.0343 60.1981 20.7195 61.4168 24.4046 62.6355C28.5872 64.0187 32.7911 65.4072 37.1351 66.091C41.6186 66.7967 46.1818 66.741 50.7185 66.6145C59.6966 66.3641 68.6685 65.8431 77.6192 65.0522C78.8495 64.9434 80.1004 64.8247 81.2471 64.3483C83.2449 63.5185 84.6868 61.717 86.0396 59.9853C86.7315 59.0996 87.4405 58.1803 87.7355 57.0849C88.2394 55.2138 87.3969 53.1747 86.0505 51.827C84.7041 50.4794 82.9263 49.7006 81.1641 49.0351C76.242 47.1765 71.1119 45.9767 65.9982 44.7815C61.4804 43.7258 56.9457 42.6672 52.3285 42.2547C48.7831 41.9379 45.2158 42.0046 41.6561 42.0717C35.3719 42.19 29.0836 42.3074 22.811 42.7678C18.3795 43.093 12.5813 44.4731 9.52273 48.1294Z" fill="#FACA82"/>
<path d="M87.7963 56.0881C87.5014 57.1834 86.7923 58.1028 86.1003 58.9885C84.7475 60.7201 83.3057 62.5217 81.3078 63.3515C80.161 63.8278 78.9102 63.9466 77.6799 64.0554C68.7292 64.8463 59.7572 65.3673 50.7792 65.6176C46.2425 65.7441 41.6794 65.7999 37.1959 65.0941C32.8518 64.4102 28.6479 63.0219 24.4653 61.6386C20.7803 60.42 17.0951 59.2013 13.41 57.9826C11.8864 57.4788 10.2962 56.9331 9.19031 55.7413C8.26559 54.7447 7.84335 53.4254 7.82924 52.0566C7.6085 53.766 7.98091 55.5006 9.12914 56.7379C10.235 57.9298 11.8253 58.4754 13.3488 58.9793C17.0339 60.198 20.7191 61.4167 24.4042 62.6353C28.5868 64.0185 32.7907 65.407 37.1347 66.0908C41.6182 66.7966 46.1813 66.7408 50.7181 66.6143C59.6962 66.364 68.6682 65.843 77.6188 65.0521C78.849 64.9433 80.0998 64.8245 81.2467 64.3482C83.2445 63.5184 84.6864 61.7168 86.0392 59.9851C86.7311 59.0994 87.4401 58.1801 87.7351 57.0847C87.8554 56.638 87.8982 56.1817 87.8764 55.7276C87.8551 55.8482 87.8285 55.9685 87.7963 56.0881Z" fill="#E0A870"/>
<path d="M84.5838 52.4087C84.4919 51.9959 84.3546 51.5464 84.5369 51.1656C84.6078 51.0177 84.7211 50.8958 84.8159 50.7627C83.7199 50.0288 82.4785 49.5062 81.244 49.0401C76.322 47.1817 71.1919 45.9817 66.0782 44.7865C61.5604 43.7307 57.0256 42.6722 52.4085 42.2596C48.8631 41.9429 45.2956 42.0096 41.7361 42.0767C35.452 42.195 29.1636 42.3125 22.891 42.7728C19.2278 43.0417 14.6325 44.0327 11.4209 46.4328C11.1596 46.6786 10.9155 46.9391 10.6939 47.2154C9.48121 48.7282 9.02216 51.0762 10.1629 52.6381C11.0908 53.9087 12.7449 54.3067 14.2673 54.5669C18.9953 55.3749 23.8529 55.7 28.3523 57.3945C31.4059 58.5445 34.3366 60.3314 37.5885 60.4515C40.8512 60.5721 43.9348 58.9915 47.1515 58.3985C54.4199 57.0586 61.5748 60.7978 68.9048 61.6377C70.2161 61.788 71.5628 61.8422 72.8389 61.4889C74.1601 61.123 75.3375 60.3397 76.6264 59.865C78.5688 59.1497 80.7807 59.1246 82.4858 57.9246C84.1667 56.7418 85.0383 54.4501 84.5838 52.4087Z" fill="#E8AB69"/>
<path d="M5.92177 47.4291C4.12781 49.9768 3.95607 53.9522 6.24519 56.0407C7.44628 57.1365 9.07625 57.5482 10.6365 57.9238C14.4101 58.8322 18.1838 59.7404 21.9573 60.6488C26.2402 61.6799 30.545 62.7142 34.9308 63.0348C39.4573 63.3657 44.0003 62.9312 48.5107 62.4281C57.4369 61.4328 66.3346 60.1682 75.1887 58.6365C76.4057 58.426 77.6424 58.2036 78.7457 57.6337C80.6676 56.6409 81.9548 54.7257 83.1591 52.8876C83.7751 51.9474 84.4053 50.9724 84.6082 49.8563C84.9548 47.9498 83.946 45.9877 82.4922 44.7566C81.0384 43.5255 79.2022 42.897 77.3907 42.3803C72.3312 40.937 67.1192 40.1674 61.924 39.4013C57.3341 38.7244 52.7271 38.0462 48.0915 38.0186C44.532 37.9974 40.9825 38.3603 37.4408 38.7227C31.1882 39.3627 24.9313 40.002 18.7186 40.9818C14.3296 41.6745 8.6662 43.5314 5.92177 47.4291Z" fill="#FACA82"/>
<path d="M84.586 48.858C84.3832 49.9741 83.7529 50.9491 83.1369 51.8893C81.9328 53.7274 80.6455 55.6424 78.7235 56.6354C77.6203 57.2054 76.3836 57.4277 75.1666 57.6382C66.3125 59.1699 57.4148 60.4344 48.4886 61.4297C43.978 61.9326 39.4352 62.3673 34.9087 62.0364C30.5228 61.7157 26.218 60.6813 21.9351 59.6504C18.1615 58.742 14.3878 57.8337 10.6143 56.9253C9.05411 56.5497 7.42415 56.1382 6.22306 55.0422C5.21876 54.1259 4.68831 52.8463 4.56057 51.4835C4.48252 53.2052 4.99788 54.903 6.24478 56.0407C7.44588 57.1367 9.07584 57.5482 10.6361 57.9238C14.4097 58.8322 18.1834 59.7405 21.957 60.6489C26.2399 61.6799 30.5447 62.7143 34.9306 63.0349C39.4571 63.3658 43.9999 62.9312 48.5104 62.4282C57.4367 61.4328 66.3344 60.1682 75.1885 58.6367C76.4055 58.4262 77.6421 58.2038 78.7454 57.6339C80.6674 56.6411 81.9547 54.7259 83.1588 52.8878C83.7748 51.9475 84.405 50.9726 84.6079 49.8565C84.6907 49.4013 84.6954 48.9431 84.636 48.4922C84.6246 48.6141 84.6082 48.7362 84.586 48.858Z" fill="#C69466"/>
<path d="M81.0789 45.4583C80.953 45.0546 80.7789 44.618 80.9291 44.2234C80.9875 44.0701 81.0903 43.9392 81.1736 43.7987C80.0204 43.1583 78.7398 42.7407 77.4709 42.3788C72.4115 40.9355 67.1994 40.1659 62.0042 39.3998C57.4144 38.7229 52.8074 38.0447 48.172 38.0171C44.6124 37.996 41.0629 38.3588 37.5212 38.7213C31.2686 39.3612 25.0117 40.0006 18.799 40.9804C15.1708 41.5526 10.6737 42.922 7.6727 45.5805C7.43273 45.8471 7.21116 46.127 7.01327 46.4208C5.9305 48.029 5.66811 50.4071 6.93453 51.8688C7.96485 53.0579 9.64616 53.3171 11.1849 53.4499C15.9636 53.8625 20.8316 53.7829 25.4561 55.0977C28.5946 55.9901 31.6636 57.5275 34.9142 57.3771C38.1757 57.2261 41.1173 55.3949 44.2736 54.5367C51.4056 52.5976 58.8464 55.7295 66.2209 55.9576C67.54 55.9984 68.8867 55.9407 70.1289 55.4825C71.4152 55.0081 72.5235 54.1297 73.7684 53.5497C75.6448 52.6755 77.847 52.4668 79.4465 51.1293C81.0233 49.8111 81.7014 47.4548 81.0789 45.4583Z" fill="#E8AB69"/>
<path d="M17.2603 38.6822C15.8873 41.2208 15.7744 45.1948 17.5528 47.2945C18.486 48.3962 19.7472 48.816 20.9541 49.1992C23.8734 50.1263 26.7926 51.0532 29.712 51.9803C33.0253 53.0325 36.3556 54.0881 39.7448 54.4306C43.2427 54.7841 46.7495 54.3721 50.231 53.8916C57.1208 52.9408 63.9872 51.7205 70.8186 50.2331C71.7576 50.0287 72.7117 49.8125 73.5611 49.2482C75.0408 48.2649 76.0254 46.3563 76.9464 44.5246C77.4175 43.5876 77.8995 42.6158 78.0507 41.5008C78.3089 39.5962 77.5199 37.6294 76.3909 36.3911C75.2619 35.1529 73.8404 34.5154 72.4386 33.9897C68.5236 32.5216 64.4939 31.7259 60.4771 30.9341C56.9285 30.2345 53.3666 29.5334 49.7859 29.4828C47.0363 29.4439 44.2964 29.789 41.5627 30.1339C36.7363 30.7427 31.9066 31.3509 27.1127 32.2997C23.7259 32.9699 19.3606 34.7985 17.2603 38.6822Z" fill="#FACA82"/>
<path d="M78.0285 40.5022C77.8773 41.6172 77.3954 42.589 76.9243 43.5261C76.0033 45.3579 75.0185 47.2665 73.539 48.2496C72.6895 48.814 71.7356 49.0301 70.7965 49.2347C63.9651 50.7221 57.0987 51.9423 50.2089 52.8932C46.7274 53.3737 43.2207 53.7857 39.7226 53.4322C36.3333 53.0898 33.0032 52.034 29.6899 50.9819C26.7705 50.0549 23.8513 49.1278 20.9319 48.2008C19.7249 47.8174 18.4639 47.3978 17.5307 46.2961C16.7503 45.3748 16.3343 44.0928 16.2289 42.7293C16.1771 44.4506 16.5836 46.1506 17.5524 47.2944C18.4856 48.3962 19.7468 48.8159 20.9537 49.1991C23.873 50.1262 26.7922 51.0531 29.7116 51.9802C33.0249 53.0324 36.3552 54.088 39.7444 54.4306C43.2423 54.784 46.7492 54.372 50.2307 53.8915C57.1204 52.9406 63.9869 51.7204 70.8182 50.233C71.7572 50.0286 72.7113 49.8125 73.5607 49.248C75.0403 48.2647 76.025 46.3563 76.946 44.5244C77.4171 43.5874 77.8991 42.6156 78.0503 41.5006C78.112 41.0458 78.1132 40.5876 78.0652 40.1366C78.0572 40.2586 78.0451 40.3804 78.0285 40.5022Z" fill="#E0A870"/>
<path d="M75.3028 37.0854C75.2035 36.681 75.0668 36.2435 75.1808 35.85C75.2251 35.6969 75.304 35.5665 75.3675 35.4265C74.4735 34.7805 73.4824 34.3566 72.5005 33.9883C68.5854 32.5201 64.5557 31.7245 60.5389 30.9327C56.9903 30.2331 53.4284 29.532 49.8477 29.4814C47.0982 29.4425 44.3583 29.7876 41.6245 30.1325C36.7981 30.7413 31.9683 31.3495 27.1746 32.2983C24.3751 32.8524 20.9081 34.1992 18.6034 36.8426C18.4193 37.1081 18.2495 37.3868 18.0982 37.6796C17.2698 39.2823 17.079 41.6589 18.0645 43.1267C18.8661 44.3207 20.1662 44.5884 21.3554 44.7288C25.0486 45.165 28.8083 45.1097 32.3868 46.4474C34.8156 47.3552 37.1937 48.9077 39.7038 48.7734C42.2222 48.6388 44.4853 46.8224 46.9189 45.98C52.4182 44.0766 58.181 47.2452 63.8785 47.5099C64.8976 47.5573 65.9374 47.5063 66.8947 47.0543C67.8858 46.5865 68.7376 45.7136 69.6963 45.1399C71.1412 44.275 72.8412 44.0774 74.0701 42.7479C75.2813 41.4375 75.7935 39.0848 75.3028 37.0854Z" fill="#E8AB69"/>
<path opacity="0.66" d="M2.58117 58.0103C2.89892 59.0066 3.53662 59.8717 4.25044 60.6357C6.1327 62.6504 8.62843 64.0843 11.3171 64.6956C11.8484 64.8164 12.5244 64.8495 12.8128 64.3872C13.0241 64.0486 12.8996 63.5828 12.6318 63.2866C12.3642 62.9904 11.9854 62.8244 11.6192 62.6654C9.92377 61.9293 8.2188 61.1522 6.78715 59.9832C5.35577 58.8145 4.20575 57.1955 3.97242 55.3623C3.8505 54.4045 3.2359 54.4436 2.73755 55.107C2.19312 55.832 2.32847 57.218 2.58117 58.0103Z" fill="#002140"/>
<path opacity="0.66" d="M14.8627 65.3825C14.5314 65.315 14.3124 65.794 14.471 66.0926C14.6296 66.3912 14.9789 66.5247 15.2989 66.634C15.7989 66.8049 16.2989 66.9757 16.7989 67.1466C17.0364 67.2277 17.2809 67.3099 17.5317 67.298C17.7824 67.286 18.0441 67.1577 18.1399 66.9257C18.3079 66.519 17.9051 66.1096 17.5221 65.8931C16.6919 65.4236 15.7325 65.1856 14.7792 65.2129L14.8627 65.3825Z" fill="#002140"/>
<path opacity="0.66" d="M89.1121 56.4507C88.8572 56.7728 88.7926 57.2009 88.7293 57.6066C88.5393 58.8246 88.2451 60.1035 87.3844 60.986C86.7801 61.6057 85.9127 62.0134 85.565 62.8061C85.4847 62.9892 85.4656 63.2549 85.6467 63.3395C85.7188 63.3731 85.8028 63.3651 85.8812 63.3526C86.699 63.2223 87.3937 62.6915 87.996 62.1234C89.1456 61.0389 90.1023 59.7503 90.8077 58.336C91.0047 57.9409 91.1865 57.512 91.1395 57.0731C91.0456 56.1937 89.6795 55.7338 89.1121 56.4507Z" fill="#002140"/>
<path d="M25.2051 36.011C25.6541 35.898 26.1032 35.7849 26.5523 35.6718C26.6619 35.6443 26.7384 35.5154 26.7031 35.4063C26.6665 35.2929 26.5549 35.2259 26.4376 35.2554C25.9885 35.3685 25.5394 35.4815 25.0903 35.5946C24.9807 35.6221 24.9042 35.751 24.9395 35.8602C24.9761 35.9735 25.0877 36.0405 25.2051 36.011Z" fill="#D89559"/>
<path d="M36.2018 46.0662C36.3784 46.0654 36.555 46.0712 36.731 46.0848C36.8156 46.0913 36.8999 46.0994 36.9842 46.1093C37.0052 46.1118 37.0262 46.1144 37.0473 46.1169C37.0989 46.1231 37.0269 46.1136 37.0738 46.1205C37.1228 46.1276 37.1717 46.1349 37.2205 46.1428C37.3315 46.1607 37.4584 46.114 37.4861 45.9919C37.5098 45.888 37.4545 45.7456 37.3353 45.7264C36.9602 45.6655 36.5819 45.6325 36.2017 45.6343C36.0888 45.6349 35.9806 45.7333 35.9858 45.8502C35.9911 45.9669 36.0808 46.0669 36.2018 46.0662Z" fill="#D89559"/>
<path d="M32.0238 41.7573C32.2484 41.7573 32.473 41.7573 32.6976 41.7573C32.8106 41.7573 32.9188 41.6579 32.9135 41.5414C32.9083 41.4244 32.8186 41.3255 32.6976 41.3255C32.473 41.3255 32.2484 41.3255 32.0238 41.3255C31.9109 41.3255 31.8027 41.4249 31.8079 41.5414C31.8131 41.6583 31.9027 41.7573 32.0238 41.7573Z" fill="#D89559"/>
<path d="M63.3026 42.4175C63.7968 42.5071 64.2912 42.5965 64.7854 42.686C64.8999 42.7068 65.0181 42.6547 65.0511 42.5352C65.0798 42.4305 65.0156 42.2904 64.9002 42.2695C64.406 42.1801 63.9117 42.0905 63.4175 42.001C63.3029 41.9802 63.1847 42.0323 63.1519 42.1518C63.123 42.2566 63.1872 42.3966 63.3026 42.4175Z" fill="#D89559"/>
<path d="M70.3679 38.3673C70.4623 38.3704 70.5567 38.3761 70.6508 38.3847C70.6978 38.389 70.7448 38.3941 70.7917 38.3998C70.8025 38.401 70.8133 38.4024 70.8241 38.4038C70.8026 38.4009 70.8051 38.4013 70.8314 38.4049C70.853 38.4081 70.8745 38.4113 70.896 38.4146C71.0827 38.4441 71.2673 38.485 71.4493 38.5361C71.5579 38.5667 71.6891 38.4986 71.7149 38.3852C71.741 38.2707 71.6804 38.1523 71.564 38.1197C71.1749 38.0102 70.7716 37.9489 70.3678 37.9353C70.2547 37.9315 70.1468 38.0373 70.1519 38.1512C70.1573 38.2716 70.2468 38.3632 70.3679 38.3673Z" fill="#D89559"/>
<path d="M50.6115 32.7151C50.7695 32.6732 50.9276 32.6312 51.0856 32.5893C51.1378 32.5755 51.1875 32.5366 51.2146 32.4901C51.2417 32.4439 51.2532 32.3756 51.2363 32.3237C51.2001 32.2115 51.0877 32.1419 50.9708 32.1729C50.8127 32.2148 50.6547 32.2568 50.4966 32.2987C50.4445 32.3125 50.3948 32.3515 50.3677 32.3979C50.3405 32.4441 50.3291 32.5124 50.3459 32.5643C50.3822 32.6765 50.4946 32.7462 50.6115 32.7151Z" fill="#D89559"/>
<path d="M51.4317 42.9073C51.7683 42.8799 52.1049 42.8525 52.4413 42.8251C52.5537 42.816 52.6627 42.7324 52.6572 42.6092C52.6523 42.5 52.5618 42.3835 52.4413 42.3933C52.1047 42.4207 51.7682 42.4481 51.4317 42.4755C51.3194 42.4847 51.2103 42.5683 51.2159 42.6914C51.2207 42.8005 51.3112 42.9172 51.4317 42.9073Z" fill="#D89559"/>
<path d="M61.3374 45.1267C61.4497 45.1267 61.562 45.1267 61.6743 45.1267C61.7297 45.1267 61.7878 45.1026 61.827 45.0634C61.8645 45.0259 61.8926 44.9645 61.8902 44.9108C61.8877 44.8549 61.8693 44.797 61.827 44.7581C61.7848 44.7194 61.7327 44.6949 61.6743 44.6949C61.562 44.6949 61.4497 44.6949 61.3374 44.6949C61.282 44.6949 61.2239 44.719 61.1847 44.7581C61.1472 44.7956 61.1191 44.8571 61.1215 44.9108C61.124 44.9665 61.1424 45.0245 61.1847 45.0634C61.2269 45.1022 61.2788 45.1267 61.3374 45.1267Z" fill="#D89559"/>
<path d="M75.4154 51.5984C75.8186 51.4381 76.2217 51.2777 76.6247 51.1175C76.7293 51.0758 76.8141 50.9713 76.7755 50.8519C76.7427 50.7506 76.6223 50.6564 76.51 50.7011C76.1068 50.8613 75.7037 51.0217 75.3007 51.182C75.1961 51.2236 75.1112 51.3283 75.1498 51.4475C75.1825 51.549 75.3031 51.6431 75.4154 51.5984Z" fill="#D89559"/>
<path d="M78.0313 48.4838C78.1875 48.414 78.3436 48.3444 78.4999 48.2747C78.5461 48.254 78.5862 48.1923 78.5991 48.1455C78.6134 48.0938 78.607 48.025 78.5774 47.9792C78.5476 47.9331 78.5033 47.8924 78.4484 47.88C78.4293 47.8773 78.4102 47.8749 78.391 47.8722C78.3519 47.8724 78.3157 47.8822 78.2821 47.9017C78.1258 47.9715 77.9696 48.0411 77.8135 48.1108C77.7671 48.1314 77.7271 48.1932 77.7142 48.2398C77.7 48.2915 77.7065 48.3603 77.736 48.4061C77.7657 48.4522 77.81 48.4928 77.8651 48.5054C77.8842 48.5078 77.9033 48.5105 77.9225 48.5131C77.9613 48.5131 77.9977 48.5033 78.0313 48.4838Z" fill="#D89559"/>
<path d="M44.6055 36.9533C44.7417 36.9533 44.8778 36.9533 45.014 36.9533C45.0694 36.9533 45.1275 36.9292 45.1667 36.8901C45.2042 36.8525 45.2323 36.7911 45.2299 36.7374C45.2274 36.6815 45.209 36.6237 45.1667 36.5848C45.1244 36.546 45.0724 36.5215 45.014 36.5215C44.8778 36.5215 44.7417 36.5215 44.6055 36.5215C44.5501 36.5215 44.492 36.5456 44.4528 36.5848C44.4153 36.6223 44.3872 36.6837 44.3896 36.7374C44.3921 36.7933 44.4105 36.8512 44.4528 36.8901C44.4951 36.9288 44.547 36.9533 44.6055 36.9533Z" fill="#D89559"/>
<path d="M25.6058 46.4567C25.9815 46.5064 26.3574 46.5562 26.7331 46.6059C26.8457 46.6209 26.9539 46.4961 26.949 46.3901C26.9432 46.2604 26.8535 46.1901 26.7331 46.1742C26.3574 46.1245 25.9815 46.0746 25.6058 46.025C25.4933 46.01 25.3851 46.1349 25.3899 46.2409C25.3957 46.3705 25.4853 46.4408 25.6058 46.4567Z" fill="#F9DB91"/>
<path d="M25.7092 47.8944C26.1792 47.9828 26.6575 48.0128 27.1343 47.9748C27.2467 47.9658 27.3558 47.8819 27.3502 47.7589C27.3454 47.6496 27.2549 47.5333 27.1343 47.543C26.6925 47.5783 26.2466 47.5575 25.8241 47.4781C25.7133 47.4573 25.5857 47.5088 25.5585 47.6289C25.5343 47.7349 25.5906 47.8721 25.7092 47.8944Z" fill="#F9DB91"/>
<path d="M29.6489 49.4247C30.5318 49.6197 31.4148 49.8147 32.2977 50.0097C32.5685 50.0694 32.6842 49.6532 32.4125 49.5933C31.5296 49.3983 30.6467 49.2033 29.7638 49.0083C29.4929 48.9485 29.3772 49.3646 29.6489 49.4247Z" fill="#F9DB91"/>
<path d="M29.9723 47.6476C30.4881 47.7835 31.0247 47.8422 31.5575 47.8176C31.674 47.8122 31.7734 47.7222 31.7734 47.6017C31.7734 47.4889 31.6744 47.3804 31.5575 47.3858C31.0606 47.4088 30.5681 47.358 30.0871 47.2312C29.9744 47.2015 29.8526 47.2687 29.8215 47.3821C29.7908 47.4939 29.8591 47.6179 29.9723 47.6476Z" fill="#F9DB91"/>
<path d="M38.0185 51.4048C38.1609 51.3128 38.3148 51.2199 38.4745 51.1608C38.4227 51.18 38.4935 51.1533 38.5026 51.1496C38.5187 51.1432 38.5347 51.137 38.5509 51.1309C38.5939 51.1146 38.6374 51.0993 38.6811 51.0851C38.7632 51.0582 38.8464 51.0353 38.9304 51.0154C39.0404 50.9892 39.1162 50.858 39.0812 50.7498C39.0441 50.6352 38.9334 50.571 38.8156 50.5989C38.4568 50.684 38.1104 50.8317 37.8007 51.032C37.7059 51.0933 37.658 51.2264 37.7232 51.3274C37.7841 51.422 37.9171 51.4704 38.0185 51.4048Z" fill="#F9DB91"/>
<path d="M43.1965 48.9398C43.492 48.8343 43.7875 48.7289 44.0831 48.6234C44.1892 48.5855 44.2717 48.4745 44.2339 48.3578C44.2 48.2532 44.0822 48.1663 43.9683 48.207C43.6729 48.3124 43.3774 48.4179 43.0818 48.5234C42.9757 48.5613 42.8932 48.6723 42.9309 48.7889C42.9647 48.8936 43.0826 48.9805 43.1965 48.9398Z" fill="#F9DB91"/>
<path d="M42.8453 50.9967C43.4159 51.1254 43.9998 51.1962 44.5846 51.2063C44.8626 51.211 44.8626 50.7792 44.5846 50.7744C44.037 50.765 43.4944 50.7006 42.96 50.5802C42.8464 50.5546 42.7263 50.6148 42.6943 50.7311C42.6647 50.8396 42.7311 50.9709 42.8453 50.9967Z" fill="#F9DB91"/>
<path d="M25.4074 41.6062C25.5384 42.7814 24.8661 43.9143 24.0093 44.7291C23.1524 45.5439 22.1069 46.131 21.1878 46.875C18.6933 48.8944 17.2243 52.1206 17.3389 55.3279C17.3775 56.4097 17.6042 57.5261 18.2567 58.3898C18.9093 59.2535 20.0639 59.799 21.1026 59.4939C22.9238 58.9589 23.2172 56.5278 24.3816 55.0287C25.8661 53.1177 28.9398 52.6118 29.7703 50.3389C29.9907 49.7355 30.0181 49.0657 30.3086 48.4926C30.9381 47.2507 32.5183 46.8978 33.8987 46.7158C35.78 46.4678 37.669 46.2777 39.562 46.1457C42.0058 45.9753 44.5213 45.9107 46.8391 46.7042C49.1569 47.4976 51.2643 49.3174 51.7539 51.7178C52.1655 53.7358 51.5535 56.2357 53.1207 57.572C53.8256 58.1731 54.8067 58.3416 55.5691 58.8679C57.3495 60.0966 57.3437 62.6879 58.3067 64.625C58.5438 65.1019 58.9053 65.5864 59.4307 65.6734C60.2286 65.8057 60.8382 64.9786 61.14 64.2282C62.2727 61.4125 61.989 58.0668 60.3985 55.4819C60.064 54.9382 59.659 54.3653 59.7225 53.73C59.8099 52.8557 60.705 52.3432 61.3858 51.7876C62.8955 50.5554 63.6432 48.4576 63.2534 46.5484C65.41 46.0576 67.5205 45.3639 69.5477 44.4792C70.2533 44.1711 70.9952 43.7977 71.3592 43.1192C71.8599 42.1858 71.4538 40.9993 70.7791 40.183C70.1043 39.3665 69.1932 38.7784 68.4712 38.0033C68.2076 37.7203 67.9602 37.3895 67.9236 37.0045C67.8337 36.0574 68.9671 35.508 69.9032 35.338C70.8393 35.1681 71.9853 34.94 72.2709 34.0325C72.5924 33.0111 71.526 32.1163 70.5718 31.6307C66.438 29.5267 61.7807 28.7256 57.1923 28.0477C50.4583 27.053 43.4416 26.2874 36.9595 28.3655C34.529 29.1446 32.2534 30.3517 29.815 31.1029C28.3414 31.5568 26.6783 31.5146 25.2939 32.2079C23.5201 33.0964 22.1199 34.9861 22.7338 37.0094C23.258 38.738 25.1982 39.73 25.4074 41.6062Z" fill="#BF2647"/>
<path d="M44.6521 45.7904C42.3344 44.997 39.8188 45.0615 37.375 45.2319C35.4819 45.3639 33.593 45.554 31.7118 45.802C30.3313 45.984 28.7512 46.3369 28.1216 47.5788C27.8311 48.1518 27.8037 48.8216 27.5833 49.425C26.7527 51.6979 23.6791 52.2036 22.1946 54.1148C21.0301 55.6138 20.7368 58.0449 18.9156 58.5799C18.7946 58.6155 18.672 58.6383 18.5488 58.6517C19.2203 59.3841 20.2624 59.8141 21.2093 59.5359C23.0305 59.0009 23.3239 56.5698 24.4883 55.0708C25.9728 53.1597 29.0465 52.6539 29.877 50.381C30.0974 49.7776 30.1248 49.1078 30.4153 48.5347C31.0448 47.2928 32.625 46.9399 34.0054 46.7579C35.8867 46.5099 37.7758 46.3197 39.6687 46.1877C41.8836 46.0333 44.157 45.9681 46.289 46.5475C45.7695 46.2386 45.2172 45.9839 44.6521 45.7904Z" fill="#8E1C3A"/>
<path d="M70.6783 31.6727C69.7476 31.199 68.7903 30.7919 67.8134 30.4369C68.0048 30.5278 68.1954 30.6206 68.3846 30.7169C69.3388 31.2026 70.4054 32.0973 70.0838 33.1186C69.7982 34.0261 68.6521 34.2543 67.7161 34.4242C66.78 34.5942 65.6466 35.1436 65.7365 36.0906C65.7731 36.4757 66.0205 36.8063 66.2841 37.0894C67.0061 37.8643 67.9171 38.4525 68.5919 39.269C69.2667 40.0855 69.6728 41.2719 69.1721 42.2052C68.8081 42.8838 68.0663 43.2571 67.3605 43.5652C65.3334 44.4499 63.2231 45.1437 61.0664 45.6344C61.4562 47.5438 60.7084 49.6414 59.1987 50.8736C58.5179 51.4293 57.6228 51.9417 57.5353 52.8161C57.4718 53.4513 57.8769 54.0242 58.2114 54.568C59.8019 57.1528 60.0856 60.4986 58.9529 63.3143C58.8008 63.6922 58.5705 64.0895 58.2775 64.3739C58.3208 64.4729 58.3655 64.5709 58.4133 64.6669C58.6504 65.1438 59.0118 65.6283 59.5373 65.7153C60.3351 65.8476 60.9447 65.0205 61.2466 64.2701C62.3793 61.4544 62.0956 58.1087 60.5051 55.5238C60.1706 54.9801 59.7655 54.4072 59.829 53.7719C59.9165 52.8976 60.8116 52.3851 61.4923 51.8295C63.0021 50.5973 63.7498 48.4995 63.3599 46.5903C65.5166 46.0996 67.6271 45.4058 69.6541 44.5211C70.3599 44.213 71.1017 43.8396 71.4656 43.1611C71.9663 42.2277 71.5603 41.0412 70.8855 40.2249C70.2107 39.4084 69.2997 38.8203 68.5777 38.0452C68.314 37.7622 68.0666 37.4315 68.0301 37.0465C67.9401 36.0993 69.0735 35.5499 70.0096 35.3799C70.9457 35.21 72.0917 34.9819 72.3773 34.0744C72.6991 33.0532 71.6325 32.1583 70.6783 31.6727Z" fill="#8E1C3A"/>
<path d="M27.2935 32.6146C26.8212 32.8106 26.2964 33.0722 26.1615 33.5654C25.8807 34.5917 27.4582 35.1826 27.7035 36.2179C27.8652 36.9001 27.4057 37.6612 27.7087 38.2935C27.9741 38.8476 28.6839 39.0041 29.2979 39.0262C30.9556 39.0855 32.5864 38.6576 34.2015 38.2805C38.5907 37.2559 43.0627 36.5855 47.5595 36.2781C50.0719 36.1064 52.6106 36.0452 55.0594 35.4576C55.6307 35.3206 56.2136 35.1455 56.6631 34.7673C57.1126 34.3891 57.3974 33.7587 57.2111 33.2016C57.1281 32.9533 56.9569 32.6991 57.0453 32.4527C57.1517 32.1562 57.5413 32.1043 57.8029 31.9285C58.2237 31.6458 58.2792 31.0092 58.0402 30.562C57.8013 30.1149 57.3474 29.8259 56.8897 29.6077C55.5202 28.9543 53.9805 28.7642 52.4682 28.6414C43.7066 27.9305 35.3846 29.2578 27.2935 32.6146Z" fill="#DD2C5B"/>
<path d="M51.5704 46.9136C52.2657 47.4984 52.7221 48.3592 52.8161 49.2629C52.8732 49.8124 52.8321 50.4465 53.2361 50.8234C53.4532 51.0258 53.7593 51.1046 54.0555 51.1249C55.7454 51.2413 57.0984 49.7416 57.892 48.245C58.6855 46.7485 59.278 45.036 60.6448 44.0355C61.1087 43.6958 61.6575 43.443 61.9953 42.9777C62.3331 42.5125 62.3205 41.72 61.7943 41.4881C61.4233 41.3245 61.0009 41.512 60.6343 41.6852C57.9803 42.9377 55.1123 43.4945 52.1881 43.4905C51.4082 43.4895 50.2882 43.2743 49.817 44.0677C49.0393 45.3773 50.8033 46.2684 51.5704 46.9136Z" fill="#DD2C5B"/>
<path opacity="0.33" d="M29.5764 33.5107C29.1413 33.7752 28.6669 34.1427 28.6702 34.652C28.675 35.4029 29.6752 35.7035 30.4145 35.5716C31.7948 35.3253 32.9375 34.3981 34.1761 33.7408C37.9631 31.7314 42.6473 32.2587 46.5824 30.5577C46.7468 30.4867 46.9177 30.4051 47.0186 30.2571C47.3019 29.8414 46.8265 29.2971 46.3433 29.1572C45.7868 28.9961 45.1924 29.0754 44.619 29.1586C39.4569 29.908 34.1146 30.7523 29.5764 33.5107Z" fill="#002140"/>
<path d="M62.8656 38.7397C63.3291 38.7827 63.8069 38.8245 64.251 38.6854C64.6953 38.5465 65.1019 38.1793 65.1388 37.7153C65.1662 37.3718 64.9859 37.0358 64.7297 36.8054C64.4736 36.575 64.1489 36.4357 63.8223 36.3256C62.5302 35.8895 59.5809 35.448 58.9244 37.123C58.2335 38.8858 61.9409 38.6536 62.8656 38.7397Z" fill="#8E1C3A"/>
<path d="M60.2719 38.2253C62.0232 38.2253 63.443 36.8055 63.443 35.0542C63.443 33.3029 62.0232 31.8831 60.2719 31.8831C58.5206 31.8831 57.1008 33.3029 57.1008 35.0542C57.1008 36.8055 58.5206 38.2253 60.2719 38.2253Z" fill="#600C4E"/>
<path d="M61.8987 31.9641C61.9189 31.9973 61.9419 32.0328 61.9785 32.0458C62.0134 32.0583 62.0519 32.0471 62.0871 32.0357C62.2855 31.9726 62.4836 31.9095 62.6819 31.8464C62.6521 31.9951 62.6223 32.1437 62.5925 32.2925C62.8435 32.2945 63.0942 32.2965 63.3451 32.2986C63.2526 32.4527 63.16 32.6069 63.0674 32.7609C63.2325 32.7627 63.3974 32.7647 63.5625 32.7665C63.6369 32.7673 63.739 32.7995 63.725 32.8725C63.7203 32.8971 63.7018 32.9165 63.684 32.9343C63.4784 33.1418 63.2725 33.3495 63.0498 33.5384C62.9493 33.6236 62.8375 33.7083 62.7064 33.7215C62.588 33.7332 62.4724 33.6844 62.3656 33.6317C62.013 33.4574 61.4267 33.1477 61.2691 32.7612C61.1151 32.3835 61.4744 31.9515 61.7369 31.7158C61.7996 31.7932 61.8464 31.8781 61.8987 31.9641Z" fill="#600C4E"/>
<path opacity="0.33" d="M59.2467 32.7572C58.8827 32.9442 58.5896 33.2897 58.5225 33.6934C58.5069 33.7874 58.5035 33.8854 58.5309 33.9767C58.5644 34.0885 58.6415 34.1826 58.7294 34.2594C58.7998 34.321 58.8871 34.3758 58.98 34.3658C59.1281 34.3498 59.2059 34.189 59.2811 34.0604C59.5401 33.6185 60.0903 33.3683 60.5935 33.4635C60.7264 33.4887 60.9003 33.5179 60.9647 33.3989C60.9832 33.3646 60.987 33.3242 60.9868 33.2852C60.9838 32.395 59.7799 32.4832 59.2467 32.7572Z" fill="#002140"/>
<path d="M54.3429 32.9783C54.7222 33.0136 55.1136 33.0478 55.4772 32.9339C55.8409 32.8201 56.1737 32.5195 56.204 32.1397C56.2264 31.8585 56.0789 31.5833 55.8691 31.3947C55.6594 31.2059 55.3936 31.092 55.1262 31.0018C54.0683 30.6449 51.6537 30.2833 51.1162 31.6547C50.5506 33.098 53.5858 32.908 54.3429 32.9783Z" fill="#8E1C3A"/>
<path d="M54.7485 30.5729C55.078 29.1774 54.2139 27.7791 52.8185 27.4496C51.4231 27.1201 50.0247 27.9842 49.6953 29.3796C49.3658 30.7751 50.2299 32.1734 51.6253 32.5029C53.0207 32.8324 54.419 31.9683 54.7485 30.5729Z" fill="#600C4E"/>
<path d="M53.5512 27.4312C53.5678 27.4585 53.5865 27.4876 53.6165 27.4982C53.6451 27.5085 53.6766 27.4992 53.7055 27.49C53.8678 27.4384 54.0301 27.3867 54.1925 27.335C54.168 27.4567 54.1436 27.5785 54.1193 27.7001C54.3246 27.7018 54.53 27.7034 54.7354 27.7051C54.6596 27.8313 54.5838 27.9575 54.508 28.0837C54.6431 28.0853 54.7783 28.0868 54.9134 28.0883C54.9741 28.089 55.0578 28.1153 55.0464 28.1751C55.0425 28.1953 55.0273 28.2111 55.0129 28.2257C54.8446 28.3955 54.676 28.5656 54.4936 28.7203C54.4113 28.7902 54.3198 28.8596 54.2125 28.8702C54.1155 28.8799 54.0209 28.8399 53.9335 28.7967C53.6449 28.654 53.1649 28.4005 53.0358 28.084C52.9096 27.7748 53.2038 27.4211 53.4187 27.2282C53.4701 27.2912 53.5084 27.3608 53.5512 27.4312Z" fill="#600C4E"/>
<path opacity="0.33" d="M51.3801 28.0805C51.0821 28.2336 50.842 28.5166 50.7871 28.8471C50.7744 28.924 50.7716 29.0042 50.794 29.0789C50.8214 29.1704 50.8847 29.2474 50.9565 29.3103C51.0141 29.3607 51.0856 29.4056 51.1617 29.3975C51.283 29.3845 51.3466 29.2526 51.4083 29.1474C51.6203 28.7856 52.0708 28.5808 52.4828 28.6587C52.5916 28.6794 52.734 28.7033 52.7866 28.6059C52.8018 28.5778 52.8047 28.5447 52.8047 28.5127C52.8022 27.784 51.8166 27.8562 51.3801 28.0805Z" fill="#002140"/>
<path d="M50.1148 43.7666C50.4942 43.8019 50.8854 43.836 51.2491 43.7222C51.6128 43.6084 51.9456 43.3078 51.9759 42.9279C51.9983 42.6467 51.8507 42.3716 51.641 42.183C51.4313 41.9942 51.1654 41.8803 50.8981 41.7901C49.8403 41.4332 47.4256 41.0716 46.8881 42.443C46.3225 43.8863 49.3577 43.6961 50.1148 43.7666Z" fill="#8E1C3A"/>
<path d="M49.8249 42.5853C50.8388 41.5714 50.8388 39.9276 49.8249 38.9137C48.8111 37.8998 47.1672 37.8998 46.1534 38.9137C45.1395 39.9276 45.1395 41.5714 46.1534 42.5852C47.1672 43.5991 48.8111 43.5991 49.8249 42.5853Z" fill="#600C4E"/>
<path d="M49.3231 38.2193C49.3397 38.2466 49.3584 38.2756 49.3884 38.2863C49.4171 38.2965 49.4485 38.2873 49.4774 38.2781C49.6397 38.2265 49.8021 38.1747 49.9644 38.1231C49.94 38.2448 49.9156 38.3665 49.8912 38.4882C50.0966 38.4899 50.3019 38.4915 50.5073 38.4932C50.4315 38.6194 50.3558 38.7456 50.2799 38.8718C50.415 38.8733 50.5502 38.8749 50.6853 38.8764C50.746 38.8771 50.8298 38.9034 50.8183 38.9631C50.8144 38.9834 50.7993 38.9991 50.7848 39.0138C50.6165 39.1836 50.4479 39.3537 50.2655 39.5084C50.1833 39.5783 50.0919 39.6476 49.9845 39.6583C49.8875 39.668 49.7928 39.628 49.7055 39.5848C49.4168 39.4421 48.9369 39.1886 48.8077 38.8721C48.6817 38.5629 48.9757 38.2092 49.1907 38.0163C49.242 38.0794 49.2802 38.149 49.3231 38.2193Z" fill="#600C4E"/>
<path opacity="0.33" d="M47.1519 38.8687C46.8539 39.0217 46.6138 39.3046 46.559 39.6352C46.5463 39.7122 46.5435 39.7924 46.5659 39.8672C46.5933 39.9586 46.6566 40.0357 46.7284 40.0986C46.786 40.1489 46.8575 40.1939 46.9336 40.1857C47.0549 40.1726 47.1185 40.0408 47.1803 39.9357C47.3923 39.5739 47.8427 39.3691 48.2546 39.447C48.3634 39.4676 48.5058 39.4916 48.5585 39.3941C48.5737 39.366 48.5766 39.333 48.5766 39.301C48.5741 38.5722 47.5885 38.6445 47.1519 38.8687Z" fill="#002140"/>
<path d="M27.429 37.1856C27.8083 37.2208 28.1995 37.255 28.5632 37.1411C28.9269 37.0274 29.2597 36.7268 29.29 36.3469C29.3125 36.0657 29.1649 35.7906 28.9551 35.6019C28.7455 35.4133 28.4795 35.2993 28.2123 35.2091C27.1544 34.852 24.7398 34.4905 24.2023 35.862C23.6366 37.3053 26.6718 37.1151 27.429 37.1856Z" fill="#8E1C3A"/>
<path d="M27.1393 36.0041C28.1532 34.9903 28.1532 33.3465 27.1393 32.3326C26.1254 31.3187 24.4816 31.3187 23.4678 32.3326C22.4539 33.3465 22.4539 34.9903 23.4678 36.0041C24.4816 37.018 26.1254 37.018 27.1393 36.0041Z" fill="#600C4E"/>
<path d="M26.6372 31.6383C26.6538 31.6655 26.6725 31.6946 26.7026 31.7053C26.7312 31.7155 26.7626 31.7062 26.7915 31.697C26.9539 31.6453 27.1162 31.5936 27.2785 31.542C27.2542 31.6636 27.2297 31.7854 27.2053 31.907C27.4107 31.9087 27.6161 31.9104 27.8215 31.912C27.7456 32.0382 27.6699 32.1644 27.5941 32.2907C27.7291 32.2922 27.8644 32.2937 27.9994 32.2952C28.0602 32.2959 28.1439 32.3222 28.1324 32.382C28.1285 32.4022 28.1133 32.418 28.0989 32.4326C27.9306 32.6024 27.7621 32.7725 27.5797 32.9272C27.4975 32.9971 27.406 33.0665 27.2986 33.0771C27.2016 33.0868 27.1069 33.0468 27.0196 33.0036C26.7309 32.861 26.251 32.6074 26.1219 32.2909C25.9958 31.9818 26.2899 31.628 26.5048 31.4351C26.5563 31.4984 26.5945 31.5678 26.6372 31.6383Z" fill="#600C4E"/>
<path opacity="0.33" d="M24.4662 32.2876C24.1682 32.4407 23.9281 32.7237 23.8732 33.0542C23.8604 33.1311 23.8577 33.2114 23.8801 33.2861C23.9075 33.3776 23.9707 33.4547 24.0425 33.5175C24.1003 33.5679 24.1717 33.6129 24.2478 33.6047C24.369 33.5917 24.4327 33.4598 24.4944 33.3546C24.7064 32.9929 25.1569 32.788 25.5687 32.866C25.6775 32.8866 25.8199 32.9105 25.8726 32.8131C25.8878 32.785 25.8908 32.7519 25.8908 32.72C25.8883 31.9911 24.9028 32.0633 24.4662 32.2876Z" fill="#002140"/>
<path d="M40.2913 40.9686C40.6706 41.0039 41.0619 41.0381 41.4255 40.9242C41.7892 40.8104 42.1221 40.5098 42.1524 40.1299C42.1748 39.8487 42.0273 39.5736 41.8175 39.385C41.6078 39.1962 41.342 39.0823 41.0746 38.9921C40.0167 38.6352 37.6021 38.2736 37.0646 39.645C36.499 41.0882 39.5342 40.8982 40.2913 40.9686Z" fill="#8E1C3A"/>
<path d="M40.0015 39.7872C41.0154 38.7733 41.0154 37.1295 40.0015 36.1156C38.9877 35.1018 37.3439 35.1018 36.33 36.1156C35.3161 37.1295 35.3161 38.7733 36.33 39.7872C37.3439 40.8011 38.9877 40.8011 40.0015 39.7872Z" fill="#600C4E"/>
<path d="M39.4996 35.4213C39.5162 35.4486 39.5348 35.4777 39.5649 35.4883C39.5935 35.4986 39.6249 35.4893 39.6539 35.4802C39.8162 35.4285 39.9785 35.3768 40.1409 35.3252C40.1164 35.4468 40.092 35.5686 40.0677 35.6902C40.273 35.6919 40.4784 35.6936 40.6838 35.6952C40.6079 35.8214 40.5322 35.9476 40.4564 36.0739C40.5916 36.0754 40.7267 36.0769 40.8617 36.0784C40.9225 36.0791 41.0062 36.1054 40.9947 36.1652C40.9909 36.1854 40.9758 36.2012 40.9612 36.2158C40.793 36.3857 40.6244 36.5557 40.442 36.7105C40.3597 36.7803 40.2682 36.8497 40.1609 36.8603C40.0639 36.87 39.9693 36.83 39.8819 36.7869C39.5932 36.6442 39.1133 36.3906 38.9842 36.0741C38.8581 35.765 39.1522 35.4112 39.3671 35.2183C39.4185 35.2814 39.4568 35.3509 39.4996 35.4213Z" fill="#600C4E"/>
<path opacity="0.33" d="M37.3285 36.0707C37.0305 36.2237 36.7904 36.5067 36.7355 36.8372C36.7227 36.9141 36.72 36.9944 36.7424 37.0691C36.7698 37.1606 36.8329 37.2377 36.9049 37.3005C36.9624 37.3509 37.034 37.3959 37.1101 37.3877C37.2313 37.3746 37.295 37.2428 37.3567 37.1377C37.5687 36.7759 38.0192 36.5711 38.4312 36.649C38.54 36.6696 38.6824 36.6936 38.7351 36.5961C38.7503 36.568 38.7532 36.535 38.7532 36.503C38.7506 35.7741 37.765 35.8463 37.3285 36.0707Z" fill="#002140"/>
<path d="M43.9364 39.3797C44.3157 39.415 44.7069 39.4492 45.0706 39.3353C45.4343 39.2215 45.7671 38.921 45.7974 38.5411C45.8199 38.2599 45.6724 37.9847 45.4626 37.7961C45.2529 37.6074 44.987 37.4935 44.7197 37.4032C43.6618 37.0463 41.2472 36.6847 40.7097 38.0562C40.1439 39.4994 43.1792 39.3093 43.9364 39.3797Z" fill="#8E1C3A"/>
<path d="M43.6465 38.1985C44.6603 37.1846 44.6603 35.5408 43.6465 34.5269C42.6326 33.513 40.9888 33.513 39.9749 34.5269C38.961 35.5408 38.961 37.1846 39.9749 38.1985C40.9888 39.2123 42.6326 39.2123 43.6465 38.1985Z" fill="#600C4E"/>
<path d="M43.1446 33.8325C43.1612 33.8597 43.1799 33.8888 43.2099 33.8994C43.2386 33.9097 43.27 33.9004 43.2989 33.8913C43.4613 33.8397 43.6236 33.7879 43.7859 33.7363C43.7614 33.8581 43.7371 33.9797 43.7127 34.1013C43.9181 34.103 44.1235 34.1047 44.3288 34.1063C44.253 34.2325 44.1773 34.3588 44.1014 34.485C44.2365 34.4865 44.3717 34.488 44.5068 34.4895C44.5676 34.4902 44.6513 34.5165 44.6398 34.5763C44.6359 34.5965 44.6208 34.6123 44.6063 34.627C44.438 34.7968 44.2695 34.9668 44.0871 35.1216C44.0047 35.1915 43.9132 35.2608 43.806 35.2714C43.709 35.2811 43.6143 35.2411 43.527 35.198C43.2383 35.0553 42.7584 34.8017 42.6293 34.4852C42.5032 34.1761 42.7973 33.8224 43.0122 33.6294C43.0635 33.6925 43.1017 33.7622 43.1446 33.8325Z" fill="#600C4E"/>
<path opacity="0.33" d="M40.9734 34.4818C40.6755 34.6349 40.4353 34.9179 40.3804 35.2484C40.3677 35.3253 40.3649 35.4056 40.3873 35.4803C40.4147 35.5718 40.478 35.6489 40.5498 35.7117C40.6074 35.7621 40.6789 35.807 40.755 35.7989C40.8763 35.7857 40.9399 35.654 41.0016 35.5488C41.2137 35.187 41.6641 34.9822 42.0761 35.0601C42.1849 35.0808 42.3273 35.1047 42.3799 35.0073C42.3951 34.9792 42.3981 34.9461 42.398 34.9141C42.3956 34.1854 41.41 34.2575 40.9734 34.4818Z" fill="#002140"/>
</svg>
