<svg width="80" height="78" viewBox="0 0 80 78" fill="none" xmlns="http://www.w3.org/2000/svg">
<path d="M78.3766 6.87725C75.6992 2.62999 66.3624 0 43.8737 0C36.1937 0 28.4263 0.874772 21.2409 3.63353C18.8914 4.53557 12.8916 7.02384 12.7156 12.9922C12.6789 14.2358 13.4107 15.3606 13.6381 16.6076L14.5031 20.0676C14.4883 19.9507 14.4893 19.8481 14.4844 19.7477C19.223 41.4867 47.4181 39.6067 63.6489 33.4733C69.6996 31.1868 74.3692 28.0029 77.3074 22.0052C78.4543 19.6643 79.5316 16.4462 79.9033 13.8316C80.0161 13.0381 79.8687 12.2966 79.967 11.467C79.7986 9.82728 79.2175 8.21122 78.3766 6.87725Z" fill="#688EAD"/>
<path d="M19.5526 11.9476C20.5539 11.679 21.6211 11.7237 22.6159 11.4319C23.9797 11.0318 25.0763 10.0449 26.2501 9.24337C28.2087 7.90604 30.4885 7.04274 32.8415 6.74701C35.3366 6.43346 37.8829 6.74944 40.3711 6.385C42.9158 6.01234 45.3749 4.93267 47.9448 5.03606C50.3923 5.13459 52.6868 6.30172 55.1266 6.51984C57.9354 6.77089 60.8991 5.76843 63.5187 6.8126C64.7938 7.32078 65.8692 8.28181 67.1894 8.65717C68.0758 8.90917 69.0146 8.87975 69.9285 8.99799C71.9529 9.25984 73.805 10.2356 75.6068 11.1947C76.9869 11.9294 78.4661 12.7692 79.0721 14.2105C79.8485 16.0565 78.8741 18.2051 77.504 19.6658C75.0327 22.3005 71.4335 23.5367 67.9207 24.3788C60.1225 26.2481 52.0532 26.6394 44.0373 26.8688C37.8306 27.0466 31.5666 27.1275 25.4732 25.934C23.2144 25.4916 20.8842 24.8172 19.2372 23.2094C16.2584 20.3012 13.9377 13.4539 19.5526 11.9476Z" fill="#F4D09F"/>
<path d="M64.9811 9.95726C64.8334 10.404 64.4427 10.722 64.0544 10.9878C63.393 11.4406 62.6813 11.8202 61.9366 12.117C61.6232 12.242 61.2906 12.3612 61.0644 12.6114C60.8382 12.8617 60.7693 13.2925 61.0161 13.5226C61.1189 13.6186 61.2588 13.6649 61.397 13.6909C62.3172 13.8649 63.1947 13.2698 64.1181 13.1127C64.797 12.9972 65.4906 13.1218 66.1787 13.1496C66.8668 13.1774 67.6111 13.0859 68.1229 12.6249C68.289 12.4755 68.4288 12.2782 68.4423 12.0552C68.4558 11.8322 68.3049 11.5913 68.083 11.5648C68.9914 11.9395 69.9891 12.0958 70.9685 12.0167C71.2428 11.9946 71.5648 11.9175 71.6632 11.6605C71.7083 11.5428 71.6937 11.4101 71.6594 11.2888C71.4478 10.5386 70.597 10.1761 69.8282 10.0476C69.0594 9.91907 68.2261 9.90489 67.5919 9.45151C67.3016 9.24392 67.0743 8.95642 66.7776 8.75801C66.2211 8.38588 64.9833 8.12673 64.4687 8.56823C64.784 8.93725 65.1528 9.43815 64.9811 9.95726Z" fill="#F2C194"/>
<path d="M53.0887 14.7517C52.8579 15.2688 52.2354 15.4518 51.7032 15.6448C50.9126 15.9315 50.1754 16.3645 49.5399 16.9152C49.465 16.9802 49.3894 17.0494 49.348 17.1396C49.1809 17.5032 49.6833 17.8479 50.08 17.7946C50.4767 17.7413 50.8348 17.4908 51.235 17.4854C51.7126 17.4789 52.1224 17.8189 52.5867 17.9311C52.9235 18.0124 53.2762 17.971 53.6201 17.9292C55.1695 17.7407 56.7189 17.5523 58.2683 17.3639C58.8669 17.2911 59.5411 17.1738 59.8761 16.6724C59.9475 16.5655 60.0003 16.4367 59.9781 16.3101C59.938 16.0796 59.6829 15.9615 59.4579 15.8966C58.7627 15.6963 58.026 15.6409 57.3086 15.7349C57.1921 15.092 58.4198 14.9515 58.4841 14.3013C57.3823 14.0706 56.2803 13.84 55.1785 13.6094C54.0663 13.3766 52.927 13.1427 51.8016 13.3005C52.4411 13.4094 53.5383 13.8525 53.0887 14.7517Z" fill="#F2C194"/>
<path d="M60.4665 19.1902C61.3997 18.6645 62.194 17.78 62.3364 16.7183C64.1181 16.7441 66.0643 16.7153 67.4417 15.5851C67.7426 15.3382 68.0079 15.0437 68.3432 14.8462C68.7534 14.6046 69.2366 14.5267 69.707 14.4531C71.0094 14.2496 72.3119 14.0461 73.6143 13.8425C73.7667 13.8186 73.9301 13.7964 74.069 13.8636C74.3249 13.9875 74.3612 14.3415 74.2951 14.6181C74.0655 15.5791 73.096 16.1829 72.1437 16.4465C71.1913 16.7101 70.1781 16.7419 69.2551 17.0952C68.3776 17.4308 67.6355 18.0359 66.8539 18.5572C65.7853 19.2699 64.6199 19.8374 63.4 20.2393C60.7914 21.0985 58.0009 21.1869 55.2555 21.2679C53.8316 21.3099 52.3937 21.3508 50.9954 21.0788C52.367 20.0135 54.3155 20.5341 55.9093 20.3539C57.4233 20.1826 59.1263 19.9453 60.4665 19.1902Z" fill="#F2C194"/>
<path d="M35.2229 13.0513C35.6293 13.0891 36.0482 13.1257 36.4378 13.0038C36.8273 12.8819 37.1838 12.56 37.2163 12.1532C37.2403 11.8519 37.0823 11.5574 36.8577 11.3552C36.6331 11.1531 36.3483 11.0311 36.062 10.9345C34.929 10.5521 32.3428 10.165 31.7671 11.6338C31.1609 13.1794 34.4118 12.9758 35.2229 13.0513Z" fill="#BF9777"/>
<path d="M32.9484 12.6001C34.4841 12.6001 35.729 11.3551 35.729 9.81944C35.729 8.28374 34.4841 7.03881 32.9484 7.03881C31.4127 7.03881 30.1678 8.28374 30.1678 9.81944C30.1678 11.3551 31.4127 12.6001 32.9484 12.6001Z" fill="#600C4E"/>
<path d="M34.3748 7.10981C34.3925 7.13896 34.4126 7.17014 34.4447 7.18148C34.4753 7.19241 34.5091 7.18256 34.54 7.17271C34.7138 7.11737 34.8877 7.06203 35.0615 7.00669C35.0354 7.13708 35.0092 7.26746 34.9831 7.39771C35.203 7.39947 35.423 7.40122 35.643 7.40311C35.5618 7.53822 35.4806 7.67347 35.3994 7.80858C35.5441 7.8102 35.6889 7.81182 35.8336 7.81344C35.8988 7.81411 35.9883 7.84245 35.976 7.90643C35.9718 7.92803 35.9556 7.94504 35.9401 7.9607C35.7598 8.14251 35.5793 8.32472 35.384 8.49047C35.2959 8.56525 35.1979 8.63948 35.0829 8.65095C34.9789 8.66135 34.8776 8.61857 34.784 8.57227C34.4748 8.41948 33.9608 8.14791 33.8225 7.80885C33.6874 7.47762 34.0024 7.09888 34.2327 6.8921C34.288 6.95986 34.3289 7.03436 34.3748 7.10981Z" fill="#600C4E"/>
<path opacity="0.33" d="M32.0494 7.80534C31.7302 7.96933 31.4732 8.27235 31.4144 8.62639C31.4008 8.70886 31.3978 8.7947 31.4218 8.87474C31.4511 8.97274 31.5189 9.05535 31.5959 9.1227C31.6576 9.17669 31.7343 9.22487 31.8157 9.21596C31.9455 9.20193 32.0137 9.06088 32.0798 8.94817C32.3068 8.56079 32.7894 8.34132 33.2306 8.42487C33.3471 8.44687 33.4998 8.47252 33.556 8.36832C33.5722 8.33822 33.5755 8.30286 33.5753 8.26857C33.5726 7.48774 32.517 7.56508 32.0494 7.80534Z" fill="#002140"/>
<path d="M28.1719 18.6749C28.5783 18.7127 28.9973 18.7493 29.3868 18.6274C29.7763 18.5055 30.1328 18.1836 30.1652 17.7768C30.1892 17.4755 30.0312 17.181 29.8066 16.9788C29.582 16.7768 29.2972 16.6547 29.0109 16.5581C27.8779 16.1757 25.2916 15.7885 24.716 17.2574C24.1101 18.803 27.3609 18.5995 28.1719 18.6749Z" fill="#BF9777"/>
<path d="M28.6073 16.0869C28.9632 14.5929 28.0408 13.0933 26.5468 12.7373C25.0529 12.3813 23.5533 13.3038 23.1973 14.7978C22.8413 16.2917 23.7638 17.7913 25.2577 18.1473C26.7517 18.5033 28.2513 17.5808 28.6073 16.0869Z" fill="#600C4E"/>
<path d="M27.324 12.7334C27.3416 12.7626 27.3618 12.7938 27.3939 12.8052C27.4245 12.8162 27.4583 12.8063 27.4892 12.7965C27.663 12.7411 27.8369 12.6858 28.0107 12.6304C27.9845 12.7608 27.9583 12.8912 27.9323 13.0215C28.1523 13.0232 28.3722 13.025 28.5922 13.0269C28.5109 13.162 28.4298 13.2972 28.3487 13.4323C28.4934 13.4339 28.6382 13.4356 28.7829 13.4372C28.8481 13.4379 28.9377 13.4662 28.9254 13.5301C28.9213 13.5516 28.9051 13.5687 28.8895 13.5843C28.7092 13.7663 28.5288 13.9483 28.3334 14.114C28.2453 14.1887 28.1473 14.263 28.0323 14.2744C27.9284 14.2848 27.827 14.2419 27.7335 14.1958C27.4242 14.043 26.9103 13.7714 26.7719 13.4323C26.6368 13.1011 26.9518 12.7224 27.1821 12.5156C27.2372 12.5836 27.2781 12.6581 27.324 12.7334Z" fill="#600C4E"/>
<path opacity="0.33" d="M24.9986 13.429C24.6794 13.593 24.4224 13.896 24.3635 14.2499C24.3498 14.3324 24.3469 14.4182 24.371 14.4982C24.4003 14.5962 24.468 14.6788 24.5449 14.7461C24.6066 14.8 24.6833 14.8482 24.7647 14.8393C24.8945 14.8253 24.9627 14.6842 25.0288 14.5715C25.2559 14.1842 25.7384 13.9647 26.1796 14.0482C26.2961 14.0702 26.4486 14.0959 26.5051 13.9915C26.5214 13.9614 26.5245 13.9261 26.5244 13.8918C26.5218 13.1114 25.4662 13.1887 24.9986 13.429Z" fill="#002140"/>
<path d="M53.4058 19.9006C53.8122 19.9384 54.2312 19.975 54.6207 19.8531C55.0102 19.7312 55.3667 19.4093 55.3992 19.0025C55.4233 18.7012 55.2652 18.4067 55.0406 18.2045C54.816 18.0025 54.5312 17.8804 54.2449 17.7838C53.1119 17.4014 50.5257 17.0143 49.95 18.4831C49.344 20.0288 52.5949 19.8253 53.4058 19.9006Z" fill="#BF9777"/>
<path d="M51.9836 19.3146C53.4442 18.8404 54.2439 17.2719 53.7696 15.8113C53.2954 14.3507 51.7269 13.5511 50.2663 14.0253C48.8057 14.4995 48.0061 16.068 48.4803 17.5286C48.9546 18.9892 50.523 19.7888 51.9836 19.3146Z" fill="#600C4E"/>
<path d="M52.5577 13.9593C52.5754 13.9884 52.5955 14.0196 52.6278 14.0311C52.6584 14.042 52.6922 14.0322 52.7231 14.0223C52.8969 13.967 53.0708 13.9116 53.2446 13.8563C53.2184 13.9867 53.1922 14.1171 53.1662 14.2473C53.3862 14.2491 53.6061 14.2508 53.8261 14.2527C53.7448 14.3878 53.6637 14.5231 53.5825 14.6582C53.7272 14.6598 53.872 14.6614 54.0167 14.663C54.0817 14.6637 54.1714 14.692 54.1591 14.756C54.1549 14.7776 54.1387 14.7946 54.1232 14.8103C53.9428 14.9922 53.7624 15.1743 53.5671 15.3401C53.4789 15.4148 53.3809 15.4891 53.2659 15.5006C53.162 15.5109 53.0606 15.4682 52.9671 15.4219C52.6579 15.2691 52.1439 14.9975 52.0055 14.6586C51.8704 14.3273 52.1855 13.9486 52.4157 13.742C52.4709 13.8093 52.512 13.8838 52.5577 13.9593Z" fill="#600C4E"/>
<path opacity="0.33" d="M50.2324 14.6547C49.9132 14.8187 49.6562 15.1217 49.5973 15.4756C49.5836 15.5581 49.5807 15.6439 49.6047 15.7239C49.634 15.8219 49.7018 15.9045 49.7787 15.9719C49.8404 16.0259 49.9171 16.0739 49.9985 16.0652C50.1283 16.0511 50.1965 15.9101 50.2626 15.7974C50.4896 15.41 50.9722 15.1905 51.4134 15.2741C51.5299 15.2961 51.6824 15.3217 51.7388 15.2174C51.755 15.1873 51.7583 15.1519 51.7581 15.1176C51.7556 14.3371 50.6999 14.4144 50.2324 14.6547Z" fill="#002140"/>
<path d="M59.7041 14.091C60.1105 14.1288 60.5295 14.1654 60.919 14.0435C61.3086 13.9216 61.665 13.5997 61.6976 13.1929C61.7216 12.8916 61.5635 12.5971 61.3389 12.3949C61.1143 12.1929 60.8295 12.0708 60.5433 11.9742C59.4103 11.5918 56.824 11.2047 56.2483 12.6735C55.6422 14.2192 58.893 14.0157 59.7041 14.091Z" fill="#BF9777"/>
<path d="M59.5726 12.6233C60.5489 11.4379 60.3793 9.68554 59.1939 8.7093C58.0085 7.73306 56.2562 7.90261 55.2799 9.08802C54.3037 10.2734 54.4732 12.0258 55.6586 13.002C56.844 13.9783 58.5964 13.8087 59.5726 12.6233Z" fill="#600C4E"/>
<path d="M58.8561 8.14967C58.8738 8.17882 58.894 8.21001 58.926 8.22148C58.9566 8.23241 58.9904 8.22256 59.0213 8.21271C59.1951 8.15737 59.369 8.10202 59.5428 8.04668C59.5166 8.17707 59.4906 8.30746 59.4644 8.43771C59.6844 8.43946 59.9043 8.44122 60.1243 8.44311C60.043 8.57822 59.9619 8.71346 59.8807 8.84857C60.0254 8.85019 60.1702 8.85181 60.3149 8.85343C60.3799 8.8541 60.4696 8.88245 60.4573 8.9463C60.4531 8.96789 60.4369 8.9849 60.4214 9.00055C60.241 9.1825 60.0606 9.36458 59.8653 9.5302C59.7771 9.60497 59.6791 9.67921 59.5641 9.69068C59.4602 9.70107 59.3588 9.65829 59.2653 9.612C58.9561 9.4592 58.4421 9.18763 58.3037 8.84857C58.1686 8.51735 58.4837 8.13861 58.7139 7.93182C58.7693 7.99972 58.8102 8.07422 58.8561 8.14967Z" fill="#600C4E"/>
<path opacity="0.33" d="M56.5307 8.84507C56.2115 9.00907 55.9545 9.31208 55.8957 9.66599C55.8819 9.74846 55.8791 9.8343 55.9031 9.91434C55.9324 10.0123 56.0001 10.0949 56.0771 10.1622C56.1388 10.2161 56.2154 10.2643 56.2968 10.2554C56.4267 10.2414 56.4948 10.1003 56.561 9.98763C56.788 9.60025 57.2705 9.38078 57.7118 9.46433C57.8282 9.48633 57.9808 9.51198 58.0372 9.40764C58.0535 9.37754 58.0566 9.34218 58.0566 9.30789C58.0539 8.52747 56.9983 8.60481 56.5307 8.84507Z" fill="#002140"/>
<path d="M47.7877 8.61641C48.1941 8.6542 48.6131 8.69078 49.0026 8.5689C49.3922 8.44701 49.7486 8.1251 49.7812 7.71828C49.8052 7.41702 49.6471 7.1225 49.4225 6.92031C49.1979 6.71825 48.9131 6.59623 48.6269 6.49959C47.4939 6.11721 44.9076 5.73009 44.3319 7.19889C43.7258 8.7445 46.9766 8.54096 47.7877 8.61641Z" fill="#BF9777"/>
<path d="M48.2157 6.01394C48.5654 4.51863 47.6367 3.02298 46.1414 2.6733C44.6461 2.32362 43.1504 3.25234 42.8008 4.74765C42.4511 6.24295 43.3798 7.73861 44.8751 8.08829C46.3704 8.43797 47.8661 7.50925 48.2157 6.01394Z" fill="#600C4E"/>
<path d="M46.9396 2.67493C46.9573 2.70408 46.9774 2.73526 47.0096 2.74673C47.0402 2.75767 47.0739 2.74781 47.1048 2.73796C47.2787 2.68262 47.4525 2.62728 47.6264 2.57194C47.6002 2.70233 47.574 2.83271 47.548 2.96296C47.7678 2.96472 47.9879 2.96648 48.2079 2.96837C48.1266 3.10348 48.0455 3.23872 47.9642 3.37383C48.1089 3.37545 48.2538 3.37707 48.3984 3.37869C48.4635 3.37936 48.5531 3.40771 48.5408 3.47169C48.5367 3.49329 48.5205 3.51029 48.5049 3.52595C48.3246 3.70789 48.1442 3.88997 47.9488 4.05572C47.8607 4.1305 47.7627 4.20474 47.6477 4.21621C47.5438 4.22661 47.4424 4.18368 47.3489 4.13752C47.0397 3.98473 46.5257 3.71316 46.3873 3.37423C46.2522 3.043 46.5672 2.66426 46.7975 2.45748C46.8528 2.52497 46.8937 2.59948 46.9396 2.67493Z" fill="#600C4E"/>
<path opacity="0.33" d="M44.6143 3.37046C44.2951 3.53445 44.0381 3.83747 43.9792 4.19137C43.9656 4.27384 43.9626 4.35969 43.9867 4.43973C44.016 4.53772 44.0837 4.62033 44.1608 4.68768C44.2225 4.74167 44.2991 4.78972 44.3805 4.78094C44.5104 4.76691 44.5785 4.62586 44.6447 4.51316C44.8717 4.12578 45.3542 3.90631 45.7955 3.98986C45.912 4.01186 46.0646 4.03751 46.1209 3.93317C46.1371 3.90307 46.1403 3.86771 46.1402 3.83342C46.1375 3.05286 45.0819 3.1302 44.6143 3.37046Z" fill="#002140"/>
<path d="M71.4767 21.2852C71.8831 21.323 72.302 21.3596 72.6916 21.2377C73.0811 21.1158 73.4376 20.7939 73.4701 20.3871C73.4941 20.0858 73.3361 19.7913 73.1115 19.5891C72.8869 19.387 72.6021 19.265 72.3158 19.1684C71.1828 18.786 68.5966 18.3989 68.0209 19.8677C67.4147 21.4134 70.6656 21.2099 71.4767 21.2852Z" fill="#BF9777"/>
<path d="M71.918 18.6474C72.2409 17.1461 71.2857 15.6672 69.7844 15.3442C68.2831 15.0213 66.8042 15.9765 66.4813 17.4778C66.1583 18.9791 67.1136 20.458 68.6148 20.7809C70.1161 21.1039 71.595 20.1487 71.918 18.6474Z" fill="#600C4E"/>
<path d="M70.6286 15.3438C70.6463 15.373 70.6664 15.4042 70.6985 15.4157C70.7292 15.4266 70.7629 15.4167 70.7938 15.4069C70.9677 15.3515 71.1415 15.2962 71.3154 15.2409C71.2892 15.3712 71.263 15.5016 71.237 15.6319C71.457 15.6336 71.6768 15.6354 71.8968 15.6373C71.8156 15.7724 71.7345 15.9076 71.6533 16.0427C71.798 16.0444 71.9429 16.046 72.0876 16.0476C72.1528 16.0483 72.2422 16.0766 72.23 16.1405C72.2258 16.1621 72.2096 16.1791 72.1941 16.1947C72.0137 16.3765 71.8333 16.5588 71.638 16.7244C71.5498 16.7991 71.4518 16.8734 71.3368 16.8849C71.2329 16.8953 71.1315 16.8525 71.038 16.8062C70.7288 16.6534 70.2148 16.3818 70.0764 16.0429C69.9413 15.7117 70.2564 15.3329 70.4866 15.1261C70.5418 15.1939 70.5827 15.2684 70.6286 15.3438Z" fill="#600C4E"/>
<path opacity="0.33" d="M68.3033 16.0393C67.9841 16.2032 67.7271 16.5063 67.6682 16.8602C67.6545 16.9426 67.6516 17.0285 67.6756 17.1085C67.7049 17.2065 67.7727 17.2891 67.8496 17.3563C67.9113 17.4103 67.988 17.4585 68.0694 17.4496C68.1992 17.4356 68.2674 17.2945 68.3335 17.1818C68.5605 16.7944 69.0431 16.575 69.4843 16.6585C69.6008 16.6805 69.7534 16.7062 69.8097 16.6018C69.8259 16.5717 69.8292 16.5364 69.829 16.5021C69.8265 15.7217 68.7708 15.799 68.3033 16.0393Z" fill="#002140"/>
<path d="M79.9672 11.4668C79.2469 13.4694 77.7754 14.6869 76.4307 15.9307C74.6559 17.5722 72.8145 18.785 70.6227 19.8841C65.007 22.6999 58.7314 22.3588 52.5872 22.8914C44.2713 23.6123 33.4648 23.5876 25.6435 21.0108C20.2849 19.2454 16.9885 16.5922 12.7157 12.992C12.5458 17.9041 13.4397 22.3661 13.9176 25.4031C14.9459 31.9397 17.6078 39.3505 22.3566 43.9818C23.4526 45.0506 24.5683 45.9747 25.714 46.7755C26.5087 58.8039 47.8623 57.9864 55.2028 57.7018C60.4003 57.5003 65.1749 54.8942 66.7699 52.4855C67.8215 50.3958 67.9441 48.5228 67.8249 46.7108C71.2787 44.2416 74.1642 41.0033 76.0695 37.1687C79.0141 31.2424 78.8753 24.9782 79.6926 18.5788C79.9728 16.385 80.0533 13.744 79.9672 11.4668Z" fill="#8FBBEF"/>
<path d="M76.0695 37.1688C79.0141 31.2426 78.8753 24.9784 79.6926 18.5789C79.9728 16.3852 80.0533 13.744 79.9671 11.4668C78.4642 13.8667 77.6489 14.8647 76.2737 16.0746C74.3877 17.7337 72.8383 18.7432 70.6225 19.8843C69.7649 20.3259 68.8851 20.6235 67.9859 20.9745C67.5709 22.7547 67.2116 24.6207 66.7948 26.2911C64.8372 34.1363 60.3918 42.271 52.6963 45.632C51.562 46.1275 45.1817 46.5886 45.7636 48.1438C46.0352 48.8697 48.0503 49.062 48.5438 50.0344C49.0668 51.065 48.7991 53.0316 48.5924 54.1472C48.3968 55.2031 47.712 56.6336 48.0724 57.8156C50.93 57.8667 53.4608 57.7693 55.2026 57.7018C60.4 57.5003 65.1747 54.8942 66.7697 52.4855C67.8213 50.3958 67.9438 48.5228 67.8246 46.7108C71.2787 44.2416 74.164 41.0034 76.0695 37.1688Z" fill="#80ABD6"/>
<path d="M13.9529 19.8447C14.5148 19.7932 15.1265 19.7825 15.6393 20.055C16.0433 20.2696 16.3324 20.621 16.5771 20.9996C17.2711 22.074 17.7502 23.2408 18.8288 24.0102C20.9332 25.5113 23.6072 23.8415 25.7777 25.0915C26.3758 25.4359 26.8968 25.9301 27.4179 26.3783C27.9203 26.8104 28.4171 27.2492 28.933 27.6652C29.899 28.4441 30.9362 29.1495 32.1333 29.5179C33.544 29.9519 35.0038 29.8141 36.4194 29.4774C37.6752 29.1785 38.9093 28.6268 40.203 28.5139C40.852 28.4574 41.4865 28.5335 42.1028 28.7455C42.8818 29.0136 43.5693 29.4929 44.306 29.8539C45.7388 30.5562 47.2838 31.064 48.89 31.1111C50.5371 31.1593 52.145 30.6845 53.5695 29.8733C54.7407 29.2065 55.9735 28.5143 57.3233 28.2997C58.3842 28.131 59.4478 28.3617 60.4706 28.6326C61.7454 28.9701 63.0481 29.5307 64.3919 29.3628C66.4488 29.1059 67.4459 27.2468 68.7678 25.899C69.4848 25.1682 70.3365 24.5732 71.364 24.3993C72.2247 24.2537 73.0807 24.458 73.9409 24.4826C74.8234 24.5079 75.6241 24.2209 76.2192 23.5517C76.6615 23.0542 76.9851 22.4541 77.2389 21.8421C77.4461 21.3425 77.5025 20.8006 77.6773 20.291C77.832 19.8403 78.0872 19.6817 78.5629 19.7147C78.5629 19.4348 78.5629 19.1549 78.5629 18.8749C78.2461 18.9131 77.9861 19.0472 77.7469 19.2575C77.3403 19.6151 77.9362 20.2071 78.3408 19.8513C78.3932 19.8053 78.4909 19.7234 78.5629 19.7147C79.0914 19.651 79.1136 18.9133 78.5629 18.8751C77.9887 18.8351 77.4596 19.0222 77.129 19.5097C76.8391 19.9372 76.7562 20.473 76.6351 20.9645C76.4083 21.8862 75.8446 23.1146 74.9018 23.5066C74.2226 23.789 73.381 23.5889 72.6434 23.5324C71.6264 23.4544 70.6188 23.5976 69.7173 24.0979C68.7977 24.6084 68.071 25.3729 67.4014 26.1701C66.8337 26.846 66.2807 27.5995 65.5271 28.0819C64.6292 28.6566 63.5871 28.6347 62.5867 28.361C61.3226 28.0153 60.075 27.581 58.7651 27.4407C57.6566 27.3221 56.5704 27.5297 55.5423 27.9458C54.0312 28.5575 52.7031 29.5658 51.1223 30.0023C49.6003 30.4225 48.0246 30.3206 46.5264 29.8533C45.7377 29.6072 44.9828 29.2717 44.253 28.8859C43.5295 28.5035 42.8423 28.0727 42.0473 27.8485C40.799 27.4963 39.5539 27.7042 38.3335 28.0592C36.925 28.4687 35.5004 28.9722 34.0151 28.9622C31.3302 28.9441 29.4347 26.9714 27.515 25.3618C26.9875 24.9195 26.4584 24.4583 25.8251 24.1741C25.2424 23.9125 24.6286 23.7805 23.9917 23.7482C22.8335 23.6896 21.6499 24.0151 20.4998 23.8072C19.155 23.5641 18.4202 22.5179 17.7882 21.4017C17.2759 20.4969 16.742 19.5661 15.7204 19.1766C15.1609 18.9633 14.5415 18.9506 13.9526 19.0046C13.4191 19.0538 13.414 19.8941 13.9529 19.8447Z" fill="#E5E5B7"/>
<path d="M14.9726 24.1112C15.5414 23.9306 16.1079 23.9086 16.6122 24.2649C17.0564 24.5788 17.3621 25.0644 17.641 25.5206C18.2166 26.4622 18.6224 27.6541 19.4935 28.3739C19.9723 28.7696 20.5428 28.9685 21.1553 29.0379C21.8572 29.1174 22.5175 28.9539 23.189 28.7665C23.8547 28.5806 24.5405 28.407 25.2163 28.6533C25.812 28.8705 26.2757 29.2258 26.6851 29.7048C27.4796 30.6344 28.0339 31.8023 29.1098 32.4598C29.7105 32.8268 30.4493 33.0907 31.1586 33.0974C31.7695 33.1032 32.3388 32.8956 32.8878 32.6479C34.0996 32.1012 35.272 31.4283 36.6497 31.5411C37.7207 31.6287 38.6649 32.229 39.5623 32.7682C40.6661 33.4315 41.8276 34.1095 43.0927 34.4098C44.4183 34.7245 45.7405 34.4569 47.0035 34.0187C48.2234 33.5956 49.4496 33.0156 50.7623 32.9829C52.0185 32.9516 53.2303 33.4493 54.3316 34.0058C55.2675 34.4786 56.2045 34.9864 57.2758 35.0331C58.695 35.0949 60.0255 34.3509 61.2007 33.6411C61.8261 33.2634 62.4428 32.8406 63.1278 32.5763C63.8523 32.2967 64.6051 32.2356 65.3725 32.3332C66.1113 32.4271 66.8458 32.6153 67.5957 32.5455C68.364 32.474 69.0637 32.1825 69.6503 31.6814C70.6193 30.8534 70.9156 29.5778 71.6801 28.6018C72.0379 28.1449 72.5351 27.7358 73.0999 27.5745C73.6152 27.4274 74.1602 27.4089 74.6848 27.3049C75.5746 27.1285 76.3652 26.631 77.1049 26.1246C77.5186 25.8413 77.9242 25.5391 78.2983 25.2049C78.5612 24.97 78.8446 24.703 79.0007 24.3816C79.1597 24.0547 79.1173 23.6643 78.7746 23.4737C78.3018 23.2107 77.8777 23.9358 78.3507 24.1989C78.4149 24.2347 78.2966 24.1396 78.2882 24.1234C78.1902 23.9316 78.3565 24.2055 78.2582 24.0144C78.255 24.0082 78.2361 23.9265 78.2627 23.9765C78.2706 23.9916 78.2102 24.0927 78.2617 23.9868C78.1891 24.1357 78.1454 24.1737 78.024 24.303C77.724 24.6228 77.3762 24.9 77.0227 25.158C76.376 25.63 75.5811 26.1996 74.8512 26.4068C74.319 26.5579 73.7638 26.5875 73.2219 26.6862C72.6852 26.7839 72.2053 27.0045 71.7766 27.3414C70.7319 28.1626 70.3633 29.3661 69.6444 30.4269C69.2787 30.9665 68.7565 31.4071 68.1251 31.5957C67.4001 31.8122 66.6733 31.6914 65.943 31.5752C65.1786 31.4535 64.4274 31.3944 63.6619 31.5461C62.9545 31.6864 62.2963 32.0072 61.678 32.3691C60.4895 33.0645 59.2672 33.9881 57.8645 34.171C56.8293 34.306 55.9163 33.8723 55.0194 33.4154C53.9261 32.8585 52.8116 32.3608 51.5844 32.1932C50.2826 32.0153 49.0288 32.3895 47.8182 32.8319C46.6303 33.266 45.4173 33.7642 44.1287 33.7124C42.8442 33.6607 41.6205 33.0056 40.5335 32.3698C39.5893 31.8174 38.6634 31.1801 37.6015 30.873C36.4257 30.533 35.2112 30.7124 34.093 31.1686C32.9489 31.6352 31.805 32.5235 30.5109 32.1577C29.8765 31.9783 29.3236 31.6553 28.8721 31.1771C28.4584 30.7388 28.1302 30.2313 27.7746 29.747C27.0224 28.7222 26.0749 27.8208 24.7417 27.6999C23.3678 27.5752 22.1292 28.5107 20.7513 28.112C19.6719 27.7996 19.2599 26.6741 18.768 25.7781C18.2419 24.8196 17.6043 23.6879 16.5278 23.2792C15.9522 23.0606 15.3249 23.1191 14.7487 23.302C14.2361 23.4642 14.4554 24.2753 14.9726 24.1112Z" fill="#E5E5B7"/>
<path opacity="0.1" d="M30.9491 25.5226C29.6795 24.6086 28.2642 23.9651 26.8263 23.2847C25.3032 22.5641 21.1645 19.8056 19.8351 21.6163C14.1466 23.3097 19.16 33.2956 21.4776 36.6509C22.9262 38.748 28.3468 43.1749 30.695 39.6642C31.5309 38.4145 31.2208 36.3899 31.3378 34.9648C31.4757 33.2876 31.4597 31.5841 31.7204 29.9375C32.0296 27.9844 32.7909 26.8485 30.9491 25.5226Z" fill="#002140"/>
<path d="M38.6468 8.44648C38.3548 8.66825 38.1853 9.09787 38.3729 9.4129C38.482 9.59593 38.6823 9.70148 38.8746 9.79286C39.5174 10.0983 40.2491 10.4112 40.52 11.0693C40.815 11.786 40.4224 12.6051 39.9151 13.1911C39.3608 13.8316 38.657 14.3419 37.8759 14.6698C36.8991 15.0798 35.7775 15.2249 34.9726 15.9137C34.7778 16.0804 34.5962 16.3056 34.6124 16.5615C34.6344 16.9078 34.9938 17.1223 35.3188 17.2439C37.1382 17.9247 39.3021 17.5866 40.8272 16.3834C41.2132 16.0789 41.5645 15.721 42.0028 15.4981C42.5786 15.2054 43.2457 15.1736 43.886 15.0897C45.1334 14.926 46.3516 14.541 47.4666 13.9582C47.8889 13.7374 48.3034 13.4829 48.619 13.1257C48.7108 13.0217 48.7961 12.9042 48.8204 12.7676C48.869 12.4945 48.6515 12.2319 48.3946 12.1274C48.1376 12.0229 47.8505 12.0364 47.5731 12.0407C46.844 12.0519 46.1021 11.9854 45.4236 11.7184C44.7451 11.4514 44.1315 10.9658 43.8232 10.305C43.6889 10.0171 43.6141 9.7027 43.4609 9.42438C43.2338 9.01203 42.848 8.70698 42.4332 8.48414C41.4132 7.93614 39.6496 7.68482 38.6468 8.44648Z" fill="#F2DCA5"/>
<path d="M32.8045 41.9461C30.2417 41.9168 27.7019 42.1605 25.1545 42.2792C20.0598 42.5167 14.9561 42.5019 9.83918 42.5019C7.99778 42.5019 6.18902 42.391 4.36618 42.3907C3.47908 42.3905 2.58478 42.3582 1.69816 42.3907C1.27276 42.4062 -0.231233 42.5318 0.030338 42.6131V42.8354C0.0192992 44.2652 0.170964 45.948 1.15422 47.006C2.00948 54.5778 4.51752 72.8581 6.25653 74.3001C10.8151 78.0804 25.8248 78.3027 29.7834 74.1394C31.2826 72.5626 33.6175 55.7131 34.4339 47.6626C35.3285 47.0482 34.6998 45.6745 34.8964 44.3637C35.2634 41.9178 35.0694 41.9719 32.8045 41.9461Z" fill="#EFE0CB"/>
<path d="M17.1525 36.1645C7.91412 36.265 -0.192026 38.944 0.0303493 42.3907C0.252725 45.8373 5.58734 49.6176 17.3748 49.6176C30.5686 49.6176 34.7637 47.532 35.3865 42.7983C35.9424 38.5735 27.3814 36.0533 17.1525 36.1645Z" fill="#EF6A60"/>
<path d="M29.8576 74.1395C31.2207 72.7059 33.2744 58.6492 34.2496 50.0574C33.1365 50.3983 32.0137 50.8947 31.3098 51.0422C28.9276 51.5417 26.4569 51.8669 24.0623 52.2285C21.7289 52.5808 19.3322 52.6819 16.856 52.6568C14.6001 52.6339 11.4211 52.5299 9.51793 51.3967L9.592 51.6932C10.632 52.3987 12.6803 52.8236 14.0394 53.0998C18.9019 54.088 23.853 54.4399 28.6302 55.4104C28.7605 57.9775 28.5686 60.6207 28.3488 63.1778C28.1103 65.9534 27.4446 68.915 26.7922 71.5616C26.058 74.5401 22.181 75.1896 19.6151 75.1896C16.163 75.1896 12.4957 75.2704 9.20308 74.3208C8.25103 74.0463 6.78191 73.0419 5.67291 73.0921C5.90057 73.7064 6.12118 74.1266 6.33076 74.3003C10.8891 78.0805 25.8988 78.3029 29.8576 74.1395Z" fill="#E8D2BF"/>
<path d="M36.4798 48.1515C35.5525 46.6264 36.5761 43.4994 34.3488 42.8726C33.2469 42.5625 31.9616 42.8159 31.1615 43.6141C30.7204 44.054 29.4319 47.2179 30.791 46.8752L31.0133 47.2459C32.2574 47.1348 33.1073 48.2345 33.3852 49.2488C33.6929 50.3721 34.4517 51.356 35.4588 52.0079C36.4921 52.6768 37.5592 52.6149 37.8161 51.2483C38.0641 49.9289 37.0946 49.1626 36.4798 48.1515Z" fill="#EF6A60"/>
<path opacity="0.3" d="M6.40483 51.6004C5.67675 51.3558 4.79557 51.1707 4.25035 51.4811C4.11069 51.4715 4.0147 51.5746 3.9515 51.7529C3.81584 51.9472 3.73617 52.2165 3.73633 52.5825C3.73649 52.9878 3.80672 53.4108 3.91407 53.8181C3.98254 54.5015 4.08141 55.1064 4.10301 55.2546C4.38842 57.2105 4.91268 59.2146 5.21649 61.2008C5.50973 63.1177 5.58812 65.0154 5.80778 66.9454C5.95272 68.22 6.42883 71.6364 8.25375 71.4833C10.5183 71.2933 9.14709 66.492 9.14709 65.0573C9.14709 62.3907 9.95868 60.0966 10.5389 57.5466C11.1998 54.6433 8.97127 52.4629 6.40483 51.6004Z" fill="#002140"/>
<path d="M29.7098 59.6522C32.4839 63.957 31.7064 69.397 27.9732 71.8027C24.24 74.2083 19.1129 72.1698 15.5219 68.5187C11.5916 64.5227 12.0852 58.1013 15.8184 55.6956C19.5515 53.29 26.9357 55.3473 29.7098 59.6522Z" fill="#002140"/>
<path d="M29.7098 59.6522C29.3905 59.1567 29.0368 58.6996 28.6573 58.279C28.6147 59.919 28.4874 61.5655 28.3488 63.1777C28.1103 65.9532 27.4446 68.9148 26.7924 71.5614C26.7017 71.9297 26.5625 72.2621 26.3839 72.5624C26.9351 72.3784 27.4686 72.1277 27.9734 71.8025C31.7064 69.397 32.4839 63.9571 29.7098 59.6522Z" fill="#DDDDDD"/>
<path d="M20.0504 56.9422C20.1469 56.8182 20.2726 56.7741 20.4078 56.8022C20.5929 56.8409 20.6991 57.0225 20.6641 57.19C20.6494 57.2606 20.6065 57.3191 20.5303 57.4044L19.8664 58.1457L19.7762 58.5777C19.7288 58.8039 19.5708 58.9151 19.3621 58.8714C19.1535 58.8279 19.0531 58.6627 19.1004 58.4364L19.1906 58.0045L18.8792 57.0591C18.8436 56.9505 18.8276 56.8798 18.8425 56.8093C18.8776 56.6418 19.0476 56.5178 19.2327 56.5565C19.3679 56.5846 19.4653 56.6757 19.5041 56.8278L19.6588 57.4521L20.0504 56.9422Z" fill="#EF6A60"/>
<path d="M22.223 57.3903C22.756 57.6015 23.1229 58.1506 22.8442 58.8538C22.5554 59.5822 21.9276 59.708 21.389 59.4946C20.8503 59.2811 20.4791 58.7593 20.7678 58.0309C21.0466 57.3276 21.6899 57.179 22.223 57.3903ZM22.0239 57.8927C21.756 57.7864 21.5392 57.9589 21.4098 58.2854C21.2803 58.6119 21.3202 58.886 21.5881 58.9922C21.8561 59.0984 22.0729 58.926 22.2023 58.5995C22.3317 58.2729 22.2917 57.9987 22.0239 57.8927Z" fill="#EF6A60"/>
<path d="M24.1584 60.0484C24.0691 59.9929 24.0293 59.8692 24.0975 59.7597C24.1735 59.6373 24.2915 59.601 24.419 59.6803L24.7964 59.9148C24.9698 60.0227 24.9958 60.2084 24.8991 60.3639L24.5728 60.8891C24.4998 61.0064 24.3814 61.1061 24.2183 61.0046C24.0984 60.9301 24.0768 60.8 24.137 60.7032L24.1687 60.6522L24.1635 60.649C23.9783 60.7424 23.6956 60.6799 23.494 60.5546C23.0835 60.2996 22.7368 59.7766 23.1964 59.0372C23.6274 58.3436 24.3038 58.3928 24.7168 58.6495C25.3084 59.0172 25.2852 59.4128 25.1965 59.5555C25.1236 59.6728 24.9396 59.7528 24.756 59.6387C24.5673 59.5214 24.7096 59.2811 24.452 59.1212C24.2557 58.9991 24.0047 59.0447 23.7765 59.4119C23.5833 59.7229 23.5454 59.9716 23.8412 60.1554C24.0223 60.2679 24.1733 60.2523 24.3013 60.1374L24.1584 60.0484Z" fill="#EF6A60"/>
<path d="M26.9603 60.8336C27.1133 60.6604 27.3057 60.642 27.4656 60.7829C27.6254 60.924 27.6311 61.1171 27.4782 61.2905L26.8226 62.0335C26.3895 62.5243 25.9014 62.4059 25.4555 62.0125C25.0098 61.6191 24.8316 61.1496 25.2647 60.6588L25.9203 59.9158C26.0732 59.7425 26.2657 59.7241 26.4255 59.8651C26.5853 60.0062 26.5911 60.1994 26.438 60.3727L25.7864 61.111C25.6375 61.28 25.6189 61.4598 25.8013 61.6206C25.9837 61.7815 26.1598 61.7407 26.3087 61.5719L26.9603 60.8336Z" fill="#EF6A60"/>
<path d="M27.8478 61.7931C28.0698 61.6092 28.245 61.6278 28.4346 61.8567L28.923 62.4464C29.2601 62.8534 29.194 63.2161 28.9396 63.4268C28.7222 63.6069 28.472 63.5919 28.2623 63.4186L28.2576 63.4225C28.3858 63.6008 28.4239 63.7644 28.2672 63.933L28.1439 64.0664C28.0748 64.143 27.9988 64.2256 27.9295 64.283C27.8023 64.3884 27.6227 64.3267 27.5288 64.2134C27.4005 64.0584 27.3656 63.8846 27.5144 63.7301L27.7131 63.5226C27.8337 63.3953 27.7964 63.2703 27.6931 63.1454L27.5206 62.9372L27.1762 63.2226C26.9981 63.3701 26.822 63.3601 26.6841 63.1935C26.5461 63.027 26.569 62.8523 26.7471 62.7048L27.8478 61.7931ZM28.0877 62.916C28.216 63.071 28.3164 63.0931 28.4296 62.9993C28.5429 62.9054 28.5397 62.8028 28.4114 62.6478L28.1911 62.3819L27.8673 62.6501L28.0877 62.916Z" fill="#EF6A60"/>
<path d="M29.3161 63.8899C29.2144 63.7234 29.2664 63.5896 29.4073 63.5037C29.5482 63.4177 29.6909 63.4325 29.805 63.6196L30.5745 64.8799C30.6888 65.0669 30.6368 65.2007 30.4958 65.2866C30.3549 65.3726 30.2122 65.3578 30.1106 65.1912L29.8932 64.8351L28.8096 65.4968C28.6123 65.6173 28.4231 65.5781 28.3121 65.3962C28.201 65.2143 28.2525 65.028 28.4498 64.9076L29.5334 64.2459L29.3161 63.8899Z" fill="#EF6A60"/>
<path d="M24.8334 63.2913C24.3542 62.3891 23.1113 61.5689 22.0813 61.9858C21.3577 62.2789 20.7541 62.8507 20.1043 63.2937C19.5743 63.2177 18.8551 63.5648 18.5229 63.8861C17.8161 64.5692 17.5993 65.6534 17.8648 66.5895C18.4128 68.5213 20.2764 69.7486 22.0527 70.3996C22.6701 70.6258 23.6834 70.7756 24.3435 70.53C25.4912 70.103 25.4893 69.0857 25.5282 68.251C25.6021 66.6648 25.5942 64.7234 24.8334 63.2913Z" fill="#ED4B48"/>
<path d="M18.6118 64.9887C18.6227 65.3142 18.7035 65.6571 18.79 65.9718C18.8198 66.0801 18.9476 66.3055 19.0263 66.0911C19.0572 66.0068 18.923 65.9708 18.8923 66.0542C18.9601 66.0655 18.9782 66.0494 18.9462 66.0054C18.9326 65.9695 18.9233 65.9319 18.9131 65.8951C18.8903 65.8129 18.8731 65.7289 18.8556 65.6454C18.8104 65.4291 18.7582 65.2098 18.7507 64.9887C18.7478 64.8992 18.6088 64.8991 18.6118 64.9887Z" fill="#EACE49"/>
<path d="M19.5357 64.7151C19.6331 64.7794 19.7019 64.9087 19.7635 65.0044C19.7989 65.0594 19.8323 65.1157 19.8642 65.1728C19.8745 65.1915 19.8843 65.2104 19.8939 65.2296C19.9003 65.2424 19.9011 65.2656 19.9033 65.2459C19.9149 65.2259 19.9262 65.2059 19.9377 65.186C19.9616 65.1872 19.9853 65.1885 20.0091 65.1898C19.9433 65.129 19.845 65.2271 19.9109 65.288C19.9621 65.3354 20.0345 65.317 20.0427 65.2432C20.0488 65.189 19.9899 65.1125 19.9653 65.0691C19.8745 64.909 19.7637 64.6993 19.6059 64.5953C19.5307 64.5455 19.4612 64.666 19.5357 64.7151Z" fill="#EACE49"/>
<path d="M20.9948 64.2318C21.1125 64.346 21.2579 64.4363 21.3979 64.5206C21.4749 64.567 21.5448 64.4467 21.468 64.4006C21.3379 64.3224 21.2023 64.2397 21.093 64.1336C21.0287 64.071 20.9304 64.1693 20.9948 64.2318Z" fill="#EACE49"/>
<path d="M22.0374 63.6032C22.2444 63.7231 22.4416 63.856 22.6655 63.9439C22.749 63.9766 22.7848 63.8421 22.7024 63.8098C22.4906 63.7268 22.3034 63.5967 22.1074 63.4833C22.0297 63.4383 21.9598 63.5585 22.0374 63.6032Z" fill="#EACE49"/>
<path d="M23.3231 62.6955C23.4127 62.6955 23.4127 62.5565 23.3231 62.5565C23.2335 62.5566 23.2335 62.6955 23.3231 62.6955Z" fill="#EACE49"/>
<path d="M23.2881 62.6861C23.439 62.7798 23.5513 62.9333 23.705 63.0196C23.7832 63.0636 23.8533 62.9435 23.7752 62.8997C23.712 62.8641 23.6581 62.8046 23.6037 62.7574C23.5257 62.6896 23.4463 62.6208 23.3582 62.5661C23.2818 62.5186 23.2121 62.6389 23.2881 62.6861Z" fill="#EACE49"/>
<path d="M18.5865 67.0918C18.6542 67.2893 18.7387 67.5228 18.8823 67.6785C18.9433 67.7444 19.0414 67.646 18.9806 67.5803C18.8543 67.4436 18.7796 67.2278 18.7204 67.055C18.6916 66.9706 18.5574 67.0069 18.5865 67.0918Z" fill="#EACE49"/>
<path d="M19.7886 66.6915C19.8614 66.8315 19.9672 66.9552 20.0774 67.067C20.1405 67.1309 20.2387 67.0326 20.1756 66.9688C20.0729 66.8648 19.9763 66.7518 19.9086 66.6215C19.8674 66.5418 19.7475 66.612 19.7886 66.6915Z" fill="#EACE49"/>
<path d="M21.2728 65.9828C21.4006 66.1118 21.5355 66.2886 21.7204 66.3343C21.8074 66.3558 21.8444 66.2218 21.7574 66.2002C21.6001 66.1614 21.48 65.9945 21.3712 65.8846C21.3078 65.8209 21.2096 65.9192 21.2728 65.9828Z" fill="#EACE49"/>
<path d="M22.5683 65.3851C22.6619 65.5104 22.7483 65.6477 22.8571 65.7606C22.9193 65.8252 23.0176 65.7268 22.9553 65.6624C22.8547 65.5579 22.7749 65.431 22.6883 65.315C22.6352 65.244 22.5146 65.3133 22.5683 65.3851Z" fill="#EACE49"/>
<path d="M23.68 64.9125C23.7428 65.0055 23.8221 65.0911 23.8746 65.1904C23.9165 65.2698 24.0363 65.1995 23.9946 65.1203C23.9421 65.021 23.8627 64.9354 23.8 64.8424C23.7503 64.7685 23.6298 64.838 23.68 64.9125Z" fill="#EACE49"/>
<path d="M24.5625 64.4235C24.622 64.5679 24.7201 64.7182 24.7268 64.8775C24.7307 64.9668 24.8695 64.9671 24.8658 64.8775C24.8583 64.7014 24.7622 64.5457 24.6966 64.3865C24.663 64.3049 24.5284 64.3406 24.5625 64.4235Z" fill="#EACE49"/>
<path d="M20.1331 68.5957C20.2759 68.7675 20.4721 68.9049 20.6753 68.9956C20.7564 69.0318 20.8271 68.9121 20.7453 68.8756C20.5513 68.7889 20.3678 68.6616 20.2313 68.4973C20.174 68.4285 20.0763 68.5273 20.1331 68.5957Z" fill="#EACE49"/>
<path d="M21.4536 68.1341C21.5724 68.2239 21.6902 68.3384 21.8315 68.3912C21.9156 68.4227 21.9516 68.2883 21.8684 68.2571C21.7419 68.2098 21.6302 68.0943 21.5236 68.014C21.4521 67.9601 21.383 68.0808 21.4536 68.1341Z" fill="#EACE49"/>
<path d="M22.7629 67.4142C22.8562 67.5665 22.9681 67.7058 23.0795 67.8452C23.1355 67.9153 23.2331 67.8161 23.1777 67.747C23.0737 67.6169 22.9699 67.4865 22.8829 67.3441C22.8362 67.2678 22.716 67.3376 22.7629 67.4142Z" fill="#EACE49"/>
<path d="M24.0458 66.8371C24.1354 66.8371 24.1354 66.6981 24.0458 66.6981C23.9562 66.6981 23.9562 66.8371 24.0458 66.8371Z" fill="#EACE49"/>
<path d="M23.9858 66.8027C24.0896 66.9384 24.1437 67.0918 24.1733 67.2587C24.189 67.3468 24.3229 67.3094 24.3073 67.2217C24.2758 67.0445 24.216 66.8767 24.1058 66.7327C24.0522 66.6624 23.9314 66.7315 23.9858 66.8027Z" fill="#EACE49"/>
<path d="M25.0073 66.3135C25.0583 66.4521 25.0617 66.6048 25.0351 66.7491C25.019 66.8368 25.153 66.8741 25.1692 66.7861C25.2001 66.6181 25.201 66.4386 25.1413 66.2767C25.1106 66.1932 24.9762 66.2294 25.0073 66.3135Z" fill="#EACE49"/>
<path d="M21.8983 69.8296C22.0818 69.9362 22.3028 70.0269 22.5171 70.0337C22.6069 70.0366 22.6066 69.8976 22.5171 69.8947C22.3277 69.8888 22.1301 69.8035 21.9686 69.7096C21.8908 69.6645 21.8209 69.7847 21.8983 69.8296Z" fill="#EACE49"/>
<path d="M22.8293 69.1794C22.9537 69.3266 23.1449 69.4336 23.3324 69.4752C23.4198 69.4946 23.4569 69.3607 23.3694 69.3412C23.2028 69.3042 23.038 69.2117 22.9275 69.081C22.8696 69.0126 22.7718 69.1114 22.8293 69.1794Z" fill="#EACE49"/>
<path d="M23.8746 68.7484C23.9485 68.851 23.9867 68.9692 24.0413 69.082C24.0805 69.1626 24.2003 69.0921 24.1613 69.0119C24.1066 68.8991 24.0683 68.7811 23.9946 68.6784C23.9429 68.6062 23.8221 68.6755 23.8746 68.7484Z" fill="#EACE49"/>
<path d="M25.0906 68.0925C25.1205 68.216 25.1404 68.3459 25.1185 68.4725C25.1033 68.5602 25.2372 68.5976 25.2525 68.5094C25.2789 68.3571 25.2608 68.2048 25.2247 68.0556C25.2036 67.9685 25.0697 68.0055 25.0906 68.0925Z" fill="#EACE49"/>
<path d="M23.5826 70.1979C23.761 70.268 23.9629 70.3363 24.157 70.3116C24.2446 70.3004 24.2457 70.1614 24.157 70.1726C23.9743 70.1958 23.7874 70.1299 23.6196 70.064C23.5361 70.031 23.5002 70.1656 23.5826 70.1979Z" fill="#EACE49"/>
<path d="M24.1078 69.8465C24.1845 69.9217 24.2947 70.0254 24.4072 70.0337C24.4966 70.0403 24.496 69.9013 24.4072 69.8947C24.3885 69.8933 24.336 69.855 24.3113 69.8374C24.2741 69.8107 24.2389 69.7803 24.2062 69.7483C24.1422 69.6854 24.0439 69.7837 24.1078 69.8465Z" fill="#EACE49"/>
<path d="M24.9353 69.3666C25.0249 69.3666 25.0249 69.2276 24.9353 69.2276C24.8457 69.2276 24.8457 69.3666 24.9353 69.3666Z" fill="#EACE49"/>
<path d="M24.8682 69.3156C24.8913 69.4397 24.8964 69.5719 24.8682 69.6955C24.8484 69.7829 24.9825 69.8198 25.0023 69.7325C25.0362 69.5832 25.03 69.4283 25.0023 69.2786C24.986 69.1905 24.8521 69.2279 24.8682 69.3156Z" fill="#EACE49"/>
<path d="M20.1768 62.2064C19.909 61.9404 19.7267 61.3717 19.5652 61.0183C19.2302 61.1184 18.6253 61.4054 18.3797 61.6743C18.8612 61.981 19.3765 62.3693 19.7283 62.8166C18.7747 62.6411 17.65 63.3545 16.9398 63.9339C17.4382 63.9261 17.9351 63.9407 18.4302 63.8986C18.8369 63.864 19.6116 63.7933 19.9318 63.5434L19.745 63.6056C20.2606 63.4111 20.7629 63.0665 21.1618 62.6614C21.4022 62.4173 21.6501 62.1384 21.8288 61.8492C22.0019 61.5692 21.9974 61.1038 22.2567 60.9013C21.3674 60.8861 20.4558 61.3419 20.1768 62.2064Z" fill="#53B748"/>
<g opacity="0.5">
<path d="M3.162 43.0954C3.26759 44.9699 5.46127 45.7502 6.97583 46.2002C9.20214 46.8619 11.606 47.257 13.9109 47.4759C17.2126 47.7893 20.5121 47.5637 23.801 47.2249C26.1596 46.9819 28.7213 46.6942 30.7647 45.3915C31.6987 44.796 32.4917 43.8659 32.772 42.7809C33.0259 41.7981 32.585 40.8651 31.9137 40.1666C30.0738 38.2519 26.9146 37.7931 24.428 37.4669C21.2338 37.0478 18.0375 37.1903 14.8306 37.3154C12.2208 37.4173 9.4434 37.5554 7.01838 38.6209C5.63293 39.2296 4.28684 40.1615 3.71011 41.6127C3.89216 41.6373 4.07406 41.662 4.25612 41.6866C4.25612 41.6162 4.25612 41.5458 4.25612 41.4753C4.25612 41.1168 3.70018 41.1168 3.70018 41.4753C3.70018 41.5457 3.70018 41.616 3.70018 41.6866C3.70018 42.0203 4.13566 42.0386 4.24621 41.7605C4.78999 40.3922 6.20919 39.5376 7.51849 39.0114C8.80042 38.4962 10.1881 38.2532 11.5544 38.0956C12.9005 37.9405 14.2569 37.891 15.6101 37.8422C17.1881 37.7854 18.7609 37.7042 20.3408 37.732C22.0894 37.7629 23.837 37.9073 25.5631 38.1911C27.0199 38.4308 28.4733 38.7634 29.8116 39.4019C30.8332 39.8894 31.9593 40.6344 32.2471 41.7996C32.5557 43.0484 31.4315 44.2762 30.4843 44.9114C28.5749 46.1917 26.0269 46.4362 23.8012 46.6688C20.7874 46.9838 17.7782 47.1823 14.7484 46.9865C12.4411 46.8374 10.1142 46.4205 7.86805 45.8653C6.49364 45.5257 3.81889 44.8831 3.7181 43.0954C3.69779 42.7391 3.14185 42.737 3.162 43.0954Z" fill="#002140"/>
</g>
<path opacity="0.1" d="M23.2467 38.1825C22.0292 37.226 19.7021 37.4616 18.2477 37.4616C14.1499 37.4616 9.69855 37.7366 5.81002 39.0925C4.58103 39.5211 3.0692 40.3125 2.42079 41.4805C2.41855 41.4847 2.41663 41.4892 2.41439 41.4933C2.00468 41.9461 1.76102 42.5267 1.8095 43.2428C1.90421 44.6442 3.49827 45.1665 4.68374 45.5985C6.08071 46.1076 7.65621 46.4334 9.13109 46.0594C11.5019 45.4583 9.40786 44.4329 9.66239 42.8724C9.971 40.9808 13.7674 40.8529 15.1512 40.7229C17.2854 40.5223 19.389 40.3068 21.5257 40.2037C22.5115 40.1564 24.7236 39.3427 23.2467 38.1825Z" fill="#002140"/>
</svg>
