<svg width="221" height="118" viewBox="0 0 221 118" fill="none" xmlns="http://www.w3.org/2000/svg">
<path d="M1.9069 53.3819V53.3819C35.4497 33.8153 76.9273 33.8153 110.47 53.3819V53.3819V53.3819C144.013 72.9486 185.491 72.9486 219.033 53.3819V53.3819" stroke="#002140" stroke-opacity="0.2" stroke-width="2.46923" stroke-linecap="round" stroke-linejoin="round"/>
<path d="M1.9069 42.5256V42.5256C35.4497 22.959 76.9273 22.959 110.47 42.5256V42.5256V42.5256C144.013 62.0923 185.491 62.0923 219.033 42.5256V42.5256" stroke="#002140" stroke-opacity="0.2" stroke-width="2.46923" stroke-linecap="round" stroke-linejoin="round"/>
<path d="M1.9069 31.6692V31.6692C35.4497 12.1026 76.9273 12.1026 110.47 31.6692V31.6692V31.6692C144.013 51.2359 185.491 51.2359 219.033 31.6692V31.6692" stroke="#002140" stroke-opacity="0.2" stroke-width="2.46923" stroke-linecap="round" stroke-linejoin="round"/>
<path d="M1.9069 64.2383V64.2383C35.4497 44.6717 76.9273 44.6717 110.47 64.2383V64.2383V64.2383C144.013 83.805 185.491 83.805 219.033 64.2383V64.2383" stroke="#002140" stroke-opacity="0.2" stroke-width="2.46923" stroke-linecap="round" stroke-linejoin="round"/>
<path d="M1.9069 75.0946V75.0946C35.4497 55.528 76.9273 55.528 110.47 75.0946V75.0946V75.0946C144.013 94.6613 185.491 94.6613 219.033 75.0946V75.0946" stroke="#002140" stroke-opacity="0.2" stroke-width="2.46923" stroke-linecap="round" stroke-linejoin="round"/>
<path d="M1.9069 85.9508V85.9508C35.4497 66.3842 76.9273 66.3842 110.47 85.9508V85.9508V85.9508C144.013 105.517 185.491 105.517 219.033 85.9508V85.9508" stroke="#002140" stroke-opacity="0.2" stroke-width="2.46923" stroke-linecap="round" stroke-linejoin="round"/>
</svg>
