<svg width="80" height="70" viewBox="0 0 80 70" fill="none" xmlns="http://www.w3.org/2000/svg">
<path d="M41.9003 53.403L48.5767 61.1717L48.3292 13.2105L41.6657 7.95326L41.9003 53.403Z" fill="#70BBF2"/>
<path d="M67.8661 12.2426L48.3292 13.2105L48.5766 61.1717L68.1099 59.5023L67.8661 12.2426Z" fill="#5D98A8"/>
<path d="M41.6657 7.95326L48.3292 13.2105L46.9164 5.61337L41.6657 7.95326Z" fill="#5D98A8"/>
<path d="M62.9763 0L46.8897 0.423956L46.9164 5.61338L63.3066 5.52884L62.9763 0Z" fill="#5D98A8"/>
<path d="M53.522 22.1165C53.6323 21.683 53.8131 21.5287 54.2573 21.5234L54.6529 21.5187C55.1335 21.513 55.3867 21.8202 55.3921 22.2706L55.4297 25.4226C55.4347 25.8425 55.1877 26.0524 54.8103 26.0568C54.433 26.0613 54.1811 25.8574 54.1761 25.4375L54.1507 23.3076L54.1385 23.3077L53.534 25.6824C53.4583 25.9816 53.3194 26.0745 52.9849 26.0785C52.6502 26.0825 52.5092 25.9929 52.4263 25.6956L51.7653 23.3359L51.7531 23.336L51.7785 25.4659C51.7835 25.8858 51.5365 26.0957 51.1591 26.1001C50.7818 26.1046 50.5299 25.9006 50.5249 25.4807L50.4874 22.3287C50.4821 21.8783 50.7278 21.5651 51.2084 21.5594L51.604 21.5547C52.0482 21.5494 52.2326 21.6994 52.3534 22.13L52.9573 24.2953L52.9694 24.2952L53.522 22.1165Z" fill="#002140"/>
<path d="M56.2956 22.2537C56.29 21.7852 56.5544 21.4961 56.9865 21.491C57.4186 21.4859 57.6898 21.7686 57.6953 22.2371L57.7314 25.2677C57.737 25.7362 57.4726 26.0253 57.0405 26.0304C56.6084 26.0355 56.3372 25.7528 56.3317 25.2843L56.2956 22.2537Z" fill="#002140"/>
<path d="M61.5729 24.7653C61.9319 24.7611 62.1778 24.9649 62.1821 25.3242C62.1863 25.6832 61.9453 25.893 61.5863 25.8972L59.5175 25.9218C58.9759 25.9283 58.7172 25.6818 58.7104 25.0976L58.6761 22.2253C58.6705 21.7568 58.935 21.4677 59.3671 21.4626C59.7992 21.4575 60.0704 21.7402 60.0759 22.2087L60.1066 24.7827L61.5729 24.7653Z" fill="#002140"/>
<path d="M65.2341 21.8066C65.5045 21.5051 65.6369 21.3881 65.8681 21.3853C66.2454 21.3808 66.4929 21.7065 66.4959 21.968C66.4983 22.169 66.4144 22.2856 66.2342 22.4763L65.5855 23.2084L66.6703 24.8568C66.7508 24.9837 66.8134 25.117 66.8152 25.2692C66.8195 25.634 66.4761 25.9181 66.1109 25.9225C65.8919 25.9251 65.6903 25.8668 65.529 25.6193L64.5561 24.1519L64.1659 24.5887L64.173 25.1912C64.1787 25.6597 63.9142 25.9488 63.4821 25.9539C63.0501 25.959 62.7788 25.6763 62.7733 25.2078L62.7372 22.1772C62.7316 21.7087 62.996 21.4196 63.4281 21.4145C63.8602 21.4094 64.1315 21.6921 64.137 22.1606L64.1473 23.0247L65.2341 21.8066Z" fill="#002140"/>
<path d="M63.2604 4.91479L46.9164 5.61338L48.3292 13.2105L67.8661 12.2426L63.2604 4.91479Z" fill="#70BBF2"/>
<path d="M66.8017 28.8401C66.8133 29.2287 66.5077 29.5531 66.1191 29.5647L51.2427 30.008C50.8541 30.0196 50.5297 29.714 50.5181 29.3254C50.5065 28.9368 50.8121 28.6125 51.2007 28.6009L66.0771 28.1575C66.4658 28.1459 66.7902 28.4516 66.8017 28.8401Z" fill="#002140"/>
<path d="M56.7025 18.367C56.3964 19.1879 54.9143 21.238 57.0516 21.0467C58.5241 20.915 57.3052 18.9734 56.7702 18.5008L56.7025 18.367Z" fill="#002140"/>
<path d="M65.9438 45.8928L65.9441 45.912C65.6173 45.6879 65.4525 44.4515 64.8243 44.878C64.7055 44.7789 64.5914 44.6955 64.5589 44.6692C64.3233 44.478 64.0739 44.3127 63.8194 44.1463C63.6282 44.0213 63.4528 43.8497 63.2657 43.7124C63.2384 43.5968 63.2075 43.5031 63.1727 43.4359C62.6954 42.5151 61.5806 42.4291 60.6431 42.5272C59.7572 42.6199 56.9256 42.6268 56.9208 42.3897C56.9137 42.0232 56.87 41.6133 56.7805 41.2152C57.0137 41.0744 57.2246 40.8777 57.403 40.5958C57.7201 40.0945 57.9879 39.0068 57.4324 38.5892C57.3089 39.2385 56.8349 39.6699 56.2202 39.9008C55.9198 39.5088 55.3376 39.3095 54.7905 39.3642C54.3069 39.4124 53.8034 39.4491 53.4753 39.7544C52.7985 39.5133 52.5073 39.2069 52.3036 38.5913C51.903 39.3181 52.0985 40.7433 52.8862 40.993C52.7807 42.4523 52.4986 43.9748 53.6209 44.2188C54.4296 44.3945 54.8307 44.328 54.8307 44.328C54.9351 44.7488 55.1237 48.6014 55.2862 48.9408C55.4395 49.2607 56.4957 49.2663 56.8789 49.0053C57.2015 48.7855 56.777 46.4782 57.0984 46.5277C57.983 46.6636 61.0976 46.4266 61.6068 46.6688C61.7616 46.7425 61.6888 48.6399 61.7756 48.8989C62.1656 49.0193 63.0486 49.0208 63.433 48.8569C63.4609 48.1387 63.5105 45.8025 63.3703 44.4039C63.7472 44.7088 64.2398 44.9901 64.5999 45.1615C64.5487 45.3473 64.6314 45.5502 64.8075 45.6615C65.073 45.8293 65.399 45.7727 65.6784 45.8366C65.7815 45.8601 65.8876 45.9052 65.9857 45.9425C65.9746 45.9217 65.9584 45.9103 65.9438 45.8928Z" fill="#002140"/>
<path d="M79.9143 60.9635C79.8939 60.517 79.8708 60.0735 79.8708 59.6437C79.8708 57.7486 79.8708 55.8535 79.8708 53.9583C79.8708 47.9122 79.8708 41.866 79.8708 35.8199H68.1099H56.3489C56.3489 41.866 56.3489 47.9122 56.3489 53.9583C56.3489 55.8535 56.3489 57.7486 56.3489 59.6437C56.3489 60.0734 56.3259 60.5169 56.3054 60.9635C56.2039 61.4321 56.189 61.9137 56.2795 62.3891C56.3174 63.5835 56.574 64.7152 57.5589 65.5685C58.5724 66.4468 59.9077 66.8463 61.2144 67.1481C63.4763 67.6705 72.7431 67.6705 75.005 67.1481C76.3118 66.8463 77.647 66.4467 78.6605 65.5685C79.6454 64.7152 79.902 63.5835 79.9399 62.3891C80.0307 61.9136 80.0158 61.432 79.9143 60.9635Z" fill="#C6DFE5"/>
<path d="M78.5194 59.9659C78.5013 59.5371 78.4811 59.1112 78.4811 58.6985C78.4811 56.8785 78.4811 55.0586 78.4811 53.2387C78.4811 47.4324 78.4811 41.6262 78.4811 35.8199H68.1099H57.7388C57.7388 41.6262 57.7388 47.4324 57.7388 53.2387C57.7388 55.0586 57.7388 56.8785 57.7388 58.6985C57.7388 59.1112 57.7185 59.5371 57.7004 59.9659C57.611 60.4159 57.5978 60.8783 57.6776 61.3348C57.7111 62.4819 57.9373 63.5687 58.8058 64.3882C59.6996 65.2316 60.877 65.6152 62.0294 65.9051C64.024 66.4068 72.1958 66.4068 74.1904 65.9051C75.3428 65.6153 76.5202 65.2316 77.414 64.3882C78.2825 63.5687 78.5088 62.4819 78.5422 61.3348C78.6221 60.8783 78.6089 60.4158 78.5194 59.9659Z" fill="#D4EFF4"/>
<path d="M78.4811 45.9378H57.7388C57.7388 48.3715 57.7388 50.8051 57.7388 53.2387C57.7388 55.0586 57.7388 56.8785 57.7388 58.6985C57.7388 59.1112 57.7185 59.5371 57.7004 59.9658C57.611 60.4159 57.5978 60.8783 57.6776 61.3348C57.7111 62.4819 57.9373 63.5687 58.8058 64.3882C59.6996 65.2316 60.877 65.6152 62.0294 65.9051C64.024 66.4068 72.1958 66.4068 74.1904 65.9051C75.3428 65.6153 76.5202 65.2316 77.414 64.3882C78.2825 63.5687 78.5088 62.4819 78.5422 61.3348C78.622 60.8783 78.6088 60.4158 78.5194 59.9658C78.5013 59.5371 78.4809 59.1112 78.4809 58.6985C78.4809 56.8785 78.4809 55.0586 78.4809 53.2387C78.481 50.805 78.4811 48.3714 78.4811 45.9378Z" fill="#FFF5D7"/>
<path d="M68.113 48.3881C73.8425 48.3881 78.4871 47.5879 78.4871 46.6008C78.4871 45.6137 73.8425 44.8136 68.113 44.8136C62.3836 44.8136 57.7389 45.6137 57.7389 46.6008C57.7389 47.5879 62.3836 48.3881 68.113 48.3881Z" fill="#002140"/>
<path d="M68.11 37.6072C74.6053 37.6072 79.8709 36.807 79.8709 35.8199C79.8709 34.8329 74.6053 34.0327 68.11 34.0327C61.6146 34.0327 56.3491 34.8329 56.3491 35.8199C56.3491 36.807 61.6146 37.6072 68.11 37.6072Z" fill="#C6DFE5"/>
<path d="M68.11 36.8064C73.8378 36.8064 78.4811 36.3251 78.4811 35.7315C78.4811 35.1378 73.8378 34.6566 68.11 34.6566C62.3822 34.6566 57.7389 35.1378 57.7389 35.7315C57.7389 36.3251 62.3822 36.8064 68.11 36.8064Z" fill="#D4EFF4"/>
<path opacity="0.83" d="M60.285 41.4348C60.3057 45.4325 60.3265 49.4301 60.3472 53.4278C60.3535 54.6417 60.3605 55.8627 60.575 57.0575C60.6446 57.4451 60.7442 57.8458 61.0028 58.1428C61.2613 58.4399 61.7229 58.5948 62.0613 58.3935C62.2724 58.268 62.3951 58.0341 62.4699 57.8003C62.7298 56.9878 62.5296 56.1098 62.362 55.2735C61.5735 51.339 61.5463 47.2533 62.2824 43.3086C62.4634 42.3389 63.1175 40.426 62.093 39.7149C60.873 38.8679 60.2802 40.5123 60.285 41.4348Z" fill="#002140"/>
<path opacity="0.83" d="M60.9 60.423C60.7711 60.8307 60.8187 61.2713 60.8825 61.694C61.0196 62.6029 61.2812 63.5891 62.0396 64.1082C62.1777 64.2028 62.3321 64.2795 62.4981 64.3016C62.8368 64.3467 63.1747 64.1515 63.3777 63.8765C63.5807 63.6016 63.6688 63.2588 63.7178 62.9206C63.7989 62.3615 63.7848 61.7887 63.6762 61.2343C63.5864 60.7761 63.4219 60.3135 63.0888 59.9863C62.4433 59.3521 61.1872 59.5156 60.9 60.423Z" fill="#002140"/>
<path d="M50.1593 40.9024L49.0798 40.9541C48.9016 44.9695 40.4831 47.1744 25.093 47.1745C10.1988 47.1745 1.38673 44.276 1.10629 40.9541L0.0172375 40.7532C0.0172375 40.7532 -0.368375 46.1001 2.50811 52.3111C6.82239 61.6264 12.7857 63.3053 12.7857 63.3053L24.9696 63.5405L37.1535 63.3053C37.1535 63.3053 43.1169 61.6265 47.4311 52.3111C50.3076 46.1 50.1593 40.9024 50.1593 40.9024Z" fill="#EDCEB9"/>
<path d="M25.3873 69.1904C33.8924 69.1904 40.7871 67.8927 40.7871 66.292C40.7871 64.6913 33.8924 63.3936 25.3873 63.3936C16.8821 63.3936 9.98737 64.6913 9.98737 66.292C9.98737 67.8927 16.8821 69.1904 25.3873 69.1904Z" fill="#E7F2F0"/>
<path d="M37.3995 65.3269V63.1743L25.0926 61.6263L12.7856 63.3051V65.3269C12.7856 65.3269 12.6818 66.3007 16.4146 67.5873C21.5189 69.3465 29.8133 68.7675 33.7705 67.5873C37.5541 66.4588 37.3995 65.3269 37.3995 65.3269Z" fill="#EDCEB9"/>
<path d="M33.7615 67.5873C37.5451 66.4588 37.3905 65.3269 37.3905 65.3269V63.1743L31.748 62.4646C31.739 62.4699 31.7301 62.4751 31.7211 62.4804C31.0742 62.871 30.4523 63.2227 30.4036 64.0275C30.3524 64.8729 30.8133 65.8991 30.4462 66.7074C30.2202 67.205 29.6264 67.4015 29.0931 67.5203C25.0184 68.4277 20.7539 67.8701 16.6963 66.8894C15.4291 66.5832 14.1431 66.2229 13.0766 65.4733C12.9889 65.4116 12.8831 65.3497 12.7767 65.3087V65.3268C12.7767 65.3268 12.6728 66.3006 16.4056 67.5872C21.5099 69.3466 29.8044 68.7675 33.7615 67.5873Z" fill="#EABFAC"/>
<path opacity="0.38" d="M6.0421 48.8463C5.78269 49.5365 6.00287 50.3072 6.26168 50.9977C6.9709 52.8897 7.9644 54.6656 9.08814 56.3449C9.89634 57.5526 10.9076 58.8019 12.3356 59.0715C12.8368 59.1662 13.3765 59.1239 13.8227 58.8768C14.269 58.6298 14.6046 58.1592 14.6169 57.6493C14.6294 57.1302 14.3273 56.6634 14.0543 56.2218C13.3868 55.1418 12.8242 53.9827 12.5434 52.7446C12.3568 51.922 12.2881 51.0493 11.8659 50.3189C11.1417 49.0663 6.85551 46.6818 6.0421 48.8463Z" fill="#002140"/>
<path opacity="0.38" d="M14.6791 64.1245C14.5612 64.1282 14.4382 64.1396 14.3381 64.2021C14.1295 64.3325 14.1044 64.6458 14.2236 64.861C14.3428 65.0761 14.5643 65.2125 14.7825 65.326C15.6879 65.7968 16.6941 66.0373 17.6982 66.2194C18.0835 66.2893 18.4946 66.3488 18.8555 66.1968C19.2163 66.0449 19.4815 65.5991 19.3009 65.2516C19.1294 64.9216 18.6925 64.8619 18.3221 64.8276C17.1141 64.7163 15.8616 64.088 14.6791 64.1245Z" fill="#002140"/>
<path d="M50.1594 40.9024L49.0309 40.9541C48.931 43.2043 46.2436 44.8859 41.1915 45.9296C40.9368 47.7531 40.3577 49.9394 39.1506 52.2473C35.6398 58.9597 32.3131 60.8272 28.2442 62.2115C23.1955 63.929 17.2843 63.4979 17.2843 63.4979C17.2843 63.4979 23.2117 64.852 27.9642 64.852C32.6907 64.852 37.0959 63.3052 37.0959 63.3052C37.0959 63.3052 43.1168 61.6264 47.4311 52.311C50.3076 46.1 50.1594 40.9024 50.1594 40.9024Z" fill="#EABFAC"/>
<path d="M50.1471 40.5707H49.0713C49.0815 40.6838 49.0853 40.7977 49.0818 40.9126C48.9597 44.9542 40.5359 47.1743 25.0931 47.1743C10.1372 47.1743 1.31351 44.2517 1.10296 40.9126C1.11348 40.7967 1.12832 40.6828 1.1465 40.5707H0.0541181C0.0351467 40.6964 0.0284721 40.6231 0.0173645 40.7531C0.237453 44.4957 9.45156 47.9724 25.0841 47.9724C41.2258 47.9724 50.0306 45.4841 50.1582 40.954C50.1616 40.8253 50.1577 40.6975 50.1471 40.5707Z" fill="#FFDFCA"/>
<path d="M0.0171509 40.7531C0.237239 44.4957 9.46011 47.7714 25.0926 47.7714C41.2341 47.7714 50.039 45.2831 50.1666 40.7531C50.2942 36.223 41.5532 32.9002 25.4747 32.9691C11.9335 33.027 0.591405 33.9899 0.0171509 40.7531Z" fill="#FFDFCA"/>
<path d="M1.10287 40.7118C1.31343 44.0509 10.1371 46.9735 25.093 46.9735C40.5359 46.9735 48.9597 44.7534 49.0817 40.7118C49.2038 36.6702 40.8411 33.7057 25.4586 33.7671C12.5034 33.8188 1.65226 34.6778 1.10287 40.7118Z" fill="#E2BFA3"/>
<path d="M1.10287 40.7234C1.27165 43.4002 6.97566 45.8091 16.9365 46.6595C16.4017 46.2967 15.8814 45.9125 15.3781 45.5074C12.2961 43.0266 9.82374 39.7853 8.26739 36.1465C8.13646 35.8404 7.99363 35.5193 7.85779 35.1904C3.89688 36.1936 1.3611 37.8865 1.10287 40.7234Z" fill="#CEAD97"/>
<path d="M25.7089 39.2983C15.509 39.339 6.51934 39.9989 2.92892 43.1721C6.16213 45.4253 14.0886 46.9732 25.38 46.9732C37.0211 46.9732 44.5122 45.6144 47.627 43.2621C44.5378 40.7743 37.116 39.2528 25.7089 39.2983Z" fill="#FFF5D7"/>
<path d="M12.6692 41.3867C12.8171 41.6178 12.7158 41.9337 12.8192 42.1879C12.9129 42.4183 13.1545 42.5513 13.3895 42.6328C14.8517 43.14 16.413 42.335 17.9532 42.1846C18.6229 42.1192 19.2976 42.1796 19.9705 42.1798C20.3244 42.1799 20.6948 42.1587 21.0002 41.9797C21.3056 41.8007 21.5189 41.4171 21.3936 41.086C21.2118 40.6055 20.4984 40.5411 20.2571 40.0874C20.1885 39.9584 20.1658 39.8094 20.0994 39.6793C19.8862 39.2608 19.3314 39.1836 18.8622 39.1634C17.2404 39.0938 15.3639 38.8488 13.7814 39.3017C13.2856 39.4437 12.8161 39.7215 12.4222 40.0552C11.531 40.8105 12.2833 40.7841 12.6692 41.3867Z" fill="#FFDE3E"/>
<path d="M23.0019 43.8243C22.6699 44.1124 22.2275 44.2275 21.8198 44.3915C21.4119 44.5554 20.9945 44.8134 20.8609 45.2321C20.8373 45.306 20.8237 45.3873 20.8495 45.4606C20.874 45.5303 20.9306 45.5833 20.9872 45.6309C21.541 46.0962 22.2998 46.3079 23.0145 46.1966C23.6602 46.0961 24.2446 45.7515 24.8839 45.6157C25.7144 45.4392 26.6495 45.6074 27.3623 45.1459C27.7939 44.8664 28.0756 44.3685 28.0928 43.8546C28.1088 43.3754 27.8339 42.8433 27.3626 42.7555C26.8398 42.6582 26.3917 42.6925 25.8661 42.5171C25.5285 42.4045 25.1104 42.1769 24.7464 42.1925C23.8133 42.2319 23.5993 43.306 23.0019 43.8243Z" fill="#FFDE3E"/>
<path d="M29.4005 40.8847C29.2681 41.5456 29.7017 42.2713 30.3463 42.4679C30.567 42.5352 30.8069 42.5479 31.0094 42.6583C31.5079 42.9302 31.5562 43.6374 31.9412 44.0546C32.4216 44.5753 33.2515 44.4998 33.947 44.3653C34.5527 44.2481 35.2299 44.0641 35.5222 43.5208C35.8517 42.9082 35.475 42.0882 34.8569 41.7693C34.5458 41.6088 34.1814 41.5418 33.9153 41.3143C33.7701 41.1901 33.6652 41.0267 33.5465 40.877C32.726 39.8418 29.7817 38.9822 29.4005 40.8847Z" fill="#FFDE3E"/>
<path d="M38.061 42.0836C37.9274 42.2545 37.8431 42.4579 37.7606 42.6585C37.5892 43.0747 37.4179 43.4908 37.2466 43.907C37.1705 44.0918 37.0956 44.3083 37.1932 44.4828C37.2444 44.5744 37.3353 44.6362 37.427 44.6876C38.1104 45.0702 38.959 45.0263 39.7122 44.8112C40.4653 44.5961 41.1647 44.2257 41.9058 43.9721C42.4651 43.7806 43.0473 43.6563 43.636 43.6027C44.0153 43.5682 44.4123 43.5589 44.7473 43.3775C45.0823 43.1962 45.3248 42.7718 45.1593 42.4288C45.0956 42.2967 44.982 42.1958 44.8651 42.1072C44.296 41.6755 43.5736 41.4504 42.86 41.4824C42.536 41.4969 42.2147 41.5624 41.8904 41.5583C41.1866 41.5494 40.5255 41.5597 39.8467 41.5856C39.1885 41.6105 38.5306 41.4829 38.061 42.0836Z" fill="#FFDE3E"/>
<path d="M8.29723 44.5353C9.01362 44.5819 9.731 44.3742 10.4457 44.4424C11.3198 44.5258 12.1546 45.0177 13.0241 44.8959C13.3069 44.8561 13.6091 44.723 13.7116 44.4565C13.8383 44.1267 13.5936 43.7601 13.2926 43.5751C12.9916 43.39 12.6339 43.3156 12.3287 43.1377C11.8475 42.8572 11.5386 42.3458 11.0678 42.0483C10.5491 41.7207 9.88601 41.6915 9.28895 41.8322C8.71942 41.9664 7.08748 42.4643 6.79554 43.0374C6.36785 43.8768 7.67235 44.4947 8.29723 44.5353Z" fill="#FFDE3E"/>
<path d="M28.3453 45.2067C28.316 45.2685 28.2922 45.3377 28.3075 45.4043C28.3477 45.5787 28.5878 45.5896 28.7661 45.5735C29.2518 45.5297 29.7464 45.5856 30.2101 45.7369C30.451 45.8154 30.6878 45.9203 30.9404 45.9397C31.193 45.959 31.4748 45.8704 31.5986 45.6493C31.7206 45.4312 31.6495 45.1428 31.4831 44.9563C31.3167 44.7698 31.0744 44.6691 30.8326 44.606C30.0942 44.4134 28.7319 44.3901 28.3453 45.2067Z" fill="#FFDE3E"/>
<path d="M22.9338 40.3484C22.8375 40.3916 22.7381 40.4386 22.673 40.5216C22.529 40.7051 22.6248 40.998 22.8194 41.1269C23.0139 41.2558 23.267 41.2554 23.4963 41.2124C23.7257 41.1695 23.9484 41.0887 24.1811 41.0713C24.7837 41.0263 25.3234 41.4032 25.8735 41.6535C26.3863 41.8868 26.9456 42.017 27.5086 42.0343C27.5689 42.0362 27.632 42.0361 27.6855 42.0083C27.7437 41.978 27.7816 41.9189 27.8063 41.8581C27.9738 41.4451 27.6306 41.0147 27.3096 40.7056C26.9967 40.4044 26.6618 40.0985 26.244 39.9794C25.073 39.6459 24.0063 39.8672 22.9338 40.3484Z" fill="#FFDE3E"/>
<path d="M14.764 44.3947C14.625 44.4635 14.48 44.5394 14.3956 44.6697C14.1716 45.0155 14.5327 45.4774 14.931 45.5829C15.3293 45.6883 15.7563 45.5951 16.1606 45.6744C16.5034 45.7415 16.8291 45.9317 17.1772 45.9019C17.5542 45.8697 17.8603 45.5861 18.0916 45.2867C18.3229 44.9872 18.5189 44.6496 18.8231 44.4245C19.4112 43.9895 20.2868 44.06 20.8175 43.5565C21.392 43.0115 20.8814 42.5992 20.3057 42.5325C19.7726 42.4707 19.3274 42.6428 18.8309 42.8028C17.4379 43.2516 16.0782 43.7442 14.764 44.3947Z" fill="#FFDE3E"/>
</svg>
