<svg width="218" height="220" viewBox="0 0 218 220" fill="none" xmlns="http://www.w3.org/2000/svg">
<rect x="0.37796" y="0.611084" width="5.87267" height="5.99853" rx="1.34409" fill="#FB8500" fill-opacity="0.6"/>
<rect x="23.869" y="0.611145" width="5.87267" height="5.99853" rx="1.34409" fill="#FB8500" fill-opacity="0.6"/>
<rect x="47.3592" y="0.611145" width="5.87267" height="5.99853" rx="1.34409" fill="#FB8500" fill-opacity="0.6"/>
<rect x="70.8503" y="0.611145" width="5.87267" height="5.99853" rx="1.34409" fill="#FB8500" fill-opacity="0.6"/>
<rect x="94.3405" y="0.611145" width="5.87267" height="5.99853" rx="1.34409" fill="#FB8500" fill-opacity="0.6"/>
<rect x="117.832" y="0.611145" width="5.87267" height="5.99853" rx="1.34409" fill="#FB8500" fill-opacity="0.6"/>
<rect x="141.323" y="0.611145" width="5.87267" height="5.99853" rx="1.34409" fill="#FB8500" fill-opacity="0.6"/>
<rect x="164.813" y="0.611145" width="5.87267" height="5.99853" rx="1.34409" fill="#FB8500" fill-opacity="0.6"/>
<rect x="188.304" y="0.611145" width="5.87267" height="5.99853" rx="1.34409" fill="#FB8500" fill-opacity="0.6"/>
<rect x="211.794" y="0.611145" width="5.87267" height="5.99853" rx="1.34409" fill="#FB8500" fill-opacity="0.6"/>
<rect x="0.37796" y="24.6052" width="5.87267" height="5.99853" rx="1.34409" fill="#FB8500" fill-opacity="0.6"/>
<rect x="23.869" y="24.6052" width="5.87267" height="5.99853" rx="1.34409" fill="#FB8500" fill-opacity="0.6"/>
<rect x="47.3592" y="24.6052" width="5.87267" height="5.99853" rx="1.34409" fill="#FB8500" fill-opacity="0.6"/>
<rect x="70.8503" y="24.6052" width="5.87267" height="5.99853" rx="1.34409" fill="#FB8500" fill-opacity="0.6"/>
<rect x="94.3405" y="24.6052" width="5.87267" height="5.99853" rx="1.34409" fill="#FB8500" fill-opacity="0.6"/>
<rect x="117.832" y="24.6052" width="5.87267" height="5.99853" rx="1.34409" fill="#FB8500" fill-opacity="0.6"/>
<rect x="141.323" y="24.6052" width="5.87267" height="5.99853" rx="1.34409" fill="#FB8500" fill-opacity="0.6"/>
<rect x="164.813" y="24.6052" width="5.87267" height="5.99853" rx="1.34409" fill="#FB8500" fill-opacity="0.6"/>
<rect x="188.304" y="24.6052" width="5.87267" height="5.99853" rx="1.34409" fill="#FB8500" fill-opacity="0.6"/>
<rect x="211.794" y="24.6052" width="5.87267" height="5.99853" rx="1.34409" fill="#FB8500" fill-opacity="0.6"/>
<rect x="0.37796" y="48.5992" width="5.87267" height="5.99853" rx="1.34409" fill="#FB8500" fill-opacity="0.6"/>
<rect x="23.869" y="48.5992" width="5.87267" height="5.99853" rx="1.34409" fill="#FB8500" fill-opacity="0.6"/>
<rect x="47.3592" y="48.5992" width="5.87267" height="5.99853" rx="1.34409" fill="#FB8500" fill-opacity="0.6"/>
<rect x="70.8503" y="48.5992" width="5.87267" height="5.99853" rx="1.34409" fill="#FB8500" fill-opacity="0.6"/>
<rect x="94.3405" y="48.5992" width="5.87267" height="5.99853" rx="1.34409" fill="#FB8500" fill-opacity="0.6"/>
<rect x="117.832" y="48.5992" width="5.87267" height="5.99853" rx="1.34409" fill="#FB8500" fill-opacity="0.6"/>
<rect x="141.323" y="48.5992" width="5.87267" height="5.99853" rx="1.34409" fill="#FB8500" fill-opacity="0.6"/>
<rect x="164.813" y="48.5992" width="5.87267" height="5.99853" rx="1.34409" fill="#FB8500" fill-opacity="0.6"/>
<rect x="188.304" y="48.5992" width="5.87267" height="5.99853" rx="1.34409" fill="#FB8500" fill-opacity="0.6"/>
<rect x="211.794" y="48.5992" width="5.87267" height="5.99853" rx="1.34409" fill="#FB8500" fill-opacity="0.6"/>
<rect x="0.37796" y="72.5933" width="5.87267" height="5.99853" rx="1.34409" fill="#FB8500" fill-opacity="0.6"/>
<rect x="23.869" y="72.5933" width="5.87267" height="5.99853" rx="1.34409" fill="#FB8500" fill-opacity="0.6"/>
<rect x="47.3592" y="72.5933" width="5.87267" height="5.99853" rx="1.34409" fill="#FB8500" fill-opacity="0.6"/>
<rect x="70.8503" y="72.5933" width="5.87267" height="5.99853" rx="1.34409" fill="#FB8500" fill-opacity="0.6"/>
<rect x="94.3405" y="72.5933" width="5.87267" height="5.99853" rx="1.34409" fill="#FB8500" fill-opacity="0.6"/>
<rect x="117.832" y="72.5933" width="5.87267" height="5.99853" rx="1.34409" fill="#FB8500" fill-opacity="0.6"/>
<rect x="141.323" y="72.5933" width="5.87267" height="5.99853" rx="1.34409" fill="#FB8500" fill-opacity="0.6"/>
<rect x="164.813" y="72.5933" width="5.87267" height="5.99853" rx="1.34409" fill="#FB8500" fill-opacity="0.6"/>
<rect x="188.304" y="72.5933" width="5.87267" height="5.99853" rx="1.34409" fill="#FB8500" fill-opacity="0.6"/>
<rect x="211.794" y="72.5933" width="5.87267" height="5.99853" rx="1.34409" fill="#FB8500" fill-opacity="0.6"/>
<rect x="0.37796" y="96.5878" width="5.87267" height="5.99853" rx="1.34409" fill="#FB8500" fill-opacity="0.6"/>
<rect x="23.869" y="96.5878" width="5.87267" height="5.99853" rx="1.34409" fill="#FB8500" fill-opacity="0.6"/>
<rect x="47.3592" y="96.5878" width="5.87267" height="5.99853" rx="1.34409" fill="#FB8500" fill-opacity="0.6"/>
<rect x="70.8503" y="96.5878" width="5.87267" height="5.99853" rx="1.34409" fill="#FB8500" fill-opacity="0.6"/>
<rect x="94.3405" y="96.5878" width="5.87267" height="5.99853" rx="1.34409" fill="#FB8500" fill-opacity="0.6"/>
<rect x="117.832" y="96.5878" width="5.87267" height="5.99853" rx="1.34409" fill="#FB8500" fill-opacity="0.6"/>
<rect x="141.323" y="96.5878" width="5.87267" height="5.99853" rx="1.34409" fill="#FB8500" fill-opacity="0.6"/>
<rect x="164.813" y="96.5878" width="5.87267" height="5.99853" rx="1.34409" fill="#FB8500" fill-opacity="0.6"/>
<rect x="188.304" y="96.5878" width="5.87267" height="5.99853" rx="1.34409" fill="#FB8500" fill-opacity="0.6"/>
<rect x="211.794" y="96.5878" width="5.87267" height="5.99853" rx="1.34409" fill="#FB8500" fill-opacity="0.6"/>
<rect x="0.37796" y="120.582" width="5.87267" height="5.99853" rx="1.34409" fill="#FB8500" fill-opacity="0.6"/>
<rect x="23.869" y="120.582" width="5.87267" height="5.99853" rx="1.34409" fill="#FB8500" fill-opacity="0.6"/>
<rect x="47.3592" y="120.582" width="5.87267" height="5.99853" rx="1.34409" fill="#FB8500" fill-opacity="0.6"/>
<rect x="70.8503" y="120.582" width="5.87267" height="5.99853" rx="1.34409" fill="#FB8500" fill-opacity="0.6"/>
<rect x="94.3405" y="120.582" width="5.87267" height="5.99853" rx="1.34409" fill="#FB8500" fill-opacity="0.6"/>
<rect x="117.832" y="120.582" width="5.87267" height="5.99853" rx="1.34409" fill="#FB8500" fill-opacity="0.6"/>
<rect x="141.323" y="120.582" width="5.87267" height="5.99853" rx="1.34409" fill="#FB8500" fill-opacity="0.6"/>
<rect x="164.813" y="120.582" width="5.87267" height="5.99853" rx="1.34409" fill="#FB8500" fill-opacity="0.6"/>
<rect x="188.304" y="120.582" width="5.87267" height="5.99853" rx="1.34409" fill="#FB8500" fill-opacity="0.6"/>
<rect x="211.794" y="120.582" width="5.87267" height="5.99853" rx="1.34409" fill="#FB8500" fill-opacity="0.6"/>
<rect x="0.37796" y="144.576" width="5.87267" height="5.99853" rx="1.34409" fill="#FB8500" fill-opacity="0.6"/>
<rect x="0.37796" y="167.718" width="5.87267" height="5.99853" rx="1.34409" fill="#FB8500" fill-opacity="0.6"/>
<rect x="0.37796" y="190.859" width="5.87267" height="5.99853" rx="1.34409" fill="#FB8500" fill-opacity="0.6"/>
<rect x="0.37796" y="214" width="5.87267" height="5.99853" rx="1.34409" fill="#FB8500" fill-opacity="0.6"/>
<rect x="23.869" y="144.576" width="5.87267" height="5.99853" rx="1.34409" fill="#FB8500" fill-opacity="0.6"/>
<rect x="23.869" y="167.718" width="5.87267" height="5.99853" rx="1.34409" fill="#FB8500" fill-opacity="0.6"/>
<rect x="23.869" y="190.859" width="5.87267" height="5.99853" rx="1.34409" fill="#FB8500" fill-opacity="0.6"/>
<rect x="23.869" y="214" width="5.87267" height="5.99853" rx="1.34409" fill="#FB8500" fill-opacity="0.6"/>
<rect x="47.3592" y="144.576" width="5.87267" height="5.99853" rx="1.34409" fill="#FB8500" fill-opacity="0.6"/>
<rect x="47.3592" y="167.718" width="5.87267" height="5.99853" rx="1.34409" fill="#FB8500" fill-opacity="0.6"/>
<rect x="47.3592" y="190.859" width="5.87267" height="5.99853" rx="1.34409" fill="#FB8500" fill-opacity="0.6"/>
<rect x="47.3592" y="214" width="5.87267" height="5.99853" rx="1.34409" fill="#FB8500" fill-opacity="0.6"/>
<rect x="70.8503" y="144.576" width="5.87267" height="5.99853" rx="1.34409" fill="#FB8500" fill-opacity="0.6"/>
<rect x="70.8503" y="167.718" width="5.87267" height="5.99853" rx="1.34409" fill="#FB8500" fill-opacity="0.6"/>
<rect x="70.8503" y="190.859" width="5.87267" height="5.99853" rx="1.34409" fill="#FB8500" fill-opacity="0.6"/>
<rect x="70.8503" y="214" width="5.87267" height="5.99853" rx="1.34409" fill="#FB8500" fill-opacity="0.6"/>
<rect x="94.3405" y="144.576" width="5.87267" height="5.99853" rx="1.34409" fill="#FB8500" fill-opacity="0.6"/>
<rect x="94.3405" y="167.718" width="5.87267" height="5.99853" rx="1.34409" fill="#FB8500" fill-opacity="0.6"/>
<rect x="94.3405" y="190.859" width="5.87267" height="5.99853" rx="1.34409" fill="#FB8500" fill-opacity="0.6"/>
<rect x="94.3405" y="214" width="5.87267" height="5.99853" rx="1.34409" fill="#FB8500" fill-opacity="0.6"/>
<rect x="117.832" y="144.576" width="5.87267" height="5.99853" rx="1.34409" fill="#FB8500" fill-opacity="0.6"/>
<rect x="117.832" y="167.718" width="5.87267" height="5.99853" rx="1.34409" fill="#FB8500" fill-opacity="0.6"/>
<rect x="117.832" y="190.859" width="5.87267" height="5.99853" rx="1.34409" fill="#FB8500" fill-opacity="0.6"/>
<rect x="117.832" y="214" width="5.87267" height="5.99853" rx="1.34409" fill="#FB8500" fill-opacity="0.6"/>
<rect x="141.323" y="144.576" width="5.87267" height="5.99853" rx="1.34409" fill="#FB8500" fill-opacity="0.6"/>
<rect x="141.323" y="167.718" width="5.87267" height="5.99853" rx="1.34409" fill="#FB8500" fill-opacity="0.6"/>
<rect x="141.323" y="190.859" width="5.87267" height="5.99853" rx="1.34409" fill="#FB8500" fill-opacity="0.6"/>
<rect x="141.323" y="214" width="5.87267" height="5.99853" rx="1.34409" fill="#FB8500" fill-opacity="0.6"/>
<rect x="164.813" y="144.576" width="5.87267" height="5.99853" rx="1.34409" fill="#FB8500" fill-opacity="0.6"/>
<rect x="164.813" y="167.718" width="5.87267" height="5.99853" rx="1.34409" fill="#FB8500" fill-opacity="0.6"/>
<rect x="164.813" y="190.859" width="5.87267" height="5.99853" rx="1.34409" fill="#FB8500" fill-opacity="0.6"/>
<rect x="164.813" y="214" width="5.87267" height="5.99853" rx="1.34409" fill="#FB8500" fill-opacity="0.6"/>
<rect x="188.304" y="144.576" width="5.87267" height="5.99853" rx="1.34409" fill="#FB8500" fill-opacity="0.6"/>
<rect x="188.304" y="167.718" width="5.87267" height="5.99853" rx="1.34409" fill="#FB8500" fill-opacity="0.6"/>
<rect x="188.304" y="190.859" width="5.87267" height="5.99853" rx="1.34409" fill="#FB8500" fill-opacity="0.6"/>
<rect x="188.304" y="214" width="5.87267" height="5.99853" rx="1.34409" fill="#FB8500" fill-opacity="0.6"/>
<rect x="211.794" y="144.576" width="5.87267" height="5.99853" rx="1.34409" fill="#FB8500" fill-opacity="0.6"/>
<rect x="211.794" y="167.718" width="5.87267" height="5.99853" rx="1.34409" fill="#FB8500" fill-opacity="0.6"/>
<rect x="211.794" y="190.859" width="5.87267" height="5.99853" rx="1.34409" fill="#FB8500" fill-opacity="0.6"/>
<rect x="211.794" y="214" width="5.87267" height="5.99853" rx="1.34409" fill="#FB8500" fill-opacity="0.6"/>
</svg>
