<svg width="218" height="220" viewBox="0 0 218 220" fill="none" xmlns="http://www.w3.org/2000/svg">
<rect y="0.556274" width="5.87267" height="5.99853" rx="1.34409" fill="#BEBEBE" fill-opacity="0.6"/>
<rect x="23.4911" y="0.556274" width="5.87267" height="5.99853" rx="1.34409" fill="#BEBEBE" fill-opacity="0.6"/>
<rect x="46.9813" y="0.556274" width="5.87267" height="5.99853" rx="1.34409" fill="#BEBEBE" fill-opacity="0.6"/>
<rect x="70.4724" y="0.556274" width="5.87267" height="5.99853" rx="1.34409" fill="#BEBEBE" fill-opacity="0.6"/>
<rect x="93.9625" y="0.556274" width="5.87267" height="5.99853" rx="1.34409" fill="#BEBEBE" fill-opacity="0.6"/>
<rect x="117.454" y="0.556274" width="5.87267" height="5.99853" rx="1.34409" fill="#BEBEBE" fill-opacity="0.6"/>
<rect x="140.945" y="0.556274" width="5.87267" height="5.99853" rx="1.34409" fill="#BEBEBE" fill-opacity="0.6"/>
<rect x="164.435" y="0.556274" width="5.87267" height="5.99853" rx="1.34409" fill="#BEBEBE" fill-opacity="0.6"/>
<rect x="187.926" y="0.556274" width="5.87267" height="5.99853" rx="1.34409" fill="#BEBEBE" fill-opacity="0.6"/>
<rect x="211.416" y="0.556274" width="5.87267" height="5.99853" rx="1.34409" fill="#BEBEBE" fill-opacity="0.6"/>
<rect y="24.5503" width="5.87267" height="5.99853" rx="1.34409" fill="#BEBEBE" fill-opacity="0.6"/>
<rect x="23.4911" y="24.5503" width="5.87267" height="5.99853" rx="1.34409" fill="#BEBEBE" fill-opacity="0.6"/>
<rect x="46.9813" y="24.5503" width="5.87267" height="5.99853" rx="1.34409" fill="#BEBEBE" fill-opacity="0.6"/>
<rect x="70.4724" y="24.5503" width="5.87267" height="5.99853" rx="1.34409" fill="#BEBEBE" fill-opacity="0.6"/>
<rect x="93.9625" y="24.5503" width="5.87267" height="5.99853" rx="1.34409" fill="#BEBEBE" fill-opacity="0.6"/>
<rect x="117.454" y="24.5503" width="5.87267" height="5.99853" rx="1.34409" fill="#BEBEBE" fill-opacity="0.6"/>
<rect x="140.945" y="24.5503" width="5.87267" height="5.99853" rx="1.34409" fill="#BEBEBE" fill-opacity="0.6"/>
<rect x="164.435" y="24.5503" width="5.87267" height="5.99853" rx="1.34409" fill="#BEBEBE" fill-opacity="0.6"/>
<rect x="187.926" y="24.5503" width="5.87267" height="5.99853" rx="1.34409" fill="#BEBEBE" fill-opacity="0.6"/>
<rect x="211.416" y="24.5503" width="5.87267" height="5.99853" rx="1.34409" fill="#BEBEBE" fill-opacity="0.6"/>
<rect y="48.5443" width="5.87267" height="5.99853" rx="1.34409" fill="#BEBEBE" fill-opacity="0.6"/>
<rect x="23.4911" y="48.5443" width="5.87267" height="5.99853" rx="1.34409" fill="#BEBEBE" fill-opacity="0.6"/>
<rect x="46.9813" y="48.5443" width="5.87267" height="5.99853" rx="1.34409" fill="#BEBEBE" fill-opacity="0.6"/>
<rect x="70.4724" y="48.5443" width="5.87267" height="5.99853" rx="1.34409" fill="#BEBEBE" fill-opacity="0.6"/>
<rect x="93.9625" y="48.5443" width="5.87267" height="5.99853" rx="1.34409" fill="#BEBEBE" fill-opacity="0.6"/>
<rect x="117.454" y="48.5443" width="5.87267" height="5.99853" rx="1.34409" fill="#BEBEBE" fill-opacity="0.6"/>
<rect x="140.945" y="48.5443" width="5.87267" height="5.99853" rx="1.34409" fill="#BEBEBE" fill-opacity="0.6"/>
<rect x="164.435" y="48.5443" width="5.87267" height="5.99853" rx="1.34409" fill="#BEBEBE" fill-opacity="0.6"/>
<rect x="187.926" y="48.5443" width="5.87267" height="5.99853" rx="1.34409" fill="#BEBEBE" fill-opacity="0.6"/>
<rect x="211.416" y="48.5443" width="5.87267" height="5.99853" rx="1.34409" fill="#BEBEBE" fill-opacity="0.6"/>
<rect y="72.5383" width="5.87267" height="5.99853" rx="1.34409" fill="#BEBEBE" fill-opacity="0.6"/>
<rect x="23.4911" y="72.5383" width="5.87267" height="5.99853" rx="1.34409" fill="#BEBEBE" fill-opacity="0.6"/>
<rect x="46.9813" y="72.5383" width="5.87267" height="5.99853" rx="1.34409" fill="#BEBEBE" fill-opacity="0.6"/>
<rect x="70.4724" y="72.5383" width="5.87267" height="5.99853" rx="1.34409" fill="#BEBEBE" fill-opacity="0.6"/>
<rect x="93.9625" y="72.5383" width="5.87267" height="5.99853" rx="1.34409" fill="#BEBEBE" fill-opacity="0.6"/>
<rect x="117.454" y="72.5383" width="5.87267" height="5.99853" rx="1.34409" fill="#BEBEBE" fill-opacity="0.6"/>
<rect x="140.945" y="72.5383" width="5.87267" height="5.99853" rx="1.34409" fill="#BEBEBE" fill-opacity="0.6"/>
<rect x="164.435" y="72.5383" width="5.87267" height="5.99853" rx="1.34409" fill="#BEBEBE" fill-opacity="0.6"/>
<rect x="187.926" y="72.5383" width="5.87267" height="5.99853" rx="1.34409" fill="#BEBEBE" fill-opacity="0.6"/>
<rect x="211.416" y="72.5383" width="5.87267" height="5.99853" rx="1.34409" fill="#BEBEBE" fill-opacity="0.6"/>
<rect y="96.5331" width="5.87267" height="5.99853" rx="1.34409" fill="#BEBEBE" fill-opacity="0.6"/>
<rect x="23.4911" y="96.5331" width="5.87267" height="5.99853" rx="1.34409" fill="#BEBEBE" fill-opacity="0.6"/>
<rect x="46.9813" y="96.5331" width="5.87267" height="5.99853" rx="1.34409" fill="#BEBEBE" fill-opacity="0.6"/>
<rect x="70.4724" y="96.5331" width="5.87267" height="5.99853" rx="1.34409" fill="#BEBEBE" fill-opacity="0.6"/>
<rect x="93.9625" y="96.5331" width="5.87267" height="5.99853" rx="1.34409" fill="#BEBEBE" fill-opacity="0.6"/>
<rect x="117.454" y="96.5331" width="5.87267" height="5.99853" rx="1.34409" fill="#BEBEBE" fill-opacity="0.6"/>
<rect x="140.945" y="96.5331" width="5.87267" height="5.99853" rx="1.34409" fill="#BEBEBE" fill-opacity="0.6"/>
<rect x="164.435" y="96.5331" width="5.87267" height="5.99853" rx="1.34409" fill="#BEBEBE" fill-opacity="0.6"/>
<rect x="187.926" y="96.5331" width="5.87267" height="5.99853" rx="1.34409" fill="#BEBEBE" fill-opacity="0.6"/>
<rect x="211.416" y="96.5331" width="5.87267" height="5.99853" rx="1.34409" fill="#BEBEBE" fill-opacity="0.6"/>
<rect y="120.527" width="5.87267" height="5.99853" rx="1.34409" fill="#BEBEBE" fill-opacity="0.6"/>
<rect x="23.4911" y="120.527" width="5.87267" height="5.99853" rx="1.34409" fill="#BEBEBE" fill-opacity="0.6"/>
<rect x="46.9813" y="120.527" width="5.87267" height="5.99853" rx="1.34409" fill="#BEBEBE" fill-opacity="0.6"/>
<rect x="70.4724" y="120.527" width="5.87267" height="5.99853" rx="1.34409" fill="#BEBEBE" fill-opacity="0.6"/>
<rect x="93.9625" y="120.527" width="5.87267" height="5.99853" rx="1.34409" fill="#BEBEBE" fill-opacity="0.6"/>
<rect x="117.454" y="120.527" width="5.87267" height="5.99853" rx="1.34409" fill="#BEBEBE" fill-opacity="0.6"/>
<rect x="140.945" y="120.527" width="5.87267" height="5.99853" rx="1.34409" fill="#BEBEBE" fill-opacity="0.6"/>
<rect x="164.435" y="120.527" width="5.87267" height="5.99853" rx="1.34409" fill="#BEBEBE" fill-opacity="0.6"/>
<rect x="187.926" y="120.527" width="5.87267" height="5.99853" rx="1.34409" fill="#BEBEBE" fill-opacity="0.6"/>
<rect x="211.416" y="120.527" width="5.87267" height="5.99853" rx="1.34409" fill="#BEBEBE" fill-opacity="0.6"/>
<rect y="144.521" width="5.87267" height="5.99853" rx="1.34409" fill="#BEBEBE" fill-opacity="0.6"/>
<rect y="167.663" width="5.87267" height="5.99853" rx="1.34409" fill="#BEBEBE" fill-opacity="0.6"/>
<rect y="190.804" width="5.87267" height="5.99853" rx="1.34409" fill="#BEBEBE" fill-opacity="0.6"/>
<rect y="213.945" width="5.87267" height="5.99853" rx="1.34409" fill="#BEBEBE" fill-opacity="0.6"/>
<rect x="23.4911" y="144.521" width="5.87267" height="5.99853" rx="1.34409" fill="#BEBEBE" fill-opacity="0.6"/>
<rect x="23.4911" y="167.663" width="5.87267" height="5.99853" rx="1.34409" fill="#BEBEBE" fill-opacity="0.6"/>
<rect x="23.4911" y="190.804" width="5.87267" height="5.99853" rx="1.34409" fill="#BEBEBE" fill-opacity="0.6"/>
<rect x="23.4911" y="213.945" width="5.87267" height="5.99853" rx="1.34409" fill="#BEBEBE" fill-opacity="0.6"/>
<rect x="46.9813" y="144.521" width="5.87267" height="5.99853" rx="1.34409" fill="#BEBEBE" fill-opacity="0.6"/>
<rect x="46.9813" y="167.663" width="5.87267" height="5.99853" rx="1.34409" fill="#BEBEBE" fill-opacity="0.6"/>
<rect x="46.9813" y="190.804" width="5.87267" height="5.99853" rx="1.34409" fill="#BEBEBE" fill-opacity="0.6"/>
<rect x="46.9813" y="213.945" width="5.87267" height="5.99853" rx="1.34409" fill="#BEBEBE" fill-opacity="0.6"/>
<rect x="70.4724" y="144.521" width="5.87267" height="5.99853" rx="1.34409" fill="#BEBEBE" fill-opacity="0.6"/>
<rect x="70.4724" y="167.663" width="5.87267" height="5.99853" rx="1.34409" fill="#BEBEBE" fill-opacity="0.6"/>
<rect x="70.4724" y="190.804" width="5.87267" height="5.99853" rx="1.34409" fill="#BEBEBE" fill-opacity="0.6"/>
<rect x="70.4724" y="213.945" width="5.87267" height="5.99853" rx="1.34409" fill="#BEBEBE" fill-opacity="0.6"/>
<rect x="93.9625" y="144.521" width="5.87267" height="5.99853" rx="1.34409" fill="#BEBEBE" fill-opacity="0.6"/>
<rect x="93.9625" y="167.663" width="5.87267" height="5.99853" rx="1.34409" fill="#BEBEBE" fill-opacity="0.6"/>
<rect x="93.9625" y="190.804" width="5.87267" height="5.99853" rx="1.34409" fill="#BEBEBE" fill-opacity="0.6"/>
<rect x="93.9625" y="213.945" width="5.87267" height="5.99853" rx="1.34409" fill="#BEBEBE" fill-opacity="0.6"/>
<rect x="117.454" y="144.521" width="5.87267" height="5.99853" rx="1.34409" fill="#BEBEBE" fill-opacity="0.6"/>
<rect x="117.454" y="167.663" width="5.87267" height="5.99853" rx="1.34409" fill="#BEBEBE" fill-opacity="0.6"/>
<rect x="117.454" y="190.804" width="5.87267" height="5.99853" rx="1.34409" fill="#BEBEBE" fill-opacity="0.6"/>
<rect x="117.454" y="213.945" width="5.87267" height="5.99853" rx="1.34409" fill="#BEBEBE" fill-opacity="0.6"/>
<rect x="140.945" y="144.521" width="5.87267" height="5.99853" rx="1.34409" fill="#BEBEBE" fill-opacity="0.6"/>
<rect x="140.945" y="167.663" width="5.87267" height="5.99853" rx="1.34409" fill="#BEBEBE" fill-opacity="0.6"/>
<rect x="140.945" y="190.804" width="5.87267" height="5.99853" rx="1.34409" fill="#BEBEBE" fill-opacity="0.6"/>
<rect x="140.945" y="213.945" width="5.87267" height="5.99853" rx="1.34409" fill="#BEBEBE" fill-opacity="0.6"/>
<rect x="164.435" y="144.521" width="5.87267" height="5.99853" rx="1.34409" fill="#BEBEBE" fill-opacity="0.6"/>
<rect x="164.435" y="167.663" width="5.87267" height="5.99853" rx="1.34409" fill="#BEBEBE" fill-opacity="0.6"/>
<rect x="164.435" y="190.804" width="5.87267" height="5.99853" rx="1.34409" fill="#BEBEBE" fill-opacity="0.6"/>
<rect x="164.435" y="213.945" width="5.87267" height="5.99853" rx="1.34409" fill="#BEBEBE" fill-opacity="0.6"/>
<rect x="187.926" y="144.521" width="5.87267" height="5.99853" rx="1.34409" fill="#BEBEBE" fill-opacity="0.6"/>
<rect x="187.926" y="167.663" width="5.87267" height="5.99853" rx="1.34409" fill="#BEBEBE" fill-opacity="0.6"/>
<rect x="187.926" y="190.804" width="5.87267" height="5.99853" rx="1.34409" fill="#BEBEBE" fill-opacity="0.6"/>
<rect x="187.926" y="213.945" width="5.87267" height="5.99853" rx="1.34409" fill="#BEBEBE" fill-opacity="0.6"/>
<rect x="211.416" y="144.521" width="5.87267" height="5.99853" rx="1.34409" fill="#BEBEBE" fill-opacity="0.6"/>
<rect x="211.416" y="167.663" width="5.87267" height="5.99853" rx="1.34409" fill="#BEBEBE" fill-opacity="0.6"/>
<rect x="211.416" y="190.804" width="5.87267" height="5.99853" rx="1.34409" fill="#BEBEBE" fill-opacity="0.6"/>
<rect x="211.416" y="213.945" width="5.87267" height="5.99853" rx="1.34409" fill="#BEBEBE" fill-opacity="0.6"/>
</svg>
